<svg id="Layer_1" data-name="Layer 1" xmlns="http://www.w3.org/2000/svg" viewBox="0 0 612 612"><defs><style>.cls-1{fill:#faed23;}.cls-2{fill:#fcfad8;}.cls-3{fill:#fff;}.cls-4{font-size:244.57px;font-family:BrushScriptMT, Brush Script MT;}.cls-4,.cls-5{fill:#009444;font-style:italic;}.cls-5{font-size:44.84px;font-family:Arial-BoldItalicMT, Arial;font-weight:700;}.cls-6{letter-spacing:-0.07em;}.cls-7{letter-spacing:-0.04em;}</style></defs><title>Artboard 1</title><path class="cls-1" d="M164,278.73c0,90.85,72.78,164.49,162.56,164.49s162.57-73.65,162.57-164.49S416.4,114.24,326.6,114.24,164,187.88,164,278.73Z"/><path class="cls-2" d="M372.89,156.43c2.57,6.29-.94,9.4-2.8,12.68a6.5,6.5,0,0,0-1,3.46,14.68,14.68,0,0,0,3.13-4.33,10.91,10.91,0,0,0,.19-7c.18-1.66.33-3.29.51-4.83Z"/><path class="cls-2" d="M420.4,162.36c-1.73,3.72-6.56,8.9-9,11.5a60,60,0,0,0,7.21-8.92c1.14-1.68,1.76-2.58,1.76-2.58Z"/><path class="cls-2" d="M439.13,239.47c1.46-3.5,3.86-6.09,1.31-8.54,2.56,2.45,5.12,4.89,5.26,9.92-2.41,2.6-2.41,2.6-6.18.69l-.39-2.08Z"/><path class="cls-2" d="M439.5,206.34a12,12,0,0,1,3-4.19,61.35,61.35,0,0,0,6.94-6.75c-2.36,2.52-7,7.46-9.76,10.92l-.13,0Z"/><path class="cls-2" d="M295.12,151.39c.3-.27.6-.55.91-.81,1.74,2.06,4,4,5.89,5.94.14,4.94.3,9.87.54,14.81-.2.22-.39.45-.61.69,2.28-7.61-7.82-12.36-6.72-20.64Z"/><path class="cls-2" d="M221.33,240c1.24.41,2.5.82,3.86,1.18l-.22.36a14,14,0,0,0-3.42-1.11c-8.59-1.73-21,1.93-29.85-2.22a24.22,24.22,0,0,1,4-2.13A190.17,190.17,0,0,1,221.33,240Z"/><path class="cls-2" d="M386.34,151.67c-.55-1.95,1.87-4.77,1.52-4.22-.43,1.21-.94,2.63-1.52,4.22Z"/><path class="cls-2" d="M412.83,156.26c-1.84,2.49-6.67,7.67-9.1,10.26,2.43-2.59,4.85-5.17,7.6-7.77l1.5-2.49Z"/><path class="cls-2" d="M223.88,326.41c-4.68,1.67-7.11,4.27-9.52,6.86,2.42-2.59,9.95-.29,13.57-9.06-1.3.72-2.65,1.46-4,2.21Z"/><path class="cls-2" d="M192.27,334.63c2.06-5.82,12-6.11,16.85-11.28-2.29,7.62-12.37,2.88-13.26,9.89l-3.59,1.39Z"/><path class="cls-2" d="M213.42,323.73c8.2,1.76,13-3.42,18-3.56-2.42,2.59-7.25,7.77-13.52,2.87-1.5.25-3,.47-4.49.69Z"/><path class="cls-2" d="M210.53,303.11c3,0,10.35-2.77,10.5,2.27-7.11,12.79-17.35,3-24.88.72a76.16,76.16,0,0,1,9.83.14,22.91,22.91,0,0,0,4.55-3.13Z"/><path class="cls-2" d="M188,284.23c-5.11-5.45-7.24,7.2-9.94-.27,7.52,2.3,22.31-3.18,22.45,1.85-2.12,12.66-2.56-2.43-6.83-.85a16.55,16.55,0,0,1-5.68-.74Z"/><path class="cls-2" d="M222.41,219.32c-11.23,3.23-18.91-4.11-31.4-6.27,7.53,2.3,17.47,2,26.35,4.35l5.05,1.92Z"/><path class="cls-2" d="M189.93,232.16a1.66,1.66,0,0,0-.54.1c-.33-.19-.67-.3-1-.52-2-.46-3.07-.74-3.07-.74,3.42-1.59,7.32,0,11.82,1.65-2.38-.2-4.79-.37-7.21-.49Z"/><path class="cls-2" d="M214.33,293.26c-5.81,9.95-13.49,2.63-21,.32,5-.14,14.92-.43,20.35-1.64a8,8,0,0,1,.67,1.32Z"/><path class="cls-2" d="M351.14,153.42a7.14,7.14,0,0,1,1.52,4.92,14.82,14.82,0,0,1-1.29,4.42c-2.5.34-4.9,2.92.21,7.81-2.55-2.44-5.1-4.89-3.21-8.69a27.69,27.69,0,0,1,.5-4.59c.27-1.47.59-2.84.81-4.07.5.08,1,.13,1.47.2Z"/><path class="cls-2" d="M231.58,329.32h.09a7.36,7.36,0,0,1,3.77,2c1.39,3.85,1.39,3.85,1.53,8.88a16.23,16.23,0,0,0-2.81-4,11.33,11.33,0,0,0-7.55-3.37c1.63-1.2,3.3-2.37,5-3.51Z"/><path class="cls-2" d="M189.31,275.9a14.15,14.15,0,0,1-1.55-2.3c7.32-2.72,14.78-.5,23.34.35a129.09,129.09,0,0,1-21.79,1.94Z"/><path class="cls-2" d="M241.08,169.52c2.42,4.47,6.64,9.21,10.69,13.33,1,1,2,2,2.6,1.2a36.46,36.46,0,0,0-3.87-3.5c-5.36-4.29-11.21-7.39-12.1-13.79.77.81,1.65,1.73,2.68,2.77Z"/><path class="cls-2" d="M266.71,187.08c1.47,1.5,2.88,2.91,4.19,4.28,1.67,1.67,9.21,4,6.94,11.59-2.57-2.44-10.1-4.75-8.2-11a14.76,14.76,0,0,0-3.5-4.39c.18-.16.37-.31.56-.48Z"/><path class="cls-2" d="M386.76,359.82a32.7,32.7,0,0,1,4.74,7.57c.75,1.41,1.48,2.85,2.23,4.24,2.32,4.17,4.9,7.86,8.68,9-4.26-4.09-10.2-6.36-12.45-11.91a11.83,11.83,0,0,1-.88-3.77c-1.93-3.07-2.68-4.71-2.32-5.15Z"/><path class="cls-2" d="M259.94,187.09c-.64-.92-1.46-1.92-2.33-2.92-2.65-3-6-6.26-7.94-8.09,1.93,1.83,5.29,5,8,8.05.9,1,1.7,2,2.39,2.9,0,0,0,0-.1.06Z"/><path class="cls-2" d="M236.66,212c-9.78-4.35-20.47-6.59-29.78-13.55,9.11,6.82,19.55,9.1,29.2,13.23l.57.32Z"/><path class="cls-2" d="M450.23,341.84c.91,2.12.91,2.12,3.47,4.56-2.56-2.45-7.68-7.34-10.23-9.79,0,0,2.55,2.45,2.87,2.17,1,.78,2.31,1.78,3.88,3.06Z"/><path class="cls-2" d="M440.22,336.78c-6.85-4.89-11.81-4.74-16.8-4.6,5.11,4.88,9.95-.29,14.81,3.54.8.45,1.44.78,2,1.06Z"/><path class="cls-2" d="M406.18,318c6.87-.68,4.59,6.94,7.16,9.39-2.57-2.45-9.95.3-9.28-7,.7-.77,1.41-1.56,2.12-2.36Z"/><path class="cls-2" d="M401.81,318.89c1.15-6.27-11.23-3.39-11.37-8.42,5-.14,12.37-2.87,13.64,5.93-.77.83-1.52,1.66-2.27,2.5Z"/><path class="cls-2" d="M235.76,160.14c6.11,3.57,6.39,13.64,13.91,15.94-5.1-4.9-7.65-7.34-12.42-14.13a6.05,6.05,0,0,0-1.5-1.81Z"/><path class="cls-2" d="M416.78,331.35c6.79,5.85,16.88,10.59,27,15.33-10.09-4.74-17.62-7-27.09-14.73,0-.21.09-.39.13-.6Z"/><path class="cls-2" d="M402.82,321.8c3.12,8.36,10.23-4.43,10.37.6s-7.4,2.74-10.82-.1c.16-.17.3-.34.46-.5Z"/><path class="cls-2" d="M421.91,382.18c.54,2.93.54,2.93,3.1,5.35a14.62,14.62,0,0,1-2.23-2.83c-3-7.09-8.14-12-13.26-16.87a109.35,109.35,0,0,1,11.44,12,8.1,8.1,0,0,1,1,2.33Z"/><path class="cls-2" d="M400.42,353.28c-6.41-5.13-4.14-12.75-11.67-15,5.11,4.87,12.64,7.18,12.45,14.7-.24.12-.5.22-.77.34Z"/><path class="cls-2" d="M341.35,387.31a15.88,15.88,0,0,0,0,3.64,26,26,0,0,0,.65,3.35c1.13,4.31,2.9,8.17,1.39,13.27-.1-3.36-1.33-7.8-2.68-12.69-.34-1.23-.69-2.49-1-3.75s-.66-2.53-1-3.79c.87,0,1.73,0,2.6,0Z"/><path class="cls-2" d="M352.84,417c.19,1.85.37,3.72.48,5.59-.75.91-.93,1.78.13,2.68,0,.87.1,1.71.12,2.59-2.77-3.54-5-7.1-.72-10.85Z"/><path class="cls-2" d="M242.65,202.45c-7.3-5.8-22.38-10.39-27.65-19-1.46-1.2-2.5-2.1-2.5-2.1.15-.18.32-.36.46-.54,0,0,.31.19,1.4,1,8.33,7.66,21,14.84,28.49,20.37a2.63,2.63,0,0,0-.2.26Z"/><path class="cls-2" d="M371.43,351c-.89-2.42-1.73-4.85-2.59-7.3,2.52,2.06,5.29,4.46,8.11,7a35.7,35.7,0,0,1,1,4.22c.26,1.32.53,2.42,1.07,2.82a1.33,1.33,0,0,0-.28.05c-1-.82-2.71-2.45-4.55-4.15L371.43,351Z"/><path class="cls-2" d="M341.69,416.25c-.37,4-10.18,9.29-.08,14-7.68-7.33-10.38-14.82-.58-20.13,0,0,.14,5,1.75,4.15-.07,1.18-.4,1.89-1.09,1.94Z"/><path class="cls-2" d="M376.56,420.78a23,23,0,0,1-5-8.81,24.05,24.05,0,0,1-.68-3.93c-.13-1.28-.15-2.54-.19-3.8a5.79,5.79,0,0,1,3.69,3c2.1,4,.39,10.51,4,13.48,1,2.61,1,3.34-1.9.08Z"/><path class="cls-2" d="M393.38,390.16c1.65-6.78-10.87-8.92-3.63-16.7-2.26,7.61,5.27,9.92,4,16.7Z"/><path class="cls-2" d="M452.53,232.57a56.62,56.62,0,0,0,7.66-7.26l-5.4,5.81c-.77.47-1.54,1-2.26,1.45Z"/><path class="cls-2" d="M366.06,364c.54,1.31.26,3.87.78,6.38a8.14,8.14,0,0,0,1.56,3.59,8,8,0,0,0,4,2.56c-1.8,1.95-6.34,6.8-9.61,5.95-1.11-.27-2.07-1.19-2.76-3.06-.14-5-.28-10.07,2.74-14.77,1.09-.17,2.17-.36,3.27-.64Z"/><path class="cls-2" d="M358.07,361.6a33.19,33.19,0,0,1-1.29-9.83c2.57,2.43,5.11,4.87,4.4,9.91a15.94,15.94,0,0,1-3.11-.08Z"/><path class="cls-2" d="M243.49,200.08c-10.72-5.88-15.83-10.77-22.46-17.14-1.08-1-2.15-2-3.17-3s-2-1.91-3-2.84a19.55,19.55,0,0,1,3.58,2.21,33.39,33.39,0,0,1,3.28,2.91c8.35,4.5,11.18,17,21.65,17.52,0,.1.08.23.11.34Z"/><path class="cls-2" d="M210,203.6c-4.35-1.05-6.9-3.5-9.46-5.94,2.71,7.47,10.09,4.74,11.45,6.23-1.17-.37-1.87-.49-2-.29Z"/><path class="cls-2" d="M412.74,278.55c-1.71.45-3.44.83-5.15,1.18l0,0c.39-.65.76-1.33,1.14-2,2.77-.54,12.4-10.54,13.41-1.12-3.16.54-6.29,1.16-9.37,2Z"/><path class="cls-2" d="M455.72,279c3.36-5.84,5.77-8.42,6.05,1.63-2.27,7.63-7.68-7.32-9.31,1.21a7.87,7.87,0,0,0,3.25-2.84Z"/><path class="cls-2" d="M463.33,239.48c0,8.41-5.12,3.52-10.09,3.67,5-.15,7.38-2.74,9.84-4.31l.25.64Z"/><path class="cls-2" d="M434.07,266.67c-5,2.37-14.79,7.69-17.34,5.25-.3-10.07,12.51,2.15,14.53-5,.94-.1,1.86-.18,2.81-.24Z"/><path class="cls-2" d="M414.15,265.7c7.41,1,12.22-4.14,17.2-4.28-4.83,5.18-12.35,2.88-17.2,4.29Z"/><path class="cls-2" d="M292.09,154.34c1.62,4.44,3.76,10.37,6,16.55.44,1.23.9,2.48,1.34,3.73a25,25,0,0,1-2.37-2.64,31,31,0,0,1-2-2.95,44.07,44.07,0,0,1-4.78-12.54c.57-.74,1.16-1.46,1.78-2.15Z"/><path class="cls-2" d="M287.53,144.91c3.64,2.25,3.64,2.25,1.23,4.84-7.53-2.3-.29-10.07-5.42-15,2.58,2.46,2.58,2.46,4.11,6.25,1,1.92,1.39,3.61.08,3.88Z"/><path class="cls-2" d="M254.47,160.59c-2.8-2.21-5.36-4.65-5.5-9.68.14,5,5.27,9.91,10.38,14.8,0,0-2.55-2.44-2.18-2.69-.9-.8-1.8-1.63-2.7-2.43Z"/><path class="cls-2" d="M264.11,143.05a28.4,28.4,0,0,0,7.31,9.72c-2.57-2.45-5.13-4.89-6.16-7.5-.55-1.23-.46-1.55-1.15-2.21Z"/><path class="cls-2" d="M288,159.6c-.81,5.22,4.49,7.92,7.43,11.39A7.79,7.79,0,0,1,297,173.8a7.9,7.9,0,0,0-1.63-2.81c-3-3.44-8.28-6.1-7.58-11.17a1.47,1.47,0,0,0,.16-.22Z"/><path class="cls-2" d="M432.91,298.55c2,.54,2,.54,6.19,3.49a33.5,33.5,0,0,0,4.28-.37c1.41-.19,2.8-.39,4-.43a40.8,40.8,0,0,0-4.08.44,43.36,43.36,0,0,1-4.42.46c-3.85,2-6.41-.46-7.55-2.77l1.54-.82Z"/><path class="cls-2" d="M422.24,292.6a36.81,36.81,0,0,1,6.37,5.18c-.4.22-.77.45-1.18.66-4.89,3.52-10-1.35-12.56-3.8A10.11,10.11,0,0,1,418,292.2c1.41.17,2.8.29,4.2.4Z"/><path class="cls-2" d="M449.89,300.82c.1,2.87,9.9-2.47,10,2.59-5,.14-9.95.28-10.43-1.95a1.26,1.26,0,0,0,.39-.64Z"/><path class="cls-2" d="M237.68,261.24l5.47,2.13c1.62,1.71,3,3.62,4.52,5.23-.33,0-.66.06-1,.07-1.25.07-2.49.16-3.7.27-4.89-2.79-9.14-6.64-15-6.27-1.4-.47-2.84-.91-4.34-1.26,4.7,0,9.37-.08,14-.19Z"/><path class="cls-2" d="M191.34,258.78c1.56.24,3.09.53,4.64.82,2.47.67,7.43.79,11.86.94l2.6,1c-5.53,1.58-12.59-1.29-18.36-2.32-1.66-.3-3.35-.56-5-.77a33.57,33.57,0,0,0-7.12-.13,40.48,40.48,0,0,1,11.38.4Z"/><path class="cls-2" d="M202.41,252.4c1.45.09,2.85.24,4.25.47a3.39,3.39,0,0,1,3.51-.9,1.79,1.79,0,0,0,1.33,2.9c1,0,2,.11,3,.19l.14.12c-5,.15-5,.15-10.72-.75a19.88,19.88,0,0,0-4.5-1,5.29,5.29,0,0,0-1.18.08c-1.81-.52-3.62-1-5.45-1.37,3.28,0,6.53.06,9.64.28Z"/><path class="cls-2" d="M228.9,264.39a25.29,25.29,0,0,0-3.43-.09l-.46-.22a21.83,21.83,0,0,1,4.06-1.33c5.35-3,10.3,1.42,15.22,6.1-1.42.12-2.82.25-4.24.4-3.32-1.75-5.15-6.53-11.16-4.86Z"/><path class="cls-2" d="M221.08,271a16.68,16.68,0,0,1,4.4-.51,7.59,7.59,0,0,1,3.22-.78c.63.3,1.29.57,1.93.85-5,.82-9.93,1.73-14.86,2.6V273a27.93,27.93,0,0,1,5.31-2Z"/><path class="cls-2" d="M211.41,272c-11.3-1.23-23.65,1.65-36.16-.51,2.56,2.44,10.09,4.74,12.51,2.16l-.14-5c7.82,12.37,14.78-5.47,24,2.17-.07.41-.14.81-.18,1.22Z"/><path class="cls-2" d="M187.35,266.22c-1.22-.63-2.29-1.27-3.25-1.81-2.88-1.63-4.78-2.53-6.57-.59a10.28,10.28,0,0,1,3.71-.62,16.15,16.15,0,0,1,3.76.51c5,2.26,10,2.13,15,2a43,43,0,0,0-8.77.77c-1.31-.07-2.61-.15-3.87-.25Z"/><path class="cls-2" d="M224.1,250.73a34.77,34.77,0,0,0,7.88,4,35.89,35.89,0,0,1,3.83,1.84,31.73,31.73,0,0,0-3.84-1.8,40.29,40.29,0,0,1-8-3.81c0-.09.11-.18.17-.27Z"/><path class="cls-2" d="M200.09,244.29c4.29,1.12,6.71-1.47,11.82,3.42-12.37,2.88-20-4.45-30-4.16,5.09,4.89,7.52,2.3,12.5,2.16,0,0-2.55-2.45-.62-2.31a13.53,13.53,0,0,0,6.28.89Z"/><path class="cls-2" d="M256.81,256.45c-1.93.24-3.88.42-5.84.57-4.52-.77-8.47-4.23-13.19-7.91-.29-.14-.57-.25-.82-.38.56.11,1.13.27,1.69.43,5.75,5.1,13.17,7.39,18.15,7.29Z"/><path class="cls-2" d="M222.37,246.08c-5.63-3.55-10.61-3.41-15.58-3.26,7.39-2.72,12.5,2.16,16.44,1.78-.29.5-.56,1-.86,1.49Z"/><path class="cls-2" d="M275.7,281.41c.67-.2,1.35-.46,2-.7l1.61.1c3,5.45-1.5,10.37-3.82,12.88,4.82-5.19,2.26-7.63.23-12.29Z"/><path class="cls-2" d="M282.57,281.05a78.9,78.9,0,0,1,15.56,2.69,1.58,1.58,0,0,0,1.26-.15c-1.77,1.89-2.08,2.06-4.95,3.4a11.9,11.9,0,0,1-3.33-1c-3.46-1.47-7.25-3.89-11-2.51.79-.84,1.6-1.68,2.43-2.43Z"/><path class="cls-2" d="M259.12,264.71c4.95-3.16,10.92-1.06,14.69,3-.93-.05-1.86-.06-2.79-.1-4-1-7.94-1.91-11.89-2.94Z"/><path class="cls-2" d="M269.19,270.91c2.54.6,5.07,1.23,7.61,1.93a10.86,10.86,0,0,1,.63,3.17,14.17,14.17,0,0,0-4-2.72c-6.46-2.91-13.53-.19-18-2,4.53-.34,9.15-.52,13.72-.4Z"/><path class="cls-2" d="M257.08,284.26c3.31,4.85,5.74,2.25,10.7,2.11s2.41-2.58-.15-5c-7.53-2.29-2.12,12.66-9.73,6.35-.25-1.15-.56-2.29-.82-3.43Z"/><path class="cls-2" d="M237.44,351.2c-3.21,2.27-6.22,5.51-9.85,9.39,3.63-3.88,6.64-7.12,9.74-9.38a20.79,20.79,0,0,1,3.14-1.92c1.07-2.85,2.59-2.68,4.32-2.18-1.12.57-2.46,1.41-4.07,2.15a20.7,20.7,0,0,0-3.28,1.93Z"/><path class="cls-2" d="M258.6,351.27c3.53-1.78,8.33-6.95,10.77-9.54-2.44,2.59-7.24,7.76-10.76,10.44,0-.29,0-.61,0-.9Z"/><path class="cls-2" d="M244.47,358.2c1.2-1.33,2.31-2.53,3.35-3.56q2.78-1.7,5.5-3.46c-1.69,2.59-3.41,5.16-5.21,7.67-.67.61-1.33,1.23-2.11,1.89a27.05,27.05,0,0,1-2.89,3.5c-.32.32-.63.58-1,.86.74-2.31,1.52-4.62,2.33-6.91Z"/><path class="cls-2" d="M238.76,375.48c.74-.87,1.52-1.74,2.28-2.61a15.77,15.77,0,0,0-1.5,2.14c2.56.17,5.91-2.7,8.44-5.25.85-.84,1.61-1.63,2.2-2.29a9.86,9.86,0,0,0-2-2.89c.55-.66,1.09-1.3,1.63-2,1.52-1.92,2.86-4,4.2-6a16.84,16.84,0,0,0,4.56-3.35,19.07,19.07,0,0,1,.41,2.44c-1.52,4-6.35,9.2-7.42,11.06-.72,1.39-1.46,2.76-2.25,4-2.49,3.89-5.65,6.62-11,6.08.15-.46.31-.92.49-1.36Z"/><path class="cls-2" d="M259.89,370.78a25,25,0,0,1-2,3.18c-.77,1.08-1.64,2.21-2.53,3.27-1.75,2.12-3.58,4.05-4.78,5.35A11.86,11.86,0,0,1,252,376.5a34.69,34.69,0,0,1,3.26-4.65,7.77,7.77,0,0,0,4.64-1.07Z"/><path class="cls-2" d="M344.67,152.66c-.13,1.77-.24,3.38-.31,4.87s-.14,2.9-.18,4.24c4.85,6.35-5,11.68.15,16.56-.14-5-.43-15.1-4.85-20.84a33.08,33.08,0,0,1-.27-5,32.62,32.62,0,0,1,5.45.15Z"/><path class="cls-2" d="M342.24,172.94c-5.45,3.1,4.8,12.88-.17,13,0,0-5,.16-7.54-2.29,5-.15-.28-10.07,4.69-10.21,2.58,2.45,7.68,7.33,12.79,12.21-2.56-2.44-7.68-7.32-10.12-11.15a11.27,11.27,0,0,1,.35-1.58Z"/><path class="cls-2" d="M369.87,175.66c-5.64,2.1-2.78,14.6-7.61,19.77,2.25-7.62-5.41-14.95,6.3-20,.4,0,.85.12,1.31.21Z"/><path class="cls-2" d="M318.87,171.74c.25,1.15,2.87,2.91,4.22,5a3.89,3.89,0,0,1,.6,3.46c-6.34,11.48-4.36-6.22-6.48-4a19.08,19.08,0,0,1-1.1-4.49,13.56,13.56,0,0,1,.52-5.25s5-.14,3.69,1c.41,2.34.13,3.91-1.45,4.19Z"/><path class="cls-2" d="M325.2,191.85c2-5.45,2-5.45,1.8-10.48.15,5,.15,5-.86,9.26-.19.8-.57,1.25-.94,1.22Z"/><path class="cls-2" d="M288.49,182.7c-1.14,4.87,6.25,2.14,1.42,7.31-.15-5-2.7-7.47-5.26-9.91,7.54,2.29,2.84,12.5,10.39,14.79-2.56-2.44-5.12-4.88-4.8-8.34-.54-1.23-1.14-2.51-1.74-3.85Z"/><path class="cls-2" d="M288,196.48c-5.49-3.74-5.79-13.81-10.9-18.7,5.11,4.88,10.24,9.78,11.14,18.5-.1,0-.15.14-.24.2Z"/><path class="cls-2" d="M264.15,157.88c.18,7.69,12.68,9.83,10.41,17.46-7.68-7.33-10.39-14.8-12.63-23.06,3.67,4,2.66,4.24,2.23,5.61Z"/><path class="cls-2" d="M276.06,167.79c-1.78-2.52-6.9-7.4-9.45-9.84,2.56,2.44,5.1,4.88,7.18,6.77.79,1,1.55,2,2.27,3.07Z"/><path class="cls-2" d="M289.07,231.57c-5.53-3.61-20.45-3.16-18.32-15.81,5.12,4.89,12.79,12.21,18.56,15.68l-.24.14Z"/><path class="cls-2" d="M282.9,228.45a23,23,0,0,1,5.76,4.41c-5.12-4.89-15.07-4.59-17.78-12.06,2.71,7.47,12.51,2.15,13.89,9.08.32.27-.19-.14-1.87-1.43Z"/><path class="cls-2" d="M267,217.29c-2.35-3.07-4.66-6.19-7-9.26a10.21,10.21,0,0,1,.31-1.68,9.6,9.6,0,0,0-2.11-2.8,6.34,6.34,0,0,0-2.81-1.4c-.72-.87-1.48-1.7-2.22-2.55a20.45,20.45,0,0,1,8.88,3.1,12.18,12.18,0,0,1,3,2.93c5.58,5.09,3.17,7.69,3.31,12.72a12.15,12.15,0,0,0-1.36-1.05Z"/><path class="cls-2" d="M293.81,238.9c2.51,1.29,5.07,3.74,7.64,6.18-2.57-2.44-5.13-4.89-8.67-5.82l1-.36Z"/><path class="cls-2" d="M269.33,246c-.29-2.48-2.84-4.92-5.68-7.6-.83-.84-1.65-1.61-2.29-2.22.64.61,1.46,1.38,2.29,2.22,2.83,2.67,5.39,5.11,5.91,7.39l-.23.2Z"/><path class="cls-2" d="M298.93,355.27c-.91,2.18-1.89,4.31-2.92,6.42a20.33,20.33,0,0,1-3.43-3.43,17.85,17.85,0,0,0-2,.46c1.5-5.05,1.5-5.05,1.36-10.1,2.3,2.22,4.63,4.44,6.95,6.65Z"/><path class="cls-2" d="M281,343.72a36.2,36.2,0,0,0,.6-9.91c2.56,2.45,2.71,7.48,2.83,12.51,0,0-17,13.1-4-2.61a4.43,4.43,0,0,0,.51,0Z"/><path class="cls-2" d="M285.2,354.2c-.48,2.19-5.31,7.36-8,9.45A3.69,3.69,0,0,1,275,362.6a14.76,14.76,0,0,1-2.69-3.32,18.91,18.91,0,0,1,3.15-2.59c1.82,2.43,4.24-.16,7.57-2.29a17.54,17.54,0,0,0,2.12-.2Z"/><path class="cls-2" d="M415.88,354.77c3.13,2.45,7,5.05,10.68,7.94-4.79-2.29-9.55-4.71-12.09-9,.47.36,1,.7,1.41,1.06Z"/><path class="cls-2" d="M395.81,335.22a1.93,1.93,0,0,0-.55-.25,12.51,12.51,0,0,1-1.79-3.75c.14-.14.29-.26.44-.4.79.52,1.55,1,2.24,1.45,1.52,1.29,3,2.64,4.49,4,1.27,1.21,2.54,2.49,3.82,3.74-1.38-.53-2.75-.92-4.06-1.42-1.53-1.13-3-2.28-4.57-3.41Z"/><path class="cls-2" d="M408.88,354.6c8,10.52,18.27,20.28,28.5,30.06-7.67-7.34-17.91-17.1-25.2-26.33-1-1.1-2-2.32-3.3-3.73Z"/><path class="cls-2" d="M405.33,350.45c-1.51-7.64-8.9-4.89-11.47-7.34,2.57,2.45,10-.3,11.71,7.12a1.79,1.79,0,0,0-.25.22Z"/><path class="cls-2" d="M345.51,309.52c.25,2.39-.22,4.79.68,7.19-2.76-3.93-3.08-7.78-3.19-11.65.77,1.52,1.61,3,2.51,4.46Z"/><path class="cls-2" d="M367.63,304.43c-2.35-3.29-4.9-5.74-9.87-5.59,2.41-2.59,5-.14,7.36,3.31l2.51,2.29Z"/><path class="cls-2" d="M324.74,362.6c-2.5.25.36,12.75-9.74,8,4.84-5.17,7.24-7.76,12.07-12.95a34.73,34.73,0,0,0-2.79,3.32,8.38,8.38,0,0,1,.47,1.61Z"/><path class="cls-2" d="M325,348.39c1.65.36-.83,2.12,1.33,2.37a9.62,9.62,0,0,0-1.33-2.37Z"/><path class="cls-2" d="M328.24,251.38c-1.77-2,.36-14.65-9.45-9.33l7.68,7.33c-7.68-7.33-.44-15.11-5.54-20,10.08,4.75.42,15.11,7.7,24.22-.13-.73-.26-1.46-.39-2.23Z"/><path class="cls-2" d="M317.18,227.4a7.27,7.27,0,0,1-.33-4.12,4.15,4.15,0,0,0-1.21-3.79c7.39-2.74,10.1,4.74,12.65,7.18-2.47.08-4.32.75-6.16.92a6.72,6.72,0,0,1-2.77-.29,9.7,9.7,0,0,1-3.27-1.93c.39.7.75,1.38,1.1,2Zm1.88,5.19"/><path class="cls-2" d="M315.66,191.5c.77,3.82,1.49,7.64,2,11.5a12.86,12.86,0,0,1-5.35-.45c-.12-1.61-.24-3.22-.38-4.84s-.3-3.22-.45-4.84c.28-.34.53-.67.87-1,.84-.89,2-.85,3.29-.36Z"/><path class="cls-2" d="M306.64,288.11c5.77-8.08,8.32-5.65,8.63,4.42-.16-5-10,.28-11.25-3.69.87-.27,1.73-.5,2.62-.74Z"/><path class="cls-2" d="M309.88,277.2a9.07,9.07,0,0,1,3.81.9,12.82,12.82,0,0,1,3.88,3.07c-.46.09-.93.16-1.4.26-6,6.22-11.15,1.32-13.75-.88a9.37,9.37,0,0,0-1.82-.15c3.07-1.63,6.14-3.22,9.29-3.2Z"/><path class="cls-2" d="M300.15,281.25l1.44-.87c2.19-1.35,4.57-2.7,7-2.35a6.77,6.77,0,0,1,3.78,2c-2.55-2.46-5,.13-8,2.31-1.34-.07-2.76-.08-4.15-.1a1.89,1.89,0,0,0-.11-1Z"/><path class="cls-2" d="M316,314.23c.11,8.51-7.26,11.24-12.1,16.41,4.84-5.17,9.65-10.35,9.43-13.87a8,8,0,0,0,2.67-2.55Z"/><path class="cls-2" d="M323.35,291.32c-.24,3-.53,6-.57,8.95,0,2.3,3.49,2.3,3.52,0,0-3.75.5-7.47.74-11.22a13.53,13.53,0,0,1,5.88-1.72,4.24,4.24,0,0,0,3.68.4c-.84,6.07-5.34,10.44-9,14.89-.41,3.82-1.53,7.22-4.4,7.3-12-4.76-6.86-13.5.13-18.61Z"/><path class="cls-2" d="M315.54,308.12c2.84,7-4.54,9.73-9.38,14.9,4.84-5.17,12.22-7.91,8.7-15.4.24.16.46.33.67.5Z"/><path class="cls-2" d="M313,261.24c.15-1.59.34-3.19.46-4.77,2,1.83,4.11,3.78,7.11,6.45,1.36,1.8,2.7,3.53,2.7,3.53,1.25.62,1.39,5.64,1.39,5.64l-10.24-9.78a12.9,12.9,0,0,0-1.41-1.08Z"/><path class="cls-2" d="M250.07,207q2.78,3.48,5.55,7c1.88,2.38,3.86,4.87,5.82,7.37-4.29-1-6.8-6-10.64-8.81-1-1.06-1.92-2.12-2.83-3.1a33.16,33.16,0,0,0-2.76-2.62l.3-.44a14.16,14.16,0,0,1,4.57.63Z"/><path class="cls-2" d="M241.37,204.18c-3.48-5.1-6.18-12.58-16-7.24,7.37-2.74,12.5,2.15,16.17,7a1.13,1.13,0,0,1-.2.28Z"/><path class="cls-2" d="M351.31,257.49c.1-1.32.2-2.64.17-3.81,3.71-1.38,7.47-1.48,11-1.54-3.73,1.8-7.43,3.58-11.16,5.34Z"/><path class="cls-2" d="M358.66,258.34a1.55,1.55,0,0,0,2,.92l1.27-.44c-2.82,3.12-4.75,7.31-7.58,7.38-2.53.07-3.18-1.85-3.25-4.41,2.55-1.14,5.05-2.29,7.58-3.45Z"/><path class="cls-2" d="M377.37,249.3c3.1-1.57,6.2-3.15,9.2-4.83,1.79-1,3.56-2,5.27-3.08-.94.93-2,1.86-3,2.78-3.76,1.82-7.59,3.52-11.47,5.13Z"/><path class="cls-2" d="M382.18,242.74c-.91.43-1.82.88-2.74,1.31a19.9,19.9,0,0,1,2.5-2.28,22.69,22.69,0,0,1,9.23-3.92,94,94,0,0,1-9,4.89Z"/><path class="cls-2" d="M379,343.64a38.5,38.5,0,0,0,4.05,3.27c4.12,3,7.94,5.74,6.25,11.45-3.43-3.25-6.84-6.52-9.21-10.33a26.23,26.23,0,0,1-1.54-3,18.66,18.66,0,0,1-1-3.24c.49.6,1,1.19,1.48,1.82Z"/><path class="cls-2" d="M346.46,304c5.29,3,11.59,5.73,11.87,14.93a53.37,53.37,0,0,0-5.38-4.23,116.12,116.12,0,0,1-6.49-10.7Z"/><path class="cls-2" d="M366.53,337.53c-.57-1.37-1.18-2.73-1.84-4.06-1.07-2.13-2.23-4.17-3.47-6.2,4.23,3.43,8.42,7.39,12.61,11.39a6.74,6.74,0,0,1-7.29-1.13Z"/><path class="cls-2" d="M287.83,315.86a56.52,56.52,0,0,1-6.54,7.89l12.09-12.95s-2.42,2.58-3.19,1.68q-1.19,1.72-2.36,3.37Z"/><path class="cls-2" d="M227.49,299.8a22.2,22.2,0,0,1,11-1.28,21.77,21.77,0,0,1,4.21,1c3.07.1,5.64,2.56,8.2,5-2.57-2.44-5.13-4.89-7.71-3.7a5.91,5.91,0,0,0-4.08-.7c-1.39.35-2.79,1.43-4.25,3.7-1.23.3-2.49.6-3.82.82a23.91,23.91,0,0,1-4.28.39q-2.93.56-5.8,1.25c-13.49,3.21-26.39,8.5-39.41,10.35,12.13-2.13,25.38-8,39.07-11.5q2.93-.75,5.88-1.35c1.46-.83,4.62-1.12,8.22-1.28,1.19-.05,2.44-.08,3.67-.12a4.33,4.33,0,0,0-3.69-1.36c-3.54.46-6.32,4.72-7-1.14l-.23,0Z"/><path class="cls-2" d="M260.2,308.84c-1.53-.58-3-2-4.35-4.49-.15-5,9.8-5.32,15.27-5.24.47,1.17.92,2.36,1.33,3.54l-.17.15q-6.08,2.92-12.08,6Z"/><path class="cls-2" d="M257.25,305.91c-1.4-1.56-4-4-6.51-6.44-.14-5,2.41-2.61,6.06.58.18,2,.3,4,.45,5.86Z"/><path class="cls-2" d="M239.42,331.22a29.16,29.16,0,0,1-3.89,3.88,35.58,35.58,0,0,1-4.19,2.88c-5.67,3.35-11.7,5.21-16.54,10.37,6.15-2.27,8.67-11.43,15.48-15.13a12.82,12.82,0,0,1,4.66-1.47,22.87,22.87,0,0,1,4.49-.52Z"/><path class="cls-2" d="M259.88,242c6.88,9.1,22,13.69,24.8,26.2-7.68-7.32-17.93-17.09-25.15-25.15.11-.35.23-.72.35-1Z"/><path class="cls-2" d="M234.41,231.7c1.86,8.53,14,.87,18.25,6.81A9.61,9.61,0,0,1,254.1,244a40.62,40.62,0,0,1-3.45-4c-1.08-1.35-2.11-2.66-3.14-3.73-2.11-2.15-4.35-3.33-7.51-2-1.72-.83-3.6-1.67-5.58-2.57Z"/><path class="cls-2" d="M231.59,227.43c-7.89-2.74-15.43-5-23-7.35,9.95-.28,15.06,4.61,23.26,6.55-.12.27-.21.54-.31.8Z"/><path class="cls-2" d="M293.84,206.28a16.09,16.09,0,0,0,1.78,3,62.76,62.76,0,0,0,7.52,8.09,67.75,67.75,0,0,1-7.77-8.34,21.35,21.35,0,0,1-2.13-3.28,7.21,7.21,0,0,0,.59.58Z"/><path class="cls-2" d="M397.83,199.16a62.51,62.51,0,0,0-.33,10.36c2.43-2.59-.13-5-1.82-6.74.68-1.18,1.42-2.38,2.15-3.63Z"/><path class="cls-2" d="M386.13,193c.85-3.35.71-8.39,5.83-3.49a5.57,5.57,0,0,1-1.15,3.41,16.33,16.33,0,0,1-3,3,16.05,16.05,0,0,0-4.2,2.79c14.06,15.8,1.13-1.46.89-2.83.54-.94,1.09-1.92,1.66-2.88Z"/><path class="cls-2" d="M379.51,197.86c-2.19,2.18-4.46,9.8-7.17,2.33L382,189.82c-2.42,2.6-4.84,5.18-2.81,8.12l.32-.08Z"/><path class="cls-2" d="M376,185.44a1.78,1.78,0,0,0,3.28.9c.47-.72.86-1.45,1.31-2.17,0,.17,0,.37.06.56a25.93,25.93,0,0,1-3.76,5.2c-2.27,2.63-2.27,2.63-4.69,5.22-.12-4.29,1.61-6.79,3.79-9.71Z"/><path class="cls-2" d="M419.44,178c-2.9.74-2.9.74-5.32,3.33,4.83-5.17,7.25-7.76,12.08-13-2.41,2.6-2.41,2.6-3.58,5.36-.94,1.25-2,2.67-3.18,4.26Z"/><path class="cls-2" d="M399.56,196.26c-2.48-1.83-.07-4.43.83-7.33a6.39,6.39,0,0,1,3.7-3.79,21.44,21.44,0,0,1,7.61-1.22l-3.22,3.46c-1,1-1.8,2-2.62,2.89-1.39,1.41-3.83,4-4.64,5.68a13.26,13.26,0,0,1-1.67.3Z"/><path class="cls-2" d="M389,163.18c-2.9,4.72-5.71,9.51-8.54,14.27-.42,0-.83-.06-1.31-.14a2,2,0,0,1-.52-1.69c2.88-5.14,5.62-10.35,8.11-15.68a19.43,19.43,0,0,1,4.34-.62,23.69,23.69,0,0,0-.64,3,1.57,1.57,0,0,0-1.44.82Z"/><path class="cls-2" d="M372.44,186.39c.42,4,.31,8.41-2.9,12.27a10.33,10.33,0,0,0,.24,2.81c-1.74-4.2,1.07-9.16,2.18-14.24l.49-.84Z"/><path class="cls-2" d="M378,157.17c1.22-1,2.34-1.91,3-2.58.15,4.72.22,9.46-4.88,14.22A66.13,66.13,0,0,0,378,157.17Z"/><path class="cls-2" d="M392.8,187.2c1.58-.27,4-2.85,1.8-3l-1.8,3Z"/><path class="cls-2" d="M247.13,168.32c2.41,2.72,7.52,7.61,10.09,10q-7.67-7.34-15.35-14.66a36.68,36.68,0,0,0,4.85,4.18,5.65,5.65,0,0,0,.42.43Z"/><path class="cls-2" d="M262.75,190.28c0,6.73,5.25,9.46,9.95,13a24.81,24.81,0,0,1,2.73,2.26,5.49,5.49,0,0,0-.28-4.48c-2-3.48-8.07-4.71-10.11-10.33,3.77,1.14,6.37,4.85,8.66,8.87.74,1.35,1.5,2.72,2.22,4.06C278,208,278,208,280.55,210.43c-2.57-2.44-5.13-4.89-6.95-6.7-1.05-1.05-2.05-2.07-3-3.1a97.43,97.43,0,0,1-8.31-10l.49-.39Z"/><path class="cls-2" d="M243.29,215.81c1.57,1,3.11,1.94,4.62,3,4,3.53,6.54,5.92,10.75,9.93-5.11-4.89-12.5-2.15-15.55-10.08-.92-.89-1.85-1.81-2.79-2.74.06-.18.11-.38.18-.57a20,20,0,0,1,2.79.49Z"/><path class="cls-2" d="M236.33,213.86c-3.11-4.56-10.49-1.81-15.63-6.7,5-.16,7.69,7.32,15.8,6.25l-.17.45Z"/><path class="cls-2" d="M246.45,221.17c2.78,1.36,2.78,1.36,5.31,2.77-1.67-.92-3.44-1.84-5.31-2.77Z"/><path class="cls-2" d="M306.15,175.54l.07,0c.55,4.16,1,8.31,1.41,12.48-.34-1-.67-1.94-1-2.91-.14-3.2-.28-6.42-.44-9.61Z"/><path class="cls-2" d="M314.25,138.46c-10.86.78-1.19-9.58-8.72-11.87a38.48,38.48,0,0,0,8.32,6.58c1.25,2.25.85,3.44.4,5.29Z"/><path class="cls-2" d="M303.39,192.52A117.26,117.26,0,0,1,297,177.21c3.63,1.1,5,4.65,6.07,8.58.11,2.26.22,4.49.29,6.73Z"/><path class="cls-2" d="M395.81,281.28c-.77-.7-1.26-1.15-1.26-1.15a4.37,4.37,0,0,0-1.92,1.31,73.67,73.67,0,0,1-11.77-.69c5.06-2.06,10.68-2.57,13.58-5.67,1.26,1.23,2.54,2.46,3.88,3.62.86.75,1.84,1.39,2.77,2.07-1.75.24-3.51.41-5.27.51Z"/><path class="cls-2" d="M394.06,290.25c1,2.15,1.79,4,.92,5-6.14,2.27-10.84-4.22-18-6.29a15,15,0,0,0-4.62-.61,11.77,11.77,0,0,1,1.05-1.8c6.81,1.43,13.75,2.36,20.62,3.72Z"/><path class="cls-2" d="M351.9,394c2.25,3.26,2.68,6.9,2.55,10.72-.74-3.6-1.58-7.18-2.55-10.72Z"/><path class="cls-2" d="M347.47,391.4a144.25,144.25,0,0,1,5.27,25c-6.68-6.82-6.84-11.85-5.56-21.41,0-1.23.17-2.4.29-3.56Z"/><path class="cls-2" d="M345.58,375a1.85,1.85,0,0,0-2.55-1c-2.49-2.24-3.84-4.69-1.68-8.61.2-.8.38-1.62.53-2.46,5.37,4.22,8.09,11.7,8.24,16.72a48.61,48.61,0,0,0-4-3.25c-.18-.46-.34-.92-.53-1.4Z"/><path class="cls-2" d="M349.31,360.26c-.73-2.21-1.49-4.39-2.27-6.59,7.58,1.59,10.32,8.44,15.15,13-6.13,3.32-9.61-2.3-12.88-6.46Z"/><path class="cls-2" d="M418.25,288.66c4.63-2.17,9.18-4.26,13.83-2.08-4.61.14-9.19,1.34-13.69,2.09Z"/><path class="cls-2" d="M417.67,243.24c1.66,1.68,3.09,1.88,4.4,1.63s2.53-.94,3.73-1,2.56,0,3.81,0,2.5-.05,3.74-.09c-2.34,5.11-4.8,6.44-7.37,6.25a13.26,13.26,0,0,1-4-1.17c-1.37-.58-2.75-1.26-4.19-1.77,0-1.26,0-2.52-.13-3.79Z"/><path class="cls-2" d="M403.54,255.46c-7.15,1.94-7.29-3.09-7.45-8.12,2.58,2.45,5.13,4.89,10,6a7,7,0,0,0-2.55,2.1Z"/><path class="cls-2" d="M320.58,409.4c-3.57-3-2.3-6.48-.47-10.14a8.56,8.56,0,0,1,3-3.65c-.27,1.29-.64,2.61-1,3.93-1.12,4-2.2,8.14-.76,12.58-.28-1-.5-1.83-.73-2.73Z"/><path class="cls-2" d="M316.77,412.19c-.47,3.72-.18,13.79,0,18.82-12.65-7.18-3.13-22.58,1.56-32.79,5.12,4.89-7.23,7.78-1.18,10.54-.11,1.15-.21,2.3-.34,3.43Z"/><path class="cls-2" d="M328.29,348.27c3.47-.8,5.89-3.41,8.3-6-9.8,5.32,7.83,12.37.42,15.11-2.54-2.46-5.1-4.88-7.72-5.71a21.89,21.89,0,0,1-1-3.41Z"/><path class="cls-2" d="M332.81,338.46c1.21-1.59,1.23-1.59-.77-4.21.21,1.38.44,2.77.77,4.21Z"/><path class="cls-2" d="M402.3,237a11.7,11.7,0,0,1-1.52.15,19.74,19.74,0,0,0,2.07-3c2.62-1.81,5.24-3.62,7.89-5.4l.48.12c.26.67.49,1.33.72,2q-4.71,3.26-9.64,6.16Z"/><path class="cls-2" d="M384.74,220.66c-4.13,7-11.37,14.75-16.21,19.93,4.85-5.18,12.08-13,14.78-18,.49-.65,1-1.3,1.44-2Z"/><path class="cls-2" d="M362.7,227.47c.42-1.83,2.84-4.42,2.88-4.4-.92,1.44-1.88,2.89-2.88,4.4Z"/><path class="cls-2" d="M357.38,235.13a15.08,15.08,0,0,1-1.59,2.76c-.67,1-1.49,2-2.32,3-2.29,2.69-2.29,2.69-4.7,5.27-.16-5-.3-10.05,4.19-14.1,1.16-1.44,2.8-2.05,5.32-1.28.63.61,0,1.26-1.08,2s-2.7,1.46-4.09,2.29c-2.07,3.52-2.07,3.52.48,6a25.31,25.31,0,0,0,3.32-4.06,9.08,9.08,0,0,0,1.42-5.12,5.36,5.36,0,0,0-1,3.29Z"/><path class="cls-2" d="M338.54,244.67c5.11-3.35,5-8.39,4.84-13.42,2.56,2.44,7.68,7.33,5.25,9.92s-4.68,10.21-10.25,7.28c.06-1.23.11-2.5.16-3.78Z"/><path class="cls-2" d="M253,390.29c-7,2.5-4.33,10-4.19,15-2.56-2.45-5.12-4.87-7.68-7.33-.14-5,4.84-5.18,9.34-6a10.42,10.42,0,0,1,2.53-1.67Z"/><path class="cls-2" d="M272.22,371c-2,.94-2,.94-5.22,4.59-.72,1.16-1.43,2.43-2.21,3.63-2.33,3.65-5.35,6.88-11.6,5.82.75-2.55,2.93-4.28,5.5-5.73,1.27-.72,2.67-1.37,4-2a6.86,6.86,0,0,0,3.94-2,37.07,37.07,0,0,0,4.36-5l1.19.66Z"/><path class="cls-2" d="M300.54,330.09a1.5,1.5,0,0,0,.27-1c3.89-4.07,9.4-7.51,11.69-13.62-.28.71-.55,1.44-.81,2.23-.39,10.2-10.21,15.52-15,20.72a11,11,0,0,1,.13-2,69,69,0,0,1,3.76-6.32Z"/><path class="cls-2" d="M308.67,366.92c-1.2,1.4-3.61,4-6,6.58,7.54,2.31,4.7-10.21,9.66-10.36,0,0-2.42,2.6-1.33,1.44a9.65,9.65,0,0,1-2.3,2.34Z"/><path class="cls-2" d="M294.26,395.33c1.85,11.09,11.94,15.82,19.62,23.16-5.25-9.91-10.39-14.8-18.07-22.12,2.71,7.46.3,10-4.53,15.23,5-.15,9.94-.29,9.8-5.32-2.71-7.48-5.27-9.91-3-17.54,10.23,9.78-4.27,25.31,6,35.09-17.48-2-8-17.41-11-24.79.37-1.24.76-2.48,1.15-3.71Z"/><path class="cls-2" d="M289,362.25c.18-2,.5-3.92.84-5.86,1.72-2.16,3.48-4.05,4.66-5.32.15,5,.31,10.06-2.19,11.14a12.75,12.75,0,0,1,.76,3.31c-.17,1-.28,1.67-.36,2.3-1,1.8-2.14,3.56-3.3,5.31-.34-.1-.58-.22-.87-.33,0-3.5.1-7,.46-10.55Z"/><path class="cls-2" d="M260.82,393.46c-1.17-5.69.78-7.32,3.44-8,1.35-.36,2.84-.48,4.23-.81a44.16,44.16,0,0,1,4.45-5.22,24.55,24.55,0,0,0-6.53,10.49,11.88,11.88,0,0,1-1.92,3.71,4.89,4.89,0,0,1-3.42,1.82c-.11-.7-.18-1.34-.25-2Z"/><path class="cls-2" d="M278.55,394.71c1.79-2.81,3.71-5.54,5.66-8.24-.17.92-.3,1.85-.53,2.77-.51,2.25,2.88,3.19,3.41,1a56.34,56.34,0,0,0,1.23-9.37c.19-.25.39-.5.57-.77.51.41,1,.87,1.53,1.35a19.91,19.91,0,0,1-.44,4.83c-1.63,7.74-7.33,13.86-11.33,18.17a15.19,15.19,0,0,1-.1-9.71Z"/><path class="cls-2" d="M279.65,409.27a42,42,0,0,0-.59,10.26c-.13-5-7.52-2.31-1.54-8.81a3.86,3.86,0,0,1,2.13-1.44Z"/><path class="cls-2" d="M267.94,400.58c-3.4.92-3.81,2.61-3.19,4.69s2.26,4.6,3,7.17a16.14,16.14,0,0,1,1.43,3.63,7.53,7.53,0,0,1-.07,3.75,16.77,16.77,0,0,1-4.23-2.78,11.23,11.23,0,0,1-2.59-3.36c-1.78-4.34-.83-7.2.85-9.29a17.5,17.5,0,0,1,2.84-2.69,20.56,20.56,0,0,0,2.43-2.12c-.18.33-.35.67-.49,1Z"/><path class="cls-3" d="M327.1,120.74c.4,2.49,1.29,2.5,3.15,1.22-.09,1.31.8,1.32,2,1.17a9,9,0,0,0,2.38.31c1.33.06,2.65.16,3-.79,2.25,1.14,3.54,1.26,4.68-1.52,1.47,3.06,2.76,3.2,5.53,1.79-.17,1.75,1.12,1.93,2.54,2.08,1.13.26,2.43.48,3.69.71s2.55.47,3.7.57c1.37.44,2.63.72,3.69-.52,1.43,1.82,2.68,2.13,4.75,1.1.41,1.69,1.64,2,3.14,2.23a19.51,19.51,0,0,0,3.38,1.26c1.22.39,2.42.8,3.62,1.21s2.61.92,3.87,1.36,2.57,1,3.61-.11c1.5,2.17,2.76,2.7,5.24,1.53,0,2.27,1.26,2.83,3.13,3.18a8.54,8.54,0,0,0,3,2c1.21.61,2.43,1.24,3.6,1.89s2.4,1.31,3.58,2,2.35,1.36,3.74,1.11A4.16,4.16,0,0,0,410,147c.4,1.41,1.54,2.17,2.64,2.94s2.23,1.54,3.33,2.33a7.69,7.69,0,0,0,3.66,1.8,5.4,5.4,0,0,0,3.69,2.91,8,8,0,0,0,2.63,3.16q3.21,2.76,6.28,5.69c1,1,2,2,3,.91,1,3.06,2,4.09,5.52,2.89-1.59,3.26-.63,4.31,2.13,5.57-.9.85,0,1.93,1,3s1.81,2.19,2.68,3.3a11.23,11.23,0,0,0,2.4,2.57c1.05,1.93,1.88,3.08,3.5,1.1,0,4.3.83,5.46,4.92,6.77-2.53,1.06-1.74,2.26-.14,4-.1.66.65,1.88,1.38,3.1s1.44,2.46,2.13,3.7,1.36,2.53,2.62,2.79c.07,2.26.72,3.55,2.93,4.36a3.16,3.16,0,0,0-.41,2.37,4.58,4.58,0,0,0,1.1,2c0,.7.24,1.31.71.87,0,1.72.26,2.38,1.53,1-.67,2.77-.36,3.53,2.4,2.57-2.15,2.49-1.84,3.26,1.29,4.12-2.55.68-2.25,1.46-.31,3.07-1.45-.26-1.25.34-.34,1.38-.49,0-.26.46.09.86a2.9,2.9,0,0,0,.58,1.84c.36.35.87.33,1.73-.32-1,3.66-.62,4.87,3.33,5.64-3.28,1.63-3,2.85-.94,5.36-1.38-.09-1.08,1.13-.77,2.39a15.18,15.18,0,0,0,.54,2.05,3.9,3.9,0,0,0,1,1.61,5.84,5.84,0,0,0,.07,2.73,4.14,4.14,0,0,0,1.67,2.14c-.67.81-.93,1.57,0,.83-1,2.29-.82,3.09,1.92,2.12-2.54,2.43-2.52,3.11,1.18,3-3.61,1.55-3.51,2.3-.19,4-3.16-.41-3.1.18-1,2.23-2-.86-1.92-.26-.94,1.34-.87-.4-.82.2-.6,1a3,3,0,0,0,.23,1.34c-.19,1.5-.11,2.7,1.77,2.85-1.77,2.29-1.74,3.49.74,4.9-2.41,1-2.4,2.26-1.48,4.17-.92-.17-.93.34-.64,1.14-.29.23-.3.73-.32,1.24,0,1,0,2,0,2.94-.08,1.12-.13,2.13.88,1.36-1.1,2.53-1.15,3.28,1.35,1.42-2.52,3.34-2.5,4.08,1.67,3.4-4.27,2.19-4.44,2.93-.67,5.39-3.88-.88-3.83-.09-2,2.84-2-1.43-2.27-.73-1.87,1.4-.71-.7-.81,0-.88,1a11.93,11.93,0,0,0-.32,1.56c-.08.59-.18,1.18-.29,1.78-.19,1.18-.4,2.36,0,3-.87,1.68-1.11,2.85,1.31,3.36-2.9,1.82-3.17,3-.72,5.42-3-.12-3.29,1-2.8,3.39-1.11-.08-1.42,1.06-1.74,2.21s-.67,2.27-1,3.38a8.25,8.25,0,0,0-.64,3.56c-1.09,1.64-1.55,2.94.87,3.75-3.38,1.74-3.85,3-1.66,5.74-3.22-.18-3.75,1.06-3.73,3.42-1.1.14-1.67,1.39-2.22,2.62s-1.15,2.45-.13,3c-2.23,1.91-2.85,3.11.08,5.33-4.2.16-4.84,1.34-4.39,5.13-1.44-2-1.77-1.44-1.85.69-.55-1-.86-.39-1.15.47a3.59,3.59,0,0,0-1.06,1.5A4.51,4.51,0,0,0,457,363a5.07,5.07,0,0,0-2.87,3.18,16.87,16.87,0,0,0-2.48,3c-.81,1.15-1.65,2.31-2.2,3.26-1.15,1.32-2,2.45,1.1,3.11-4.86,1.55-5.77,2.65-2.08,7.26-5.5-2.45-6.44-1.37-6.84,2.75-1.47-2-2.42-1-3.38.08s-2,2-3,3-2,2-1.88,3.47c-2.15.49-3.18,1.44-3.5,3.76-1.77-.41-2.82.52-3.9,1.57-1.07.79-2.15,1.71-3.25,2.58a19.67,19.67,0,0,0-2.67,2.4c-1.77,1.1-2.91,1.95-.25,2.7-5,.9-6.11,1.73-7.24,7.21-1.22-3.89-2.39-3.11-4.71-.8-.07-.76-1.27,0-2.48.71s-2.43,1.45-3.66,2.16-2.49,1.37-3.74,2-2.53,1.32-3,2.86a4.21,4.21,0,0,0-4.58,2.12c-1.43-.58-2.71,0-4,.56s-2.64,1.1-2.49,2.15c-2.8,0-4.15.52-3.65,4.18-3.19-2.69-4.56-2.21-6.84.67.23-2.21-.46-2-1.79-.76,0-.76-.59-.52-1.17-.24a5.31,5.31,0,0,0-2.14.72,2.68,2.68,0,0,0-1.07,2.15c-2.61-1.43-4-1.08-5.82,1.2-1-1.62-2.45-1.3-3.91-1a6,6,0,0,0-1.92.54,1.42,1.42,0,0,0-.83,1.44c-3-.94-4.42-.7-5.56,2.64-1.75-2.92-3.22-2.72-5.58-1.45-.59-.92-2.07-.77-3.56-.64s-3,.24-4.46.32-3,.16-4.44.24-3.07,0-3.08,2c-2.53-2-3.53-2-3.94,1.22-1.61-3.28-2.62-3.31-4.67-.94,0-2.46-1-2.5-2.81-1.8-.15-.81-1.15-.88-2.14-1a12.79,12.79,0,0,0-3.34,0c-1.94-.47-3.26-.63-2,2.11-3.86-3.08-5.18-3.26-8.53,1.27.77-5-.53-5.17-4.37-4.41,1.28-1.22,0-1.48-1.28-1.75s-2.54-.56-3.81-.87-2.5-.61-3,.42c-2-1.7-3.25-2.06-4.43.75-1.3-3.53-2.53-3.89-5.34-2.43.37-2.26-.85-2.67-2.43-2.95a17,17,0,0,0-3.24-1.46c-1.29-.48-2.59-1-3.75-1.38-1.39-.64-2.64-1.18-3.31.94-1.83-3.23-3.08-3.81-6.51-1.53,1-3.47-.28-4.07-3-4.29.32-1-.88-1.65-2.08-2.31s-2.4-1.32-3.58-2-2.35-1.37-3.61-1c-1.07-1.83-2.21-2.57-4.21-2a3.84,3.84,0,0,0-3-3.35,12.14,12.14,0,0,0-2.88-2.57c-1.11-.8-2.19-1.61-3.26-2.45a11.33,11.33,0,0,0-3.11-1.95c-1.14-1.43-2.18-2.32-4.28-.55.54-3.1,0-3.57-2.75-1.67,1.65-2.75,1.07-3.13-1.74-2.26,1.78-1.81,1.3-2.38-.89-2.6,1.08-.76.47-1.18-.39-1.52a4.37,4.37,0,0,0-1-1.72c-.46-.54-1-1-1.46-1.53-3-3-5.83-6.17-8.56-9.42-.9-1.08-1.81-2.18-2.69-3.09-.88-1.3-1.74-2.43-3.82-1.62.37-3.08-.47-4.22-3.48-4.77,1.38-1.76.58-2.94-.42-4.17-.58-1.12-1.37-2.33-2.11-3.53s-1.52-2.42-2.25-3.63-1.42-2.48-2.79-2.68c0-2.3-.69-3.56-3.12-4.24,1.1-1.85.48-3.14-.55-4.52a18.05,18.05,0,0,0-1.43-3.8,16.14,16.14,0,0,0-2-3.59c-.32-1.69-.85-3-2.79-3.75.89-2,.4-3.35-.75-4.83a5.24,5.24,0,0,0-.13-1.95,5.55,5.55,0,0,0-.74-1.86c-.07-.88-.3-1.56-1.31-1.65.57-1.31.37-2-1.15-2.23,1.1-1.19.91-1.88-.53-2.52,1-.71.74-1.36,0-2a2.77,2.77,0,0,0,0-2.25,5.14,5.14,0,0,0-1.37-2,6.79,6.79,0,0,0,0-4.49c-.26-1.44-.53-2.9-.78-4.35s-.47-2.94-.69-4.4-.41-3-1.26-3.87c.52-2.06.37-3.55-1.62-5,1.72-1.53,1.62-3,1.11-4.84a15.56,15.56,0,0,0,.22-4.27c0-1.52-.06-3.05-.06-4.58,0-1.37,0-2.72.06-4.08s.08-2.69.15-4,.16-2.69-1.24-3.26c1.6-2.1,1.7-3.42-.51-5.21,2.49-.86,2.64-2.18,2.06-4.26.9-.55,1.09-1.86,1.31-3.18s.4-2.6.63-3.89.48-2.58.58-3.75c.42-1.39.7-2.67-.64-3.74,1.94-1.47,2.24-2.74,1.08-4.9,1.8-.36,2.14-1.6,2.33-3.13a10.74,10.74,0,0,0,.69-1.61,16.07,16.07,0,0,0,.52-1.78c.26-.66.46-1.27-.25-1.52,1.1-1,1.3-1.59-.33-1.92,2.07-1,2.29-1.61.15-2.75,2.58-.17,2.8-.83,1.09-2.74,2.19.6,2.47,0,1.67-2,1.23.62,1.37-.08,1.25-1.2a2.28,2.28,0,0,0,1.31-1.37c.33-.62.59-1.25.86-1.88.55-1.27,1.12-2.53,1.69-3.79s1.18-2.5,1.67-3.71c.73-1.26,1.37-2.48.64-4.07a3.78,3.78,0,0,0,2.65-4.09c1.39-.35,2.07-1.53,2.76-2.71s1.43-2.34,2-3.45c.86-1.2,1.63-2.34.61-3.72,2.54-.88,3.3-2,2.85-4.73,2,.49,2.84-.61,3.61-2.21a13.46,13.46,0,0,0,2.57-2.71c.83-1.06,1.69-2.12,2.57-3.16s1.83-2.16,1.27-3.46c2.45-.81,3.4-1.85,3-4.69,2.39.77,3.36-.25,4.32-2.08,1-.18,2-1.17,3-2.15l1.55-1.45c.52-.49,1-1,1.52-1.42s1.08-1,.66-1.14c1.43-.77,1.9-1.24.35-1.45,2.64-.71,3.22-1.16,1-2.48,3.11.2,3.37-.46,1.73-3.32,2.75,2,3.57,1.73,4.41-1.37.52,2.17,1,1.44,1.8-.72.31,1.29.94,1.16,1.85.39.29.23.86-.2,1.43-.61a15.53,15.53,0,0,0,1.61-1.26,2.8,2.8,0,0,0,.92-1.37c2.11-.61,3.29-1.39,2.53-4.12,3.15,1.2,4.34.45,5.54-2.31,1.23,1.29,2.46.57,3.69-.13s2.48-1.38,3.73-2.06,2.55-1.31,2.55-1.94c2.54-.63,3.83-1.25,1.65-4.05,4.75,1.61,6.06,1,8.46-3.25.22,3.16,1.54,2.62,3.49,1.44a9.18,9.18,0,0,0,3.42-.88c1.34-.49,2.71-1,3.87-1.48,1.57-.39,2.94-.81,2.94-2.88,2.75,1.24,4.16.85,5.85-1.72,1.11,1.81,2.51,1.46,4.08.93,1.26-.14,2.68-.46,4.11-.75a19.83,19.83,0,0,0,4.05-1.11,5.7,5.7,0,0,0,4.49-1.5c.78.43,1.54.61,1.64.46,1.42.17,2.17,0,1.15-.9,2.49.77,3.21.73,1.73-1.15,2.92,1.77,3.67,1.7,4.21-1.35.93,2.92,1.67,2.86,4.32.7-1.16,2-.41,2,2,1-.88.89-.14.84,1.08.38a1.75,1.75,0,0,0,.7-1.08,7.91,7.91,0,0,0,2.29.89c1.36.22,2.47-.35,3.81-2ZM194.34,251.89c-.85-.43-1.19-.08-1.25,1.09-.55-.35-.86.08-1.08,1-.34,0-.62.45-.68,1-.08.22,0,.5.56.6a4.48,4.48,0,0,0-1.58,2.69c0,.79.62,1.54,2.05,2.41-3.6.82-3.92,2.17-3.22,5.48-1.14-1.25-1.28-.55-1,1-.36-.4-.33,0-.09.46a5.59,5.59,0,0,0-.59,2.73,1.79,1.79,0,0,0,1.21,1.64c-1.84,2.11-1.94,3.48-1.26,6.59-.81-.47-.82.79-.75,2.38a8.35,8.35,0,0,0,0,1.71c0,.7.07,1.38.25,1.5,0,1.25,0,1.94.75.6-.5,2.67-.37,3.34,1.46,1-1.59,3.72-1.46,4.39,2.24,2.53-3.43,3.18-3.26,3.83,1.08,4.88-4,.24-3.81.88-1,3.31-2.51-1.14-2.32-.48-.84,1.49-1.1-.81-.93-.29-.33.78-.25,0-.06.51.12,1a14.11,14.11,0,0,0,.58,1.51,4,4,0,0,0,.67,1.16c.26,1.52.65,2.58,2.37,1.85-.93,2.82-.54,3.86,2.58,4.21-2.34,1.73-2,2.81,0,4.48-1.26.45-.91,1.52-.5,2.65a3.43,3.43,0,0,0,.32,1,7.22,7.22,0,0,0,.57,1,5.67,5.67,0,0,0,1.6,1.6c.83.58,1.72.94,1.74-.09,2.08,1.42,3.32,1.45,4.93-1.13,1.33,2.18,3,1.77,5.18.8a12.7,12.7,0,0,0,2.38-.7l2.92-1.08c1-.38,2.06-.75,1.71-1,2.54-.57,3.68-1,2-2.18,4,.33,5.22-.11,8.22-3-.52,2,.75,1.51,3,.4.28.16,1.6-.32,3-.82s2.72-1,4-1.47c1.53-.53,2.94-1.05,1.39-1.65,4.38-.44,5.82-1,8.29-5.16.43,3.14,1.88,2.58,4.67,1.15.15.35,1.64-.19,3.1-.73l4.47-1.65c1.48-.55,3-1.09,2.73-1.48,3.21-.71,4.7-1.25,6.41-3.26,1.23.92,2.7.38,5.21-.81a11.14,11.14,0,0,0,3.28-.93l4.25-1.58c1.39-.51,2.76-1,2.3-1.32,3.19-.69,4.52-1.19,1.87-3.65,5.25,1.5,6.54,1,10.4-2.24-1.37,2.35-.15,1.89,1.92.91-.26.31.36.09,1-.13l1.78-.66c1.17-.42,2.3-.85,1.42-1.39,3-.25,4.08-.63,2.13-3.1,2.6,1.16,3.88,1.39,5,.28a2.51,2.51,0,0,0,.84-2.11c.77,1,1,1.7,1.33,2,.67-.19,1.49-.79,2.06-.17.47-1,.65-.83.62.46.62-1.4,1.05-1.71,1.31-.16.34-2.21.39-2.72-.36-.61.13-2.85-.19-3.08-1.8-.79.75-2.75.21-3-2.46-1.66,1.66-1.66,1.26-1.77-1.05-1,1.51-1,1.08-1.15-.75-.89,1-.53.53-.67-.65-.71.28-.25-.2-.42-.78-.56-.86-.31-1.89-.65-3-1l-6.32-2a22.34,22.34,0,0,0-3-.8c-1.7-.65-2.92-1-1.6.76-3.83-2.56-5.08-3-9,.29,1.37-4,.06-4.43-3.79-4.8,1.15-.45-.21-.85-1.58-1.27s-2.77-.84-3.05-.4c-2.55-1.28-4-1.69-5.64-.27-1.17-2.28-2.63-2.7-5.68-2.93.15-.61-1.32-1-2.79-1.45l-3.69-1.06c-2.17-.61-3.64-1-1.14-.33-5.42-1.5-6.89-1.92-12.57-3.47,2.77.75,1.31.37-1.42-.37l-3-.79-4.24-1.1c-1.38-.35-2.78-.7-4-1-1.5-.41-2.86-.73-2.32.48-3.17-1.84-4.48-2.14-6.89.26-.14-3-1.37-3.25-4.69-3.11.87-.67-.34-.91-1.65-1.15a13.8,13.8,0,0,0-1.56-.31,3.18,3.18,0,0,0-1.15,0c-1.82-.58-2.93-.77-1.92,1.11-3.14-2.24-4.17-2.39-5.5,1.27-.61-3.92-1.55-4-5-2.36,1.63-1.86.78-1.92-1.45-1.42.72-.51.1-.48-.8-.33a2.8,2.8,0,0,0-1.15.2c-.36.14-.57.33-.57.56-1.34.2-1.81.62-1.47,1.56-1.22,0-1.61.44-1.57,1.66Zm265.45,53a4.27,4.27,0,0,0,.43-1.86c-.11-.42-.63-.52-1.82-.18,3-3,3.31-4.17-.35-7.16,4.29.59,4.61-.61,4.09-4.35,1.12,1.27,1.42,0,1.69-1.31s.55-2.46.8-3.73.48-2.56-.12-3c1-2.14,1.16-3.42-1.5-4,3-2,3.08-3.23,1.22-6.1,2,.32,2.06-.94,1.83-2.65a1.48,1.48,0,0,0,.13-.86,7.6,7.6,0,0,0-.12-1c-.19-1.18-.34-2-.41-1-.36-2.86-.59-3.83-1.33-1.89.19-3.95-.11-5-2.53-7.93,1.77.79,1.45-.31.19-3.17.66,1,.42.25-.24-.84-.08.12-.55-.11-1.34.09a7.62,7.62,0,0,0,.07-2.86c-.29-1.59-1.35-2.55-3.79-3.44,2.63-1.52,2.13-2.91.71-4.95.27-.14.35-.47.35-.88s-.14-.9-.18-1.26c-.27-1-.45-1.9.14-1.48-1.16-1.88-1.55-2.47-.57-.74-1.49-1.69-2.36-2.35-3.36-1.73a5.81,5.81,0,0,0-1.58,1.95,9,9,0,0,0-.94-2.33c-1.62-.06-2.76.28-2.22.94-2-.39-2.92-.12-2.67.67-2.16-.23-3.15.07-5.84,1.52.32-.41.21-.53-.23-.45a4.92,4.92,0,0,0-1.33.48c-1,.25-1.31.31-.31,0-1.87.59-2.45.79-.67.19l-5.62,1.89-3.5,1.18-2.94,1c.55-.2.5-.17.12,0a13.79,13.79,0,0,0-1.5.57c-.9.28-1.55.5-1.35.61-1.51.34-2.18.59-1.84.84a17.4,17.4,0,0,0-2.92.77,14.91,14.91,0,0,0-2.58,1.27,5.17,5.17,0,0,0-1,0c-1.31.41-2.1.72-1,.4-2.51.81-3.06,1-.93.22l-3.23,1.16-4.92,1.79L402,252.29c.25-.1.17-.05,0,0-.65.25-1.38.51-.83.3l-.86.32-2.05.77c-2.59,1-4.06,1.52-6,2.23-.94.36-2,.77-2.85,1.08l.07,0-.66.25c-2.29.86-2.9,1.09-.58.21-3.61,1.37-4.29,1.63-1.6.61l-5.42,2.06c-.76.28-1.5.57-1.41.8-1.77.42-2.71.78-.91,1.55-2-.7-1.9-.75.29-.53-2.85,0-3.65.35-1.23,2-3.75-1.19-4.27-1-2.88,2.48-1.7-2-2.57-2.57-3.57-1.61a8.15,8.15,0,0,0-1.59,2.56c-.06-1.48-.35-2.1-.52-2.23-1.05,0-2,.45-1.46,1.2-1.76-.27-2.09-.25-.6-.06-2.46.06-3.07.31-1.92,1.24a10.83,10.83,0,0,0-2-.05c-1.23.19-1.84.41-.75.63-2.41.49-3.1,1-1.34,2.67-2.5-1.55-2.74-1.73-.36-1-3.36-.54-4.1-.2-4.72,2.86-.51-2.63-.86-2.53-2.68.19.91-2.41.39-2.2-2.22-.09,1-1.5,0-1.1-1.87-.16-.08-.18-1,.19-1.94.55a26.12,26.12,0,0,0-2.66,1.14c-.9.31-1.67.63-1.81.45-.71,1.07-.82,1.64.49,1-2.08,1.32-2.76,1.4-2.68-.54-.63,2.68-.5,3.32,1.12,1.51-2,2.19-1.5,2.82,1.74,1.64-.93,1.1-1.27,1.71-1,2s1.3.29,2.61-.21c-.68.78-1,1.06-1.09,1.06.56.42,1.36.57,1.58-.19.36,1.17,1.37,1.48,1.11.36,1.85,1.62,2.39,1.79,2.21.08,1.27,2,1.82,2.23,3.29.78a2.1,2.1,0,0,0,1.11,1.91,2.16,2.16,0,0,0,2.08.1c.73.73.9,1-.06.73,1.78.67,2.44.85.73.29,2.93.94,3.53,1.13,1.33.46l4.73,1.45,2.22.68c1,.28,2.19.65,1.89.58,1.66.48,1.76.52,0,0,2.56.76,3.27,1,1.15.34l3.43,1c.61.2.8.26.68.18.82.28,1.35.43,1,0,1.87.86,2.93,1.18,2.87-.64,1.13,2.16,1.16,2.16-.3.06,2.43,2.38,3.38,2.66,6.16.76-1.31,2.34-.81,2.49,2.59,1.64-1.07.6-1.43.94-1.15,1.17a2.38,2.38,0,0,0,2-.06c.34.67.54.91-.09.62,1.58.77,2.34,1,.73-.11,3.85,1.74,5.37,2.18,9.3.17a4.19,4.19,0,0,0-.23,2.11c.34.55.79.88.5.84,1.7.56,2.63.74.94-.12,2.64,1.18,2.91,1.34.13.58,3.83,1.14,4.57,1.34,2.34.74l10.42,2.85c-.71-.2-.69-.2-.29-.09s1.14.29,1.43.37c1.2.32,1.9.5.55.16,2.8.73,3.53.92.54.16l3.3.84,2.57.65c1,.25,1.82.46,1.06.29,2.79.68,4,1,1.72.48,2.23.5,1.84.39-1-.29,3.61.89,4.76,1.15,6.37,1.56l2.24.48c-.69-.15-.86-.18-.34,0a22,22,0,0,0,2.83.52c0,.13-.31.07-.48,0,.87.25,1.82.47,1.13,0,2,.77,2.28.83.41-.09,2.77,1.12,3.39,1.25,1.49-.23,3.72,1.86,4.87,2.11,8.75,1.55-1.61,1-.53,1.19,2.42,1.43-.83.14.17.29,1.31.46.84.15,1.79.28,1.11,0,2.88.58,4.1.61,1.5-1.85,4.84,2.31,5.89,2.13,8.39-2.65-.63,4.23.19,3.89,3.12,1.41-1.48,1.68-.87,1.23.52,0-.26.15.19-.54,0-.71ZM323.94,261.2c.6,1.06.58.6.34-.58.24.2.25-.32.18-.78s.08-1.11-.38-.85c.48-1.31.48-1.85-.69-.91,1.22-2.56,1.23-3.64-2-3.69,3.22-2.23,3.23-3.39.75-6.22,2.53.42,2.54-.82,2.1-2.89.47.17.49-.47.45-1.09a8.26,8.26,0,0,0-.07-1.47c.14-1.85.18-3.21-1.2-2.25,1.42-3.72,1.43-5.13-1-8.29,2.41.32,2.43-1.12,2-4,.41.63.43-.09.36-1.05a14.73,14.73,0,0,0,.07-1.83c0-1.66,0-3.16-.92-2.28,1-3.9,1-5.42-1.26-8.71,2.28.24,2.29-1.29,2-4.18.33.58.33-.18.29-1a2.61,2.61,0,0,0-.12-1c.19-2.76.19-4.29-1.54-2.42,1.73-4.92,1.73-6.45.65-11.33,1.08,1.85,1.08.35,1-1.73a4.42,4.42,0,0,0,0-1.37c-.08-.47-.25-.68-.53-.36.56-3.57.56-5-2.88-5.11,3.42-2.76,3.42-4.16,2.34-8.3,1,1.37,1,0,.93-1.62a9.82,9.82,0,0,0,0-1.73,13.71,13.71,0,0,0-.13-1.63c.09-1.82.06-3.12-1.13-2.05,1.12-3.62,1.09-4.85-1.75-6.65,2.77-.58,2.74-1.73,1.65-4.94,1,1,.94-.05.72-1.58a9.86,9.86,0,0,0,0-2.32c-.08-1.36-.29-2.56-.72-2.71-.24-2-.65-3-2.29-1.72.58-2.89,0-3.61-2.89-3.33,1.52-1.51.77-2-1.25-2.45.69-.28.16-.53-.71-.76a4.77,4.77,0,0,0-1.37-.48c-1.21-.31-2.39-.48-2,.44-2.74-1.06-3.89-1.05-4.13,1.81-1.93-2.73-3-2.61-5.35-.39.94-2,.38-1.9-1.6-.65.84-1.09.29-1-1.05-.47.2-.41-.38-.35-1-.21a5.13,5.13,0,0,0-1.31.24c-1.45,0-2.58.08-2.38,1.54-2.46-1.25-3.59-1.15-4.66,1.49-1.18-2.41-2.3-2.28-4.41-.81-.11-1.17-1.21-1-2.41-.72a17.18,17.18,0,0,0-1.85.32c-.65.16-1.29.31-1.93.48-1.28.35-2.55.75-1.81,2-2.84-.39-3.67,0-2.56,2.82-2.79-2-3.63-1.61-4.59,1.67-.67-2.39-1.48-1.91-2.9-.14-.19-.78-1-.28-1.8.27-.52.35-1,.71-1.41,1s-.57.5-.48.55c-2.26,1.37-3.3,2.13-.72,2.11-4.63,1.54-5.64,2.3-8,6.61.35-2.8-.65-2.06-3,0,.79-1,.29-.65-.54,0,0-.23-.29-.15-.39-.31-.78.8-1.33,1.37-.13.7-1.68.91-1.63.54-.42-1-1.79,2.34-2.45,3.46.74,3.21-3.89,1.31-3.94,1.25-.09-.21-4,1.92-4.32,2.68-1.06,5.75-3.7-1.53-3.91-.76-2.85,2.92-1.45-1.77-1.67-.61-1.91,1.33.28-1.59.47-1.89.85-.49-.17-.72-.1.24,0,1.55.3.09.74,1.54,1.4,3.11s1.52,3.25,2.28,3.64c.82,2.14,1.33,2.9,1.88.89.52,3.61,1.08,4.46,4.38,4.19-2.09,2-1.44,2.92,1.32,5-1.41-.2-.69.77.33,2a4.58,4.58,0,0,0,.72,1.1c.3.36.51.58.55.55,1.47,2.15,2.27,3.19,2.1,1.45a18.15,18.15,0,0,0,6,7.78c-1.55-.61-.66.5.89,2.32-.2-.12.26.45.7.9s.74.66,1,.64c1.35,2.37,2.31,3.53,4.35,3.14-.11,2.73.87,3.92,3.33,5.84-.5.45.5,1.64,1.49,2.83s2,2.39,2.9,1.46c1.11,3.31,2.11,4.49,6.15,3.61-2,3.26-1,4.45,1.56,6.07-.57.71.44,1.89,1.44,3s2,2.3,2.08,1.94c1.86,2.63,2.83,3.74,3.77,1.1,1,4.85,1.92,5.94,5.66,8.7-1.86-.62-.94.43.37,1.81a5.5,5.5,0,0,0,1,1.14,3.15,3.15,0,0,0,1.2.81c1.1,1.89,2,2.89,3.71,1.38,0,3.47.85,4.41,4.15,4.85-2.1.91-1.72,1.35.55,1.93-1.61.11-1.32.36.23.71-.8.48-.36,1.07.35,1.39-.09,0,.06-.2.37-1a3.71,3.71,0,0,0,.62,1.88,2.59,2.59,0,0,0,.86,1c.58.37,1.27.1,2.22-.8-.35,1.58-.42,2.5-.58,2.94,1.11.75,2.13,1,.9,1,1.75.4,1.27.5-.52.62,2.12.2,2.91.43,1,1.48,2.41-.94,2-1.06-.57-1,2.86-.2,3.48-.19.82.26,3-.61,2.74-.81-.47-1.37,3.38.17,3.81,0,1.2-1.93,2.85,1.44,2.68,1.2-.1-1,2.83,1.57,3.09,1.19,1.75-2,1.48,2.43,1.35,2.09,0-.47,1.24,1.72,1.31,1.24.72-.79Zm5-109c-.14.86-.25,1.82-.36,2.81a10.46,10.46,0,0,0-.11,2.42c-.28,1.79-.36,2.95.71,1.74-1.24,3.56-1.31,4.77,1.17,6.78-2.62.52-2.69,1.82-2.14,5.3-.64-.82-.7.56-.72,2,0,.66-.06,1.36-.08,2s0,1.45.1,1c-.19,2.52-.22,3.92,1,1.82-1.3,4.93-1.32,6.37,0,11.38-1.34-2.09-1.36-.63-1.23,2a2.5,2.5,0,0,0-.06.89c-.08.94-.08,1.69.27.78-.35,3.17-.35,4.68,2.36,3.61-2.7,4.11-2.7,5.65-1.69,10.14-.5-.72-.74-.69-.85-.28a8.94,8.94,0,0,0-.06,2c0,.76,0,1.47.14,1.1-.14,1.86-.14,2.63.38,1-.49,3.94-.46,5.46,1.47,8.28-1.88.2-1.85,1.71-1.49,4.95-.15-.12-.23.19-.26.71s0,1.25,0,1.93c0,1.52.07,3,.68,2.09-.54,3.76-.52,5.18,1.84,7-2.3.94-2.26,2.31-1.62,5.78-.29-.39-.41-.26-.47.15a10.8,10.8,0,0,0,0,1.71c0,.65,0,1.28,0,.83,0,1.69.06,2.31,0,.46.12,3.68.16,4.88,0,1.72.18,5.48.22,6.6.42,12.25-.14-3.47-.08-2.44,0,1-.07-1.89,0-1.34,0,.35,0-.73,0-.31.1.39a3.53,3.53,0,0,0,.06,1.13c.09.26.31.2.51-.38a4.21,4.21,0,0,1-.18,1.66,6.76,6.76,0,0,1,0,1.25,2.49,2.49,0,0,0,.71,1.37c.79.08,1.64,0,1.21.59.92-.31.46.14-.27.75.17.06.09.28,0,.52.29,0,.59,0,.61.28.93-.48,1.54-.74,1,.2.55-.83.3-1-.7-.55,1.24-1.09,1.44-1.31.06-.32,1.89-1.56,2.2-1.89.11-.56,2.52-2,2.69-2.31-.22-1.13,3.36-1.87,3.67-2.26.2-2.33,2.9-.75,4.14-1.36,4.86-3.06a6.42,6.42,0,0,0,.44-3.25c.69,1.17,1,1.66,1.26,1.64.59-.39,1.11-1.29.18-1,1.64-1.25,1.84-1.3.46.33,2-2.19,2.3-2.7.19-.45,3.23-3.75,4-4.76,5.79-9.58-.27,2.73.52,1.65,2.87-1.82-.72,1.27.08.15.94-1,.42-.57.83-1.14,1.26-1.7l.6-.85c1.55-2.12,2.43-3.32,1.08-1.47,2.35-3.22,3.43-4.71,5.11-7.06a7.36,7.36,0,0,0,1.21-2c.12.13,0,.25,0,.26.57-.67,1.11-1.44,0-.8,2.05-1.91,2.42-2.42-.28-.87,3.5-2.69,4-3.32-.54-3.42,4.42-1.38,6-2.45,7.37-4.92a17,17,0,0,0,1.29-2.9c0,1,.24,1.23.54,1s.83-.92.71-1.1c1-1.12,1.49-1.76.45-1.47,1.94-1.58,2.4-2.24.88-2.64a8.37,8.37,0,0,0,3.79-3.41,11.48,11.48,0,0,0,1.06-2.59.72.72,0,0,0,.74.07c.88-.83,1.32-1.49.24-1.08,2-1.69,2.39-2.3.14-1.93,3.11-1.62,3.54-2.25,1.47-4.27a5.9,5.9,0,0,0,2.62-.37c.66-.27,1.17-.74.8-1,1.23-1.11,1.62-2-.1-2.77,2.32.11,2.61,0,.43.07,2.88-.77,3.28-1.37.93-3a6.79,6.79,0,0,0,2.71-.54,2.75,2.75,0,0,0,1.39-1.4c.41-.76.64-1.63-.49-1.76,1.76-.47,2.16-.49.94.83,2-1.94,2.35-2.54-.06-.77,3.11-2.88,3.44-3.4-.33-2.15,4.43-2.31,4.77-2.84,3-7.13,2.77,2.7,3.41,1.66,5-2.23-.39,1.89.19.91.94-.51a10.08,10.08,0,0,0,.6-1,2.59,2.59,0,0,0,.43-.87c.52-.83.74-1.25.15-.63,1-1.45,1.26-1.86,0-.65,2.28-3.3,2.76-4.89.67-8.28,2.4.45,2.25-.89,1.39-3.52.06.08-.06-.14-.27-.52a12.89,12.89,0,0,0-.76-1.2c-.84-1.15-1.65-2-1.05-.26-2.29-3.15-3.18-3.73-4.19.52-.84-5.26-1.88-5.87-6.85-5.84,1.47-.65,1.94-1.15,1.75-1.6a2.35,2.35,0,0,0-2.08-.86c0-.68-.14-.94-.19-.32-.6-1.23-1.1-1.58-1.45-.2-1.18-2.42-2.18-3.1-4.68-1.86.48-2.6-.55-3.24-3-3.58a1,1,0,0,0-.26-1.11c-.44-.41-1-.72-.78-.4-1.25-.87-1.78-1.14-.9,0-2-1.65-2.53-1.89-1.48.19-2.16-2.54-2.72-2.76-3.14,0-.73-3.14-1.31-3.31-4.16-1.59,1.19-2.21.13-2.48-2.87-2.48.82-.45-.27-.64-1.5-.78-1-.15-2.11-.27-3.25-.34s-2.28-.12-3.46-.12a21.11,21.11,0,0,0-3.42.18c-1.49-.06-2.76,0-2.5,1.84-2.92-1.59-4.27-1.43-6.25,1.59-.54-2.72-1.63-2.62-3.74-1.32.06-1-.94-.87-1.86-.54a4.51,4.51,0,0,0-1.23.54,2.63,2.63,0,0,0-.89.82,2.55,2.55,0,0,0-1.26,3.21c-1.49.76-1.89,2.3-2.14,4.29ZM330.38,295c-1.76-.52-1.74-.1-.49,1.34-1.24-.5-1.26,0-.6,1.22-.67.28-.7,1.36-.72,2.48s0,2.22-.08,3.36,0,2.39,0,3.61-.07,2.57.89,2.26c-1,2.95-1,4.29,1.9,5.38-3,1.68-3,3.1-1.93,6.33-1.13-.33-1.15,1.13-1.18,2.62,0,.75,0,1.5,0,2.25s0,1.52,0,2.16c-.06,1.67-.09,3.22,1.08,2.48-1.2,3.87-1.21,5.46,1,9-2.29-.31-2.29,1.28-2.05,3.92a13,13,0,0,0-.3,3.79c0,1.63,0,3.25.49,3.09-.52,3.39-.54,5,3,5.44-3.55,2.78-3.55,4.37-2.7,8.36-.85-.8-.85.77-.85,2.35s0,3.14,0,4.66,0,3.07.12,4.14c-.07,1.93,0,3.4,1.14,2.32-1.14,4-1.11,5.41,1.08,8.8-2.13-.58-2.11.76-1.66,3.58-.39-.14-.35,1.15-.31,2.42s.09,2.49.44,2.56c-.25,2.29-.21,3.42,1.45,2.19-1.55,3.43-1.49,4.48,1.44,6.26-2.77.23-2.72,1.17-1.31,4.12-.6-.13-.7.17-.54.66s.61,1.18.74.92c1.45,2.15,2.79,3.15,5.06.71.25,2.66.9,3.8,2.27,4.15a2.15,2.15,0,0,0,2-.27c0,.84-.16,1.16-.54,1.14.71.32,1.2.31.5-.28.06.7.38.7.08,0,1.48.68,2.34.66.79-.81,3.43,1.43,4.38,1.4,3.86-2.62,2.63,4,3.78,3.91,7.79,1.43-1.57,2.36-.28,2.29,2,1.83.39.29,1.75.19,3.16.08s2.83-.24,3.77-.43c1.89-.1,3.29-.27,2.79-1.28,3.23.63,4.57.43,6.87-1.49.24,1.46,1.45,1.2,3.64.33,0,.31,1.06,0,1.49-.27,1.1-.28,1.71-.52.36-.73,2.56-.3,3.16-.57.4-1.37,3.9.26,4.47,0,1.37-2.77,4.22,2.13,4.76,1.8,4.1-2.95,1.75,4.11,2.3,3.8,3.89-.22-.51,3.33,0,2.95,1.66.36-.62,1.87-.09,1.54,1.06.32-.14.52.36.14.87-.25s1-.77.69-.83c1.28-.72,1.75-1.12,0-.82,3.18-1.5,4.14-2.33.52-4.77,5.53.76,6.48-.09,8.1-5.05.14,1.62.46,2.23.94,2.19s1.09-.74,1.76-1.56c.3,0,.65-.2.56,0,.92-.83,1.42-1.26.54-.1,2.71-2.71,3.72-3.78,2.25-1.16a42.15,42.15,0,0,0,2.91-5.27,4.81,4.81,0,0,1,.93-1.72c.24-1.55.52-2.59,1.85-1.36-1.58-1-1.9-.46-2,.9-.35-1.95-.46-3-.8-1.06-.09-3.06-.39-3.09-1.88-.19.78-3.53.37-4.14-3.14-2.86,2.76-2.3,2.49-2.69-1.18-2.79,3.07-.68,2.76-1.1-.23-2.15,2.38.22,2.05-.2,0-1.24,1.44.42,1.14.24-.23-.19.67-.47.28-1.19-.24-1.57s-1-.36-1.79.1c0-2.86-.78-3.85-3.53-4.85,1.12-1.06.27-2.13-1.07-3.46a18.28,18.28,0,0,0-2.21-3.1c-.88-1.08-1.76-2.18-2.67-3.31s-1.84-2.25-2.78-3.19c-.93-1.34-1.89-2.53-3.93-1.94.09-2.94-.87-4.11-3.56-5,.7-1.52-.3-2.73-1.31-3.92s-2-2.44-3-3.66-2-2.46-2.15-.93c-1.92-4-3-5.19-7.74-6,1.37-.8,1.8-1.5,1.71-2.09-.31-.94-1.12-1.76-1.36-.62-.78-2.35-1-2.75-.19-.34-1.52-3.39-2-4-2.5-.79-1-5-2-6.19-5.72-9,.84.25,1,.08.84-.32a9.28,9.28,0,0,0-1.28-1.66c-.41-.5-.85-1-.79-.59-1-1.55-1.47-2.12-.9-.09-2-3.71-2.93-4.81-7.22-3,2.46-4,1.55-5.09-1.82-7.57.79.2,1,0,.84-.31a4,4,0,0,0-1-1.21c-.45-.63-.84-1.09-1-.55-.68-1.5-1.09-2-1.29-.38-1-3-1.78-3.93-4.57-2.68.86-2,.81-3.06-.22-3.88a7,7,0,0,0-2.25-1c.8-.34,1-.64,1-.72-.27-.72-.78-1.19-1.07-.44-.31-1.68-.92-2.4-1.08-.57a13.32,13.32,0,0,0-1.64-3,4.72,4.72,0,0,0-1.67-1.39c-1-.13-2-.1-1.34-.45-1-.14-.69-.44.16-.88-1.34.5-2.07.86-.8.58-1.79,1-1.58,1.4.67,1.85-2.15.75-2.29,1.56-.55,3.47Zm-8,111.4c2-2.81,2.07-3.75-.77-5.2,3-.54,3.08-1.58,1.93-4.82,1.3,1.06,1.34-.08,1.26-1.87.19,0,.23-.56.24-1.17s.06-1.21.08-1.82c.06-1.28.11-2.59-.42-1.95.61-3.29.64-4.65-1.65-5.05,2.37-2.39,2.41-3.81,1.72-7.68.73,1,.76-.5.76-2.13,0-1.37,0-2.89.06-4.43s0-3.08,0-4.51c0-1.68,0-3.27-.55-1.75.59-4.71.59-6.3-1.16-11.13,1.72,1.63,1.71,0,1.55-3a15.56,15.56,0,0,0,.12-3.37c0-1.6,0-3.21-.26-3.26.2-3.15.17-4.74-1.59-4.7,1.72-3.19,1.69-4.75,1.14-8.7.49.84.49-.7.46-2.24,0-.73,0-1.49,0-2.22s0-1.38-.06-2c0-1.72,0-3.18-.52-2,.41-4.05.39-5.45-1.16-8.28,1.49.1,1.45-1.23,1.08-4.59.3.76.26-.5.24-1.78s0-2.35-.09-3.49-.07-2.33-.08-3.13c0-1.37-.07-2.41,0-1.32-.15-3-.19-4,.09-1.88a8,8,0,0,1,.13-3.46c-.61-1.14-.78-1.93.16-2.74-1.41-.81-1.72-1.65-.85-3.36-1.06,1.63-1.07,2.1.42,1.68-2.41.5-3.3.12-2.12-3-1.89,3.57-1.72,4.36,1.67,5.51-4.14.34-5.08,1-6,6,.17-3.92.4-3.65,1.43,0-1.2-2.89-1.61-2.43-2,.69-.1-2.31-.26-2-.55.22-.16-1.38-.46-1-.87.26a2.07,2.07,0,0,0-.84.72c-.31.38-.62.85-.91,1.29-.66.94-1.29,1.88-.23,1.65-2.36,2.13-3,3.11,0,4.11-4.4,1-5.1,2-5.64,6.54-.9-2.39-1.64-1.3-2.72.81,0-.47-.43.09-.79.66s-.67,1-1,1.49c-1,1.31-1.74,2.47-.35,2.46-3,2.35-3.8,3.53-3.1,7.26-2.33-1.34-3.15-.13-4.41,2.62,0-.92-.42-.32-1,.63a13.53,13.53,0,0,0-1.13,1.5c-.84,1.21-1.68,2.46-.65,2.81-2.74,2.14-3.58,3.38-2.4,6.79-2.89-.93-3.76.32-4.9,3.13-.57-.32-1.45.91-2.29,2.16s-1.7,2.46-1.05,2.8c-2.33,2.11-3.19,3.33-1.36,5.82-3.5-.08-4.33,1.1-5.4,4.41-.16-1.53-.56-.94-1.22.55-.14-.35-.52.21-.88.79a5,5,0,0,0-1,1.66c-.11.5.08.92.89,1.21-3.18,1.67-3.94,2.76-2.32,6.29-3.14-1.37-3.89-.32-4.65,2.69-.36-1.42-.73-.89-1.21.39-.22-.31-.5.15-.74.59a5.29,5.29,0,0,0-1,1.53c-.09.37.17.55,1,.39-3.1,2.23-3.78,3.16-1,5.66-4.06-.72-4.68.13-5.41,4.25-.18-2.9-.47-2.51-1.26.29.26-2,0-1.69-.69.17.06-1-.28-.51-.55.36.12-.14.28.08.81.4-.92.64-1.47,1.36-1.46,2s.63,1.09,1.91,1.59c-2.79.8-2.77,1.68-.88,3.86-1.69-.77-1.58-.21-.5,1.33-.81-.62-.72-.29-.13.56-.13,0,.24.51.46.7.07,0,0-.24-.06-.7.67.82,1.37,1.55,1.75,1.55s.47-.76.31-2.48a11.89,11.89,0,0,0,1.47,3c1,1.21,2,.77,4.39-1.16-2.2,3.82-1.56,4.29,2.79,4.7-3.18.43-2.7.79.26,1.67-2-.17-1.47.18.17.89-.63,0-.13.4.48.62a1.36,1.36,0,0,0,1.36-.28c1.05,2.24,2.06,2.94,4.46,2-.36,2.35.68,3,2.82,3.32-.55.58,0,.88.84,1.13a3,3,0,0,0,1.22.8c1.14.56,2.26,1,1.78-.14,2.37,1.8,3.14,2,2.44-.91,2.26,3.34,3.06,3.52,5.48.33-.83,3.49,0,3.63,3.37,2.39-2,1.43-1.36,1.5,1,1.06-1.08.57-.49.62.71.54,0,.17.69.22,1.1.1s.64-.42.44-1c2.93,1.34,4.2,1.38,5.1-2.05,1.64,3.5,2.9,3.52,6.06,2-1.26,1.61-.62,1.64,1.21,1-.57.67,0,.7,1,.62a2.86,2.86,0,0,0,1.26.16c.3,0,.24-.15-.52-.44,3.58.79,4.54.79,1.33-2,5.26,2.55,6.34,2.28,9.58-2.5-1.14,3.89-.11,3.28,2.27,1-1,1-.56.55.2-.32,0-.12.36-.66.64-1.2.72-1.46,1.17-3-.53-2.87ZM232.18,182c-2.79,1.15-3.73,2-2.59,4.93-3-1.15-4-.29-5.37,2.62-.63-1.19-1.63-.33-2.7.67-.48.37-1,.77-.92.92-1,.7-1.5,1.14-.42.88-2.29,1.37-3,2.05-.78,2.6-3.62.84-4.3,1.54-4.09,5.11-.77-1.08-1.29-1.42-1.79-1.14a2.45,2.45,0,0,0-.91,2.18c-.66-.23-.78-.4-.45-.71-.79.69-1.13,1.21,0,.8-1.72,1.34-2,1.74.07.86-2.64,1.83-2.94,2.38.19,2.32-4,1.74-4.56,2.88-3.94,7.25-1.63-2-2.08-.85-2.6,1.52-.39,0-.81,1.25-1.21,2.48s-.79,2.46-1.17,3.7-.77,2.48-.26,2.6c-1.27,2.36-1.66,3.59.71,3.86-3.2,2.19-3.6,3.41-3,7.28-1.29-2.07-1.44-1.34-1.18,1.34-.29-1.07-.21-.18.07,1.11a12.69,12.69,0,0,0,1.08,2.49,6.12,6.12,0,0,0,1.49,2c1.52,1.74,2.59,2.59,3.05-.07,2.11,4.14,3.62,4.78,8.16,4.6-1.9.93-1,1.21,1,1.45,0,.16.27.31.66.45s.94.31,1.47.45c1.05.29,2.14.6,1.73.15,2.66,1.09,3.84,1.41,3.14-.46,3.09,2.53,4.33,2.86,8.52,2.83-1.65.74-.34,1.1,1.92,1.57a19.19,19.19,0,0,0,3.13,1l4,1.09,4.06,1.09c1.39.39,2.79.77,2.31-.77,3.28,2.3,4.7,2.68,7.89-.83-.36,4.28,1.07,4.67,4.61,4.64-.67.81.77,1.19,2.21,1.58s2.86.78,3.84,1c1.88.58,3.33,1,3.05.18a15,15,0,0,0,7.9,2c-.53.69.87,1.07,3.05,1.55a11.3,11.3,0,0,0,1.39.47A6.32,6.32,0,0,0,281,264c1.76.58,3.11.93,1.92-1,3.84,2.67,5.14,3,9.21-.12-1.52,3.82-.25,4.16,3.42,4.27-1.22.55,0,.87,1.19,1.18s2.29.63,3.4.92l6.23,1.66a13.24,13.24,0,0,0,2.46.55,10.07,10.07,0,0,0,1.65.47c.32,0,.26-.21-.31-.69,1.24.54,2.16.93,2.41,1.67,1.26-.43,1.83-.5,1.54.49,1.24-1.72,1.59-2.39.52-1,1.7-1,2-.45,1.92,1.46.62-2.23,1-3.14,1.93-1.87-1.07-1.95-1.49-1.7-2.89.69.58-3,.19-3.9-3.3-4.79,2.7,0,2.45,0-.6.17,1.25-.31,1.77-.56,1.67-.82s-.85-.55-2-.54a5.53,5.53,0,0,1,1.35-.49.72.72,0,0,0-1.27-.17c.79-.91.45-1.31.18-.51-.78-1.8-1-2.14-.11-.44-1.38-2.46-1.75-2.9-1-.59-1.85-3.64-2.63-4.57-6-6.13,1.74-.35.9-1.33-1.36-3.56.29.09.22-.13-.06-.5s-.69-.9-1.15-1.43c-.85-1-1.72-2.08-2.29-1-1.21-3.24-2.12-4.33-5.78-3,1.81-3.56.88-4.67-2.16-6.51,1.15-.42.19-1.57-.77-2.73s-1.94-2.33-2.05-2.47c-1.85-2.22-2.83-3.4-1-1.15-3.85-4.64-4.86-5.82-8.41-10.1,1.57,1.87.58.67-.78-.95-.33-.4-.73-.89-1.1-1.28-.55-.69-1-1.3-1-.86-1.49-2.23-2.49-3.42-4-2.92-.44-2.87-1.41-4-4-6.12.31-.14.25-.49,0-1a10,10,0,0,0-1.22-1.51c-.5-.69-1-1.26-1.18-.67-.71-1.72-1.18-2.28-1.67-.54-.88-3.41-1.79-4.52-5.37-4.58,1.78-2.11.92-3.17-1.23-4.72.23-.26.11-.65-.15-1.1a7.88,7.88,0,0,0-1.05-1.37c-.84-1.08-1.64-2.06-2.07-1-1.12-2.92-1.86-3.84-4.28-2.27,1-3.35.28-4.21-3-5.43,2-.42,1.34-1.21-.31-2.53.42-.19-.15-.91-.52-1.45-.61-.71-1.12-1.21-.53-.84-1.65-1.28-2.21-1.69-.75-.45-3.23-2.31-4.51-2.82-7.52-1.61.24-.93,0-1.44-.65-1.7a10.65,10.65,0,0,0-3.42-.25c.85-.1-.27,0-.79.16-1,.29-1.34.45-.38.36-1.63.46-1.94.69-.27.69ZM451,227.11c1,.75,1.07-.18.84-1.41a1.65,1.65,0,0,0-.91-.83,6,6,0,0,0-2.49-.33c2.64-1.68,2.64-2.41,0-4,2.27,0,3.4-.45,3.94-1.89a5.62,5.62,0,0,0,.17-2.9c0,1.42-.38,2.21-.94,2.49s-1.33,0-2.23-.45c.23.55-.23,0-.54-.75s-.37-1.91-.93-1.38c.17-1.1-.12-1-.79-.1.18-1.45,0-2.14-1.46-.94,1-2.51.77-3.14-1.85-1.9,2.18-2.52,2-3.17-1.4-3.15,2.78-1.76,2.41-2.83.23-4.66,1.39-.32,1-1.37.54-2.43-.19-.52-.42-1-.62-1.54s-.46-1-.59-.89c-.57-1.66-1.08-2.66-1.86-1.19-.28-3.42-.83-4.37-4-3.87,2-2.36,1.38-3.25-1.43-4.92,1.75.35,1.41-.1-.13-1.1.91.34.69.13-.2-.31.09-.41-.47-1-.83-1.22s-.5.07-.38,1a14.26,14.26,0,0,0-1.76-2.64c-1.13-1.25-2.32-1.6-4.74-1.61,1.76-1.47.81-2.21-2-3.69.91,0-.09-.66-1.16-1.36a8.88,8.88,0,0,1-1.08-.84c-.88-.5-1.38-.84-.55-.66-1.85-.85-2.37-1.18-.5-.82-2.88-1-3.41-1.35-1-1.54-3.74-.63-4.62-1.17-6.35-4.31-.24,2.13-1.3,1.68-4.2.09.31.49.16.71-.26.81a12,12,0,0,1-1.83.1c-.55.11-1.13.26-1.12.65-1.27.07-1.93.36-1.23,1.51-2.05-.37-2.73.1-2.35,2.3-1.75-1-2.46-.31-3,1.63-.41-.8-.71-.45-1,.47-.28-.2-.59.16-.89.61a13.17,13.17,0,0,0-.9,1.07,7.08,7.08,0,0,0-.64,1c-1,1.13-1.71,2,.06,1.54-3.19,2.31-3.9,3.24-.52,5.87-4.5-1.14-4.87-.63-4,4-1.56-3.72-1.9-3.29-2.58.72-.11-3-.54-2.36-1.49.12.42-1.92.31-2-.43-.21.13-.92-.37,0-.78.52-.11-.1-.13-.51-.54-.67a4.21,4.21,0,0,1-.91,2.36,4.83,4.83,0,0,1-2.38,1.42c1.5.32,1.07.92-1.45,3.2,2-1.56,1.9-1.42-.08.21,1.48-.93.92-.13-.52,1.61.48-.41.1.13-.42.83-.14.26-.44.66-.72,1.08-.44.6-.87,1.22-3,4.28,1.3-1.83.87-1.22-.82,1.18.81-1.15.35-.49-.48.69.22-.3,0-.06-.14.22-.35.51-.91,1.3-1.4,2-1,1.42-1.76,2.53-2.88,4.17.35-.5-.08.15-1.65,2.42.65-1,.22-.32-.8,1.19a7.19,7.19,0,0,0-.58.93c0,.2.08.23.57,0a17.88,17.88,0,0,0-1.77,2.17c-1.6,2.25-2.12,4.15-2.21,8.79-1.2-4.25-1.63-3.6-3.66.94,1.2-3.27.8-2.68-.66.14.58-1.52.11-.84-.32.34.23-.12.5.27,1.41.77a6.87,6.87,0,0,0-2.71,1.73c-1.31,1.4-1.57,3-1.22,6.06-2.19-2.11-3-.88-4.11,1.54-.51,0-1.31,1.2-2.1,2.39s-1.55,2.34-.79,2.68c-2.25,1.93-3,3-.07,4.73-4.35.47-5.05,1.52-4.95,5.59-1.14-2.51-1.49-2-1.67.59-.24-1.7-.32-1.35-.17.24a.87.87,0,0,0-1.45.67c0,.37.44.67,1.71.82a10.51,10.51,0,0,0-2.72,1.45c-1.14,1-1,2.18.24,4.6-2.88-2-3.27-1.35-3.16,2.09-.68-2.59-.87-2.44-1,.13-.14-1.54-.2-.68-.1.75.15-.92.46-1.3,1.31-.44-.38-.32-.21.57.42,1,.56.16,1.56-.14,3.14-.88-.43.74-.28,1,.23,1.08a7.81,7.81,0,0,0,2.32-.47l1.39-.42,1.48-.47c.53-.17,1-.31.81-.43,1.22-.19,1.73-.35.58-.54,2.18-.14,2.71-.31.73-.84,3,.21,3.58,0,1.4-1.43,3.27,1.12,3.84,1,3.09-1.85,1.53,2.48,1.72,2.33,1.21-.76,1.68,2.72,2.65,2.5,5,.37-1.13,1.52-.89,1.12.07-.8-.06,1.63.61,1.73,1.8,1.13-.08.25.4-.22,1-1.08,0,1.32.58,1.13,2.74-.37-.9,1.09-.23.87,1.45,0-1,.71-1,.71-.24,0-.14.5.88.16,1.94-.23.59-.15,1.23-.36,1.77-.54l1.42-.46c.67-.23,1.34-.44,5.37-1.91-3.07,1.05-2.8.86.31-.86-1.74,1.27-.65,1,1.22,0-.93.1-1.07-.58-1.26-2.42a3.54,3.54,0,0,0,3,1.42c2.1,0,3.59-.75,6.12-2.5-1.7,1.91-1,1.67,1.12.41-1.06.84-.7.67.31-.09.42.27,1.46,0,2-.42s.61-.85,0-1.53c4,.38,5.41-.12,9-2.18-1.5,1.3-.79,1.06,1.14.09-.77.52-.32.34.52-.16a5.09,5.09,0,0,0,2-.64c.46-.32.42-.61-.35-1,3.63-.08,4.31-.33,5.27-2.61.42,1.77,1.1,1.51,4.11-.53-1.64,1.52-.94,1.26,1.36,0-1.17.8-.73.63.55,0,.06.16,1-.21,1.78-.52s1.5-.59,2.27-.88l4.55-1.82c-.22.09.42-.17,1.31-.58a4.55,4.55,0,0,0,.73-.55,5.91,5.91,0,0,0,2.21-.91c.37-.37.28-.8-.54-1.43,4,.24,5.1-.27,7.09-3.64-.27,2.61.31,2.35,2.43.11-1,1.72-.46,1.46,1.2.14-.55.82,0,.55.8-.09a4.31,4.31,0,0,0,0-.69,4.11,4.11,0,0,0,2.45-.66c.51-.41.62-1,.41-2.06,1.88,1.28,2.36,1,2.46-1.27.82,1.78,1.26,1.52,2.07-.61.08,1.63.51,1.38,1.41-.27-.34,1.08-.22.75,0-.58.36,1,.81.95,1.27.22-.23.42-.42.14-.81-.72.7.64,1.21.69,1.46.36,0,0-.24-.36-.84-1,1,.36,1.58.43,1.83.2s.14-.77-.3-1.66c1.47.88,1.67.37.34-.46,1.36.82,1.67.5,1.35-.82.62,1.41.58,1.83-.57.75,1.19.68,1.23-.13.75-1.22,0,.49-.54.68-1.87.79,1.43-.36,2.08-.81,2.25-1.11.44.78.41,1.67-.66,1.36ZM423.66,374.92c-.7.23-.25-.23.29-.72.33-.36.72-.77,1-1.12,1.36-1.06,2.35-1.94-.23-1.89,4.59-1.76,5.61-2.59,3-8,4.62,3.75,5.63,2.9,8.07-1.1-.45,2.3.53,1.41,1.63.33a14.22,14.22,0,0,0,1.2-1.11c.41-.43.73-.8,1-1.09.89-.84,1.33-1.32-.15-.64,2.15-1.74,2.4-2.28-.7-1.69,3.92-1.62,4.45-2.09-.28-2.37,5.5-.93,5.7-1.65,2.2-5.9,4.15,3.17,4.61,2.82,3.85-2.2,1.47,4.11,1.74,3.56,2.07-.36.08,2.93.27,2.51.5-.1-.19,1.85-.32,1.52-.76-.15.76.77,1.2.19,1.2-.45,0-.42-.52-.89-1.64-1.38,2.8-.88,3-1.83,1.21-4.05,2.33.3,2.58-.66,2.17-2.55.8.28,1-.36,1.06-1.09a13.29,13.29,0,0,0,.48-1.79c.37-1.3.69-2.55-.55-3.5,2-1.48,2.36-2.65.86-4.75,2.21.21,2.32-.72,1.61-2.53.6-.29.39-1.42,0-2.58a10.67,10.67,0,0,0-1.64-3.28,4,4,0,0,0-3.15-2.56,3.77,3.77,0,0,0-2.56-2.92c-.43-.19-.86-.38-1.28-.54s-.93-.41-.89-.22c-1.4-.75-2.33-1.11-1.64.22-2.61-2.07-3.61-2.43-4.8.13-.89-3.31-2-3.68-5.75-3.48,2.09-.76,1.53-1-.81-.93,1.56-.19,1.32-.16-.17.25.31-.8-.66-1.22-1.3-1.12-.43.08-.51.68-.12,2.09a12.55,12.55,0,0,0-2.1-2.31c-1.1-.8-1.72-.12-2.77,2.17.79-3.57.62-3.52-.54.3-.15-4.21-1.28-4.67-4.64-4,2.13-.3,2,.49,1,3.37.56-2.2-.2-3-1.83-3.56.23-.76-.46-1.22-1.15-1.56a14.58,14.58,0,0,0-5.53-1c2.94-.3,2.25-.5-.5-.88,1.37,0,.66-.21-.53-.46a4.72,4.72,0,0,0-1.34-.39c-.41,0-.5.07,0,.51-3.93-1.64-5.39-2-9.11-.2,1.55-2.43.8-2.63-3.32-2.6,3-.31,2.67-.41-.46-.51,1.66-.28.57-.58-.89-.84.5,0,.63.06.21.13.21-.14-.83-.41-1.74-.63l-8-2.05c2.52.64,1.78.47-.67-.17,1.4.36,1.09.28-.22-.06a9,9,0,0,1-.88-.21l.55.11-2.47-.56c-.42-.08-.2,0,.57.2a30.61,30.61,0,0,0-6.53-1.26c1.78.32,1.57.58-.67,2.63,1.39-2,.5-2.55-2.53-3.15,1.35,0,.59-.06-1,0a10.07,10.07,0,0,1-2.17,1.2c1.35-2.31.66-2.47-2.44-1.74,2-.88,1.54-.87-.64-.17.83-1-.08-1.35-1.23-1.22-.15.07-.54.59-.67,1.81a9.84,9.84,0,0,0-2.09-2.18c-1.34-.9-2.7-.77-5.07,0,1.67-1.63,1-1.8-1.37-1.31,1.37-.65,1-.67-.45-.23.19-.72-.67-1-1.33-1-.48,0-.75.25-.7.9-2.43-1.84-3.55-2.11-6.39-1.44,1.21-1,.68-1.15-1.7-.85,1.47-.46,1.11-.48-.72-.18.83-.52.21-.72-1-.64.47,0,.38.33,0,1.19-.42-1.06-1.16-1.53-1.55-1.47s-.47.67-.23,1.95c-1.45-2.86-1.75-3.06-1.45-.42-1.25-2.55-1.87-2.26-3.42.19,1.07-2.39,1.26-2.64.66-.56.26-1.57-.26-.83-1,1.29,1-1.2,1.76-1,3.31.84-1.34-1.18-1.93-.75-2,.42.28-.34,1.07,0,2.56.76-1.19-.23-1.7-.1-1.66.27a5.57,5.57,0,0,0,1.77,1.36c-1.09.13-.55.89.23.57-.35.63.18,1.47.52,1.75s.45,0,.44-1a19.38,19.38,0,0,0,1.22,2.9c.85,1.52,1.86,2.44,4,4-1.81-.45-1.09.5.9,2.74-.88-.78-.52-.27.31.65-.17-.12.11.2.4.45a6.61,6.61,0,0,0,1.31,1.66c.3.17.4-.19.19-1.44,2,4.64,2.88,5.74,8.16,7.49-3.57.47-2.69,1.6-.23,4.13-1.13-.82-.69-.23.11.66a2.89,2.89,0,0,0,.58.77c1.32,1.82,2.26,3,1.77.83,2.34,4.55,3.28,5.75,7.42,9-2.71-1.41-2.23-.81.17,1.45-1.77-1.47-1.61-1.27,0,.2-.66-.26.14.74.66,1.38s.59.74.4.51l6,7.51c-.77-1,.21.22,1.19,1.41.48.6,1,1.19,1.46,1.77s.93,1.17,1.38,1.74c1.1,1.23,2.07,2.4.42,3.66,3.6,1,4.55,2.18,4.11,6.12,2.36-1.68,3.32-.56,4.4,1.4.83.21,1.76,1.26,2.69,2.31s1.85,2.08,2.75,3.07,1.89,2.07,2.48,2.7c1.26,1.35,2.17,2.3,1.61,1.75,2.32,2.39,3.19,3.27,4.63,4.68l.89.88c.51.49,1.26,1.19,1.6.85.45,1.1.52,1.15.06,0,1,1.63,1.44,2.06,1.1,0,1.1,2.71,1.4,3,1.18,0,.87,3.48,1.23,3.79,2.2.45-.08,4.06.51,4.45,3.77,2.38-2.53,2.47-2.37,2.45.08-.16-1.7,2.83-.78,3.23,2.15,3.07-1.56.4-1.07.26.39-.52-.79-.36-.64-1.34-.47-3a8.63,8.63,0,0,0,2.14,3.37c1.44,1.23,2.89.69,5.62-.8-2,1.76-1.1,1.34.64.08ZM208,336.73c-4.12.74-3.89,1.82-2,6-1.4-1.86-1.11-.62-.55,1.27a13,13,0,0,0,.33,1.4c.14.59.36,1.24.47.88.41,2,.75,3,1.48.73,0,4.3.4,5.28,4.74,4.09-3.49,3.11-3,4.05.46,6.9-1.28-.54-1.77-.6-1.77-.28a5,5,0,0,0,1.26,1.75.29.29,0,0,0,0,.37c.43.68.81,1.16.63.44,1.35,2.13,2.19,3,3,.94.91,3.87,1.82,4.73,5.69,5.47-2,.94-1,1.76,1.07,3-.14.34.87,1.14,1.86,1.94s2,1.56,2.59,1.5c1.46,1.62,2.45,2.4,3.23-.17,1.2,4.12,2.18,4.9,6.46,3.8-2.38,2.67-1.47,3.47,1.41,4.59-1.53.08-1,.48.19.66-.45.16,0,.44.4.48.06-.05.09-.34.09-1,.76.94,1.48,1.49,1.94,1.4s.66-.84.66-2.45c1.48,3.45,2.12,3.53,3.67.1-.35,3.32.2,3.16,2,.62-.46,2.35.35,2.33,2,1.26-.21.49.43-.05,1-.94a2,2,0,0,0,1.49-.16c1.12-.65,1.71-1.28.25-1.26,2.64-1.5,3.27-2.34.57-4.13,4,.06,4.69-.84,4.67-4.89,1.42,2.19,2.13,1.21,3.11-.91a.84.84,0,0,0,.7-.34c.56-.57.93-1.08.26-.71,1.82-2,2.6-3-.08-2.93,4.27-2.33,5.09-3.45,6.13-8.26.29,1.24.65,1.58,1.09,1.34a6.51,6.51,0,0,0,1.59-2.17,1.13,1.13,0,0,0,.55-.66c.73-.76,1.16-1.36.21-1.15,2.21-2,3-3.14,1-5.22,3.66-.24,4.47-1.43,5.46-5,.67,1.16,1.5,0,2.38-1.33.39-.54.8-1.12,1.21-1.73s.83-1.19.58-1.26c1.51-1.75,2.35-3,.31-3.71,3.71-1.69,4.54-2.89,5.13-6.92,1.07,1.6,1.9.4,2.91-1.38a11.45,11.45,0,0,0,1.05-1.29,4.26,4.26,0,0,0,.82-1.45c1.2-1.46,2-2.65.27-3.31,3.32-1.68,4.11-2.85,3.71-6.62,2,1.47,2.75.33,3.68-1.93.28,0,.62-.27,1-.68s.71-1,1.09-1.5c.74-1.09,1.46-2.17.32-2.32,2.57-2,3.26-3,.5-5.09,4.11.09,4.76-.9,4.94-4.86,1.11,2.05,1.74,1.1,2.55-.81.42.09,1-.77,1.57-1.63s1.23-1.83.39-1.43c2-2.14,2.55-3-.45-1.93a30.35,30.35,0,0,0,2.59-1.6c.42-.41.46-.64.13-.55-.57-.34-1.47-.36-2.59.68a3.92,3.92,0,0,1,3.23-1.44c.3-.65.42-1,.71-1.05-.89-1-1.62-1.73-.33-1.13-1.05-.94-.1-.55,1.19-.18,0-.31.39-.61.88-1.22a11.37,11.37,0,0,1,.29-3.49c-.1,1.84,0,2.63.21,2.53s.12-1.14.23-2.94c-.09,1.22-.24,1.72-.28,1.65-.26,0-.45-.24-.6-.57a2.63,2.63,0,0,1-.07-1.42,2.74,2.74,0,0,0-.67,1.24c0,.29.19.41.67.43-.78.06-1.29,0-1.41-.26s.1-.66.82-1.25c-1,.66-1.58,1.1-1.6,1.44s.5.55,1.61.73c-2.93,0-3.52-.1-.73-.23-3.61.38-3.84.73-1,2.9-3.53-1.69-4-1.56-3.13,2.1-1.81-3.37-2.26-3.19-3.78.59.55-3.44,0-3.27-2.43-.57,1-2.21-.08-1.86-2.08-.84-.16-.32-1.28.05-2.43.43s-2.36.78-1.83,1.26c-3,.33-4.23.75-2.2,3.67-4.62-2.06-5.94-1.62-9.28,1.87.66-2.59-.7-2.13-2.64-1.26a17.94,17.94,0,0,0-3.68,1l-4.32,1.46c-1.48.5-2.94,1-2.64,1.74-3.25.3-4.73.82-6.6,3.29-1.13-1.41-2.64-.89-4.87.19a14.7,14.7,0,0,0-3.78,1.05c-1.5.54-3,1.07-4.47,1.63s-3,1.08-1.68,1.56c-4.26.6-5.73,1.15-7.83,5.38-.8-3.14-2.23-2.61-5.13-1.05.06-.47-1.34.06-2.72.61l-4,1.58c-1.36.54-2.66,1.06-1.79,1.69-3.42.4-4.67.93-4.7,4.14-2.39-2.2-3.57-1.7-6.18.57.34-1.26-.76-.78-2.06-.11-.83.29-1.84.77-2.81,1.23s-1.91.92-2.61,1.32c-1.07.48-1.91.92-1,1.18-2.45.82-3.91,1.59-4.67,3.17a3.43,3.43,0,0,0-.34,2.53c-1.26-.3-1.87-.45-2.11-.88-.67,1.12-1,1.94-.79.42-.61,2.54-.69,3.57.4.64-1,4.41-1,4.89,1.65,1.62-2.48,4.19-2.38,4.64,2,5.29Z"/><text class="cls-4" transform="translate(66.67 371.92) scale(0.94 1)">Limon</text><text class="cls-5" transform="translate(214.66 235.69) scale(0.94 1)"><tspan class="cls-6">P</tspan><tspan x="26.58" y="0">ALETERI</tspan><tspan class="cls-7" x="218.39" y="0">A</tspan></text></svg>