<svg id="Layer_1" data-name="Layer 1" xmlns="http://www.w3.org/2000/svg" viewBox="0 0 612 612"><defs><style>.cls-1{fill:#faed23;}.cls-2{fill:#fcfad8;}.cls-3{fill:#fff;}.cls-4{font-size:300px;fill:#009444;font-family:BrushScriptMT, Brush Script MT;font-style:italic;}</style></defs><title>Artboard 3</title><path class="cls-1" d="M143.44,299.61c0,79.31,65,143.61,145.28,143.61S434,378.93,434,299.61,369,156,288.71,156,143.44,220.29,143.44,299.61Z"/><path class="cls-2" d="M330.08,192.83c2.29,5.49-.84,8.2-2.51,11.07a5.58,5.58,0,0,0-.91,3,12.83,12.83,0,0,0,2.8-3.78,9.32,9.32,0,0,0,.17-6.1c.16-1.45.29-2.87.45-4.22Z"/><path class="cls-2" d="M372.54,198c-1.55,3.25-5.86,7.77-8,10a52.6,52.6,0,0,0,6.44-7.79c1-1.47,1.58-2.25,1.58-2.25Z"/><path class="cls-2" d="M389.28,265.33c1.3-3.06,3.45-5.32,1.17-7.45,2.28,2.14,4.58,4.27,4.7,8.66-2.15,2.27-2.15,2.27-5.53.6l-.34-1.81Z"/><path class="cls-2" d="M389.6,236.41a10.52,10.52,0,0,1,2.64-3.65,54.27,54.27,0,0,0,6.2-5.9c-2.11,2.2-6.23,6.51-8.72,9.54Z"/><path class="cls-2" d="M260.58,188.43c.27-.24.54-.48.81-.7,1.56,1.8,3.55,3.46,5.26,5.19.12,4.32.27,8.62.48,12.93-.18.19-.35.39-.55.6,2-6.64-7-10.79-6-18Z"/><path class="cls-2" d="M194.63,265.8c1.11.36,2.23.71,3.45,1l-.19.32a12.77,12.77,0,0,0-3.06-1c-7.68-1.51-18.78,1.69-26.68-1.93a21.82,21.82,0,0,1,3.6-1.86,173.69,173.69,0,0,1,22.87,3.41Z"/><path class="cls-2" d="M342.1,188.68c-.5-1.7,1.67-4.16,1.36-3.69-.38,1.06-.84,2.29-1.36,3.69Z"/><path class="cls-2" d="M365.77,192.69c-1.65,2.17-6,6.7-8.13,9,2.17-2.26,4.33-4.51,6.79-6.78l1.34-2.18Z"/><path class="cls-2" d="M196.91,341.24c-4.18,1.46-6.35,3.73-8.51,6,2.16-2.26,8.89-.25,12.12-7.91-1.16.63-2.36,1.28-3.61,1.93Z"/><path class="cls-2" d="M168.66,348.42c1.84-5.08,10.73-5.33,15.06-9.85-2,6.65-11.05,2.51-11.85,8.63l-3.21,1.22Z"/><path class="cls-2" d="M187.56,338.9c7.32,1.53,11.64-3,16.09-3.11-2.16,2.26-6.48,6.78-12.08,2.5-1.34.22-2.69.41-4,.6Z"/><path class="cls-2" d="M185,320.89c2.67,0,9.25-2.42,9.39,2-6.35,11.17-15.51,2.64-22.24.63a69.67,69.67,0,0,1,8.79.12,20.5,20.5,0,0,0,4.07-2.73Z"/><path class="cls-2" d="M164.89,304.41c-4.57-4.76-6.47,6.29-8.88-.23,6.72,2,19.94-2.78,20.06,1.62-1.9,11.05-2.29-2.12-6.1-.74a15.12,15.12,0,0,1-5.07-.64Z"/><path class="cls-2" d="M195.6,247.74c-10,2.82-16.9-3.59-28.07-5.47,6.73,2,15.61,1.76,23.55,3.8l4.52,1.67Z"/><path class="cls-2" d="M166.57,259a1.52,1.52,0,0,0-.48.09c-.29-.16-.6-.26-.89-.46-1.81-.4-2.75-.65-2.75-.65,3.06-1.39,6.54,0,10.57,1.44-2.13-.18-4.28-.32-6.45-.42Z"/><path class="cls-2" d="M188.37,312.3c-5.19,8.68-12.05,2.29-18.78.28,4.45-.12,13.34-.38,18.18-1.43a7,7,0,0,1,.6,1.15Z"/><path class="cls-2" d="M310.64,190.21a6.14,6.14,0,0,1,1.35,4.29,12.71,12.71,0,0,1-1.15,3.86c-2.23.29-4.37,2.55.19,6.82-2.28-2.13-4.56-4.27-2.87-7.59a23.64,23.64,0,0,1,.44-4c.24-1.28.52-2.48.73-3.55.44.07.87.11,1.31.18Z"/><path class="cls-2" d="M203.79,343.78h.08a6.63,6.63,0,0,1,3.37,1.72c1.24,3.36,1.24,3.36,1.36,7.76a14.18,14.18,0,0,0-2.52-3.47,10.24,10.24,0,0,0-6.75-2.94c1.45-1.05,2.95-2.07,4.45-3.06Z"/><path class="cls-2" d="M166,297.14a12.34,12.34,0,0,1-1.38-2c6.54-2.37,13.21-.43,20.86.31a118,118,0,0,1-19.47,1.7Z"/><path class="cls-2" d="M212.28,204.27c2.16,3.9,5.93,8,9.56,11.63.91.9,1.8,1.76,2.32,1a32.33,32.33,0,0,0-3.45-3.06c-4.79-3.75-10-6.45-10.81-12,.69.7,1.48,1.51,2.39,2.42Z"/><path class="cls-2" d="M235.19,219.59c1.31,1.31,2.58,2.54,3.75,3.74,1.5,1.46,8.23,3.47,6.2,10.12-2.29-2.13-9-4.15-7.32-9.61a12.94,12.94,0,0,0-3.13-3.83c.16-.14.33-.27.5-.42Z"/><path class="cls-2" d="M342.47,370.41A28.46,28.46,0,0,1,346.7,377c.67,1.23,1.32,2.49,2,3.7,2.07,3.64,4.38,6.86,7.76,7.88-3.81-3.57-9.11-5.55-11.12-10.4a10.13,10.13,0,0,1-.79-3.29c-1.73-2.68-2.4-4.12-2.07-4.5Z"/><path class="cls-2" d="M229.14,219.6c-.58-.8-1.3-1.67-2.08-2.55-2.36-2.66-5.37-5.47-7.09-7.06,1.73,1.59,4.73,4.4,7.13,7,.81.88,1.52,1.74,2.13,2.53,0,0,0,0-.09,0Z"/><path class="cls-2" d="M208.33,241.31c-8.74-3.8-18.3-5.75-26.61-11.83,8.14,6,17.47,7.95,26.1,11.55l.51.28Z"/><path class="cls-2" d="M399.2,354.71c.81,1.85.81,1.85,3.1,4l-9.14-8.54s2.28,2.14,2.57,1.89c.92.68,2.06,1.55,3.47,2.67Z"/><path class="cls-2" d="M390.25,350.29c-6.12-4.27-10.56-4.14-15-4,4.57,4.26,8.89-.25,13.23,3.09.72.39,1.28.68,1.78.93Z"/><path class="cls-2" d="M359.83,333.94c6.14-.6,4.1,6.06,6.39,8.19-2.29-2.14-8.89.26-8.29-6.14l1.89-2.06Z"/><path class="cls-2" d="M355.92,334.67c1-5.47-10-3-10.16-7.35,4.45-.12,11.05-2.5,12.19,5.17-.69.73-1.36,1.45-2,2.18Z"/><path class="cls-2" d="M207.53,196.08C213,199.19,213.24,208,220,210a69,69,0,0,1-11.1-12.33,5.31,5.31,0,0,0-1.34-1.58Z"/><path class="cls-2" d="M369.31,345.55c6.07,5.1,15.08,9.24,24.1,13.38-9-4.14-15.75-6.14-24.21-12.86,0-.18.08-.34.11-.53Z"/><path class="cls-2" d="M356.83,337.21c2.79,7.3,9.14-3.87,9.26.53s-6.62,2.39-9.67-.09c.14-.15.27-.3.41-.44Z"/><path class="cls-2" d="M373.88,389.93c.48,2.56.48,2.56,2.77,4.67a12.82,12.82,0,0,1-2-2.47c-2.71-6.19-7.27-10.45-11.85-14.72A96.46,96.46,0,0,1,373,387.9a7,7,0,0,1,.85,2Z"/><path class="cls-2" d="M354.68,364.7c-5.73-4.48-3.7-11.14-10.43-13.13,4.57,4.25,11.3,6.27,11.12,12.83-.21.11-.45.19-.69.3Z"/><path class="cls-2" d="M301.89,394.41a13.55,13.55,0,0,0,0,3.18,22.22,22.22,0,0,0,.58,2.92c1,3.76,2.59,7.13,1.24,11.58-.09-2.93-1.19-6.81-2.4-11.08-.3-1.08-.62-2.17-.92-3.27s-.59-2.21-.87-3.31c.78,0,1.55,0,2.32,0Z"/><path class="cls-2" d="M312.16,420.3c.17,1.62.33,3.25.42,4.88-.67.8-.83,1.56.12,2.34,0,.76.09,1.5.11,2.26-2.47-3.09-4.47-6.2-.65-9.47Z"/><path class="cls-2" d="M213.68,233c-6.53-5.06-20-9.07-24.71-16.62-1.3-1.05-2.23-1.83-2.23-1.83.13-.16.28-.32.41-.47,0,0,.27.16,1.25.91,7.45,6.68,18.76,13,25.46,17.79a2.31,2.31,0,0,0-.18.23Z"/><path class="cls-2" d="M328.77,362.75c-.8-2.11-1.55-4.24-2.31-6.37,2.25,1.79,4.73,3.9,7.24,6.11a30.56,30.56,0,0,1,.88,3.69,4.32,4.32,0,0,0,1,2.46,1.22,1.22,0,0,0-.25,0c-.86-.72-2.42-2.14-4.07-3.62l-2.45-2.3Z"/><path class="cls-2" d="M302.19,419.68c-.33,3.47-9.1,8.11-.07,12.26-6.86-6.4-9.27-12.94-.52-17.58,0,0,.12,4.39,1.57,3.62-.06,1-.35,1.65-1,1.7Z"/><path class="cls-2" d="M333.36,423.63a19.94,19.94,0,0,1-4.43-7.69,20.56,20.56,0,0,1-.61-3.43c-.12-1.12-.13-2.21-.17-3.32a5.15,5.15,0,0,1,3.29,2.61c1.88,3.52.35,9.17,3.61,11.77.92,2.28.88,2.92-1.7.07Z"/><path class="cls-2" d="M348.39,396.9c1.47-5.92-9.72-7.79-3.24-14.58-2,6.65,4.71,8.66,3.6,14.58Z"/><path class="cls-2" d="M401.25,259.31A50.13,50.13,0,0,0,408.1,253L403.27,258c-.69.41-1.37.84-2,1.27Z"/><path class="cls-2" d="M324,374c.48,1.15.23,3.38.7,5.57a7,7,0,0,0,1.39,3.13,7.17,7.17,0,0,0,3.6,2.23c-1.61,1.7-5.67,5.94-8.59,5.19-1-.24-1.85-1-2.46-2.67-.12-4.39-.25-8.79,2.44-12.89,1-.15,1.94-.31,2.92-.56Z"/><path class="cls-2" d="M316.83,372a28.35,28.35,0,0,1-1.15-8.58c2.29,2.12,4.57,4.25,3.93,8.65a14.58,14.58,0,0,1-2.78-.07Z"/><path class="cls-2" d="M214.44,230.95c-9.58-5.13-14.14-9.4-20.07-15-1-.89-1.92-1.76-2.83-2.63s-1.82-1.67-2.67-2.48a17.55,17.55,0,0,1,3.2,1.93,29.63,29.63,0,0,1,2.93,2.54c7.47,3.93,10,14.86,19.35,15.3,0,.09.07.2.1.3Z"/><path class="cls-2" d="M184.49,234c-3.89-.92-6.16-3.06-8.46-5.19,2.43,6.53,9,4.14,10.23,5.44-1-.32-1.67-.43-1.77-.25Z"/><path class="cls-2" d="M365.69,299.45c-1.53.39-3.07.73-4.61,1l0,0c.34-.57.68-1.16,1-1.74,2.48-.47,11.08-9.2,12-1-2.82.47-5.62,1-8.38,1.7Z"/><path class="cls-2" d="M404.1,299.88c3-5.1,5.15-7.35,5.41,1.42-2,6.66-6.86-6.39-8.32,1.06a7,7,0,0,0,2.91-2.48Z"/><path class="cls-2" d="M410.9,265.34c0,7.34-4.58,3.07-9,3.2,4.44-.13,6.6-2.39,8.79-3.76l.22.56Z"/><path class="cls-2" d="M384.75,289.08c-4.45,2.07-13.21,6.71-15.5,4.58-.27-8.79,11.18,1.88,13-4.38.84-.09,1.67-.15,2.52-.21Z"/><path class="cls-2" d="M367,288.24c6.62.91,10.92-3.61,15.37-3.73C378,289,371.29,287,367,288.25Z"/><path class="cls-2" d="M257.87,191c1.44,3.87,3.36,9.05,5.36,14.45.39,1.07.81,2.16,1.2,3.26a22,22,0,0,1-2.12-2.31,27,27,0,0,1-1.76-2.57,37.93,37.93,0,0,1-4.27-11c.51-.65,1-1.27,1.59-1.87Z"/><path class="cls-2" d="M253.79,182.78c3.25,2,3.25,2,1.1,4.22-6.73-2-.26-8.79-4.84-13.07,2.3,2.14,2.3,2.14,3.67,5.45.85,1.68,1.24,3.15.07,3.39Z"/><path class="cls-2" d="M224.25,196.47c-2.51-1.93-4.79-4.06-4.91-8.45.12,4.39,4.71,8.65,9.27,12.92,0,0-2.28-2.13-1.95-2.35l-2.41-2.12Z"/><path class="cls-2" d="M232.87,181.16a24.87,24.87,0,0,0,6.54,8.48c-2.29-2.14-4.59-4.27-5.51-6.55-.49-1.08-.41-1.35-1-1.93Z"/><path class="cls-2" d="M254.2,195.61c-.73,4.56,4,6.91,6.64,9.94a6.76,6.76,0,0,1,1.45,2.45,6.86,6.86,0,0,0-1.46-2.45c-2.64-3-7.4-5.32-6.78-9.75a1.28,1.28,0,0,0,.14-.19Z"/><path class="cls-2" d="M383.72,316.92c1.8.47,1.8.47,5.53,3a30.63,30.63,0,0,0,3.83-.32c1.26-.17,2.51-.34,3.61-.38-1.11,0-2.36.21-3.65.38a39.63,39.63,0,0,1-4,.4c-3.44,1.73-5.73-.4-6.75-2.42l1.37-.72Z"/><path class="cls-2" d="M374.19,311.72a32.77,32.77,0,0,1,5.69,4.52c-.35.19-.69.39-1.05.58-4.37,3.07-8.93-1.18-11.22-3.32a9,9,0,0,1,2.83-2.13c1.26.14,2.5.25,3.76.35Z"/><path class="cls-2" d="M398.89,318.9c.09,2.5,8.85-2.15,9,2.26-4.45.12-8.89.24-9.33-1.7a1.1,1.1,0,0,0,.35-.56Z"/><path class="cls-2" d="M209.25,284.34l4.89,1.86c1.45,1.49,2.64,3.16,4,4.57-.29,0-.59.05-.88.06-1.12.06-2.22.14-3.3.24-4.37-2.44-8.17-5.8-13.42-5.47-1.25-.41-2.54-.79-3.88-1.1,4.2,0,8.38-.07,12.55-.16Z"/><path class="cls-2" d="M167.83,282.19c1.39.21,2.76.46,4.14.72,2.21.59,6.64.69,10.6.82l2.32.91c-4.94,1.38-11.25-1.13-16.41-2-1.49-.26-3-.49-4.46-.67a30.7,30.7,0,0,0-6.36-.11,37,37,0,0,1,10.17.35Z"/><path class="cls-2" d="M177.72,276.62c1.29.08,2.55.21,3.8.41a3.08,3.08,0,0,1,3.14-.79,1.56,1.56,0,0,0,1.19,2.53c.89,0,1.77.09,2.67.17l.12.11a35.38,35.38,0,0,1-9.58-.66,18.12,18.12,0,0,0-4-.88,4.84,4.84,0,0,0-1.05.07c-1.62-.45-3.23-.84-4.87-1.2,2.93,0,5.84.05,8.62.24Z"/><path class="cls-2" d="M201.4,287.09a23.14,23.14,0,0,0-3.06-.08l-.41-.19a19.83,19.83,0,0,1,3.63-1.16c4.78-2.62,9.2,1.24,13.6,5.33-1.27.1-2.52.21-3.79.35-3-1.53-4.61-5.7-10-4.24Z"/><path class="cls-2" d="M194.4,292.87a15.25,15.25,0,0,1,3.93-.44,6.92,6.92,0,0,1,2.88-.68c.57.26,1.15.5,1.73.74-4.44.71-8.87,1.51-13.28,2.27v-.17a25.34,25.34,0,0,1,4.75-1.72Z"/><path class="cls-2" d="M185.77,293.7c-10.1-1.08-21.14,1.44-32.32-.45,2.28,2.13,9,4.14,11.18,1.89l-.12-4.4c7,10.8,13.2-4.78,21.42,1.9-.06.35-.12.7-.16,1.07Z"/><path class="cls-2" d="M164.27,288.69c-1.09-.55-2-1.11-2.91-1.58-2.58-1.42-4.27-2.21-5.87-.51a9.39,9.39,0,0,1,3.31-.54,14.75,14.75,0,0,1,3.36.44c4.5,2,8.94,1.86,13.41,1.73a39.34,39.34,0,0,0-7.84.67l-3.46-.21Z"/><path class="cls-2" d="M197.1,275.17a31.36,31.36,0,0,0,7,3.53,32.41,32.41,0,0,1,3.42,1.61,28.67,28.67,0,0,0-3.44-1.57,36.4,36.4,0,0,1-7.17-3.33l.15-.24Z"/><path class="cls-2" d="M175.65,269.54c3.84,1,6-1.29,10.57,3-11.05,2.51-17.9-3.89-26.79-3.63,4.55,4.27,6.72,2,11.17,1.88,0,0-2.28-2.14-.56-2a12.36,12.36,0,0,0,5.61.78Z"/><path class="cls-2" d="M226.34,280.16c-1.73.21-3.47.37-5.22.5-4-.67-7.57-3.69-11.79-6.91l-.74-.33c.5.1,1,.23,1.51.38,5.14,4.45,11.77,6.45,16.22,6.36Z"/><path class="cls-2" d="M195.56,271.1c-5-3.1-9.48-3-13.92-2.85,6.61-2.38,11.17,1.88,14.69,1.55-.26.43-.5.87-.77,1.3Z"/><path class="cls-2" d="M243.22,302c.6-.18,1.2-.4,1.78-.61l1.43.09c2.7,4.76-1.34,9.06-3.42,11.25,4.3-4.53,2-6.66.2-10.73Z"/><path class="cls-2" d="M249.36,301.64a72,72,0,0,1,13.9,2.35,1.44,1.44,0,0,0,1.13-.13c-1.59,1.65-1.86,1.8-4.42,3a10.82,10.82,0,0,1-3-.87c-3.09-1.28-6.48-3.39-9.8-2.19.71-.73,1.43-1.47,2.17-2.12Z"/><path class="cls-2" d="M228.4,287.37c4.42-2.76,9.76-.93,13.12,2.65-.83,0-1.66,0-2.5-.08-3.55-.85-7.09-1.66-10.63-2.56Z"/><path class="cls-2" d="M237.4,292.79c2.27.53,4.53,1.07,6.8,1.69a9.29,9.29,0,0,1,.57,2.77,12.68,12.68,0,0,0-3.55-2.37c-5.77-2.54-12.09-.16-16.07-1.73,4-.29,8.17-.45,12.26-.35Z"/><path class="cls-2" d="M226.58,304.44c3,4.23,5.13,2,9.56,1.84s2.15-2.25-.13-4.39c-6.73-2-1.9,11.05-8.7,5.55-.22-1-.5-2-.74-3Z"/><path class="cls-2" d="M209,362.88c-2.87,2-5.56,4.81-8.8,8.19a66.64,66.64,0,0,1,8.71-8.18,18.67,18.67,0,0,1,2.81-1.67c1-2.49,2.31-2.34,3.86-1.9-1,.5-2.2,1.23-3.64,1.87a18.6,18.6,0,0,0-2.93,1.69Z"/><path class="cls-2" d="M227.94,362.94c3.15-1.55,7.45-6.07,9.63-8.33a96.37,96.37,0,0,1-9.62,9.11c0-.25,0-.53,0-.79Z"/><path class="cls-2" d="M215.31,369c1.07-1.16,2.06-2.21,3-3.11q2.48-1.48,4.92-3c-1.51,2.26-3,4.51-4.66,6.7-.6.53-1.19,1.08-1.89,1.65a23.75,23.75,0,0,1-2.59,3.06c-.28.28-.57.51-.86.75.66-2,1.36-4,2.08-6Z"/><path class="cls-2" d="M210.2,384.08c.66-.76,1.35-1.52,2-2.28a13.77,13.77,0,0,0-1.34,1.87c2.29.15,5.28-2.35,7.55-4.59.76-.73,1.43-1.43,2-2a8.62,8.62,0,0,0-1.82-2.52c.49-.58,1-1.14,1.46-1.72,1.35-1.67,2.56-3.46,3.76-5.25a15,15,0,0,0,4.07-2.92,16.3,16.3,0,0,1,.36,2.13c-1.36,3.51-5.68,8-6.63,9.66-.65,1.22-1.3,2.41-2,3.51-2.22,3.4-5,5.78-9.84,5.3.13-.4.27-.81.43-1.19Z"/><path class="cls-2" d="M229.09,380a21.76,21.76,0,0,1-1.75,2.77c-.69.95-1.46,1.93-2.26,2.85-1.57,1.85-3.2,3.54-4.27,4.67A10.16,10.16,0,0,1,222,385a30.28,30.28,0,0,1,2.91-4.06,7.08,7.08,0,0,0,4.14-.94Z"/><path class="cls-2" d="M304.86,189.55c-.11,1.54-.21,2.95-.27,4.25s-.12,2.53-.16,3.7c4.33,5.55-4.44,10.19.13,14.46-.12-4.39-.38-13.18-4.33-18.19a28.23,28.23,0,0,1-.24-4.36,29.84,29.84,0,0,1,4.87.13Z"/><path class="cls-2" d="M302.69,207.25c-4.87,2.7,4.29,11.24-.15,11.36,0,0-4.45.14-6.74-2,4.46-.13-.25-8.79,4.19-8.91,2.3,2.14,6.86,6.4,11.43,10.66-2.29-2.13-6.86-6.4-9-9.73a9.65,9.65,0,0,1,.31-1.38Z"/><path class="cls-2" d="M327.38,209.63c-5,1.83-2.48,12.75-6.8,17.26,2-6.65-4.84-13.05,5.63-17.44.35,0,.76.11,1.17.18Z"/><path class="cls-2" d="M281.8,206.2c.22,1,2.57,2.54,3.77,4.4a3.33,3.33,0,0,1,.54,3c-5.67,10-3.9-5.43-5.79-3.45a16.35,16.35,0,0,1-1-3.92,11.58,11.58,0,0,1,.46-4.59s4.45-.12,3.29.88c.36,2,.12,3.41-1.29,3.65Z"/><path class="cls-2" d="M287.46,223.76c1.74-4.76,1.74-4.76,1.61-9.15.13,4.39.13,4.39-.77,8.08-.17.7-.51,1.09-.84,1.06Z"/><path class="cls-2" d="M254.65,215.77c-1,4.25,5.59,1.86,1.27,6.38-.13-4.39-2.42-6.52-4.7-8.65,6.74,2,2.54,10.92,9.28,12.91-2.28-2.13-4.58-4.26-4.29-7.28-.48-1.08-1-2.19-1.56-3.36Z"/><path class="cls-2" d="M254.23,227.81c-4.91-3.26-5.17-12.06-9.74-16.32,4.57,4.26,9.15,8.54,10,16.15-.09,0-.13.12-.21.17Z"/><path class="cls-2" d="M232.9,194.11c.16,6.71,11.34,8.58,9.3,15.24-6.86-6.4-9.28-12.92-11.29-20.13,3.28,3.47,2.37,3.7,2,4.89Z"/><path class="cls-2" d="M243.54,202.76c-1.59-2.2-6.16-6.46-8.45-8.59,2.28,2.13,4.56,4.26,6.42,5.91.71.88,1.38,1.78,2,2.68Z"/><path class="cls-2" d="M255.17,258.44c-4.94-3.15-18.28-2.76-16.38-13.81,4.58,4.27,11.43,10.66,16.59,13.69l-.21.12Z"/><path class="cls-2" d="M249.66,255.71a20.54,20.54,0,0,1,5.15,3.85c-4.58-4.27-13.47-4-15.89-10.53,2.42,6.52,11.18,1.87,12.42,7.93.28.23-.17-.12-1.67-1.25Z"/><path class="cls-2" d="M235.42,246c-2.1-2.68-4.16-5.4-6.25-8.08a8.73,8.73,0,0,1,.27-1.47,8.4,8.4,0,0,0-1.89-2.45,5.72,5.72,0,0,0-2.51-1.22c-.65-.76-1.32-1.49-2-2.23a18.56,18.56,0,0,1,7.94,2.71,10.77,10.77,0,0,1,2.68,2.56c5,4.45,2.83,6.71,3,11.11a10.83,10.83,0,0,0-1.21-.92Z"/><path class="cls-2" d="M259.41,264.84c2.24,1.12,4.53,3.26,6.83,5.39-2.29-2.13-4.59-4.27-7.75-5.08l.92-.32Z"/><path class="cls-2" d="M237.52,271c-.26-2.17-2.54-4.3-5.07-6.63-.74-.73-1.47-1.41-2-1.94.58.53,1.3,1.2,2,1.94,2.53,2.33,4.82,4.46,5.28,6.46l-.2.17Z"/><path class="cls-2" d="M264,366.43c-.81,1.9-1.69,3.76-2.61,5.6a18,18,0,0,1-3.06-3,16.27,16.27,0,0,0-1.74.4c1.34-4.41,1.34-4.41,1.21-8.82,2.05,1.93,4.14,3.88,6.21,5.8Z"/><path class="cls-2" d="M247.95,356.35a30.89,30.89,0,0,0,.54-8.65c2.28,2.14,2.42,6.53,2.53,10.92,0,0-15.23,11.43-3.53-2.28a4,4,0,0,0,.46,0Z"/><path class="cls-2" d="M251.71,365.5c-.43,1.91-4.75,6.43-7.12,8.25a3.33,3.33,0,0,1-2-.92,13,13,0,0,1-2.4-2.9,16.8,16.8,0,0,1,2.82-2.26c1.63,2.12,3.79-.14,6.77-2a16,16,0,0,0,1.9-.18Z"/><path class="cls-2" d="M368.5,366c2.8,2.14,6.27,4.41,9.55,6.93-4.28-2-8.54-4.11-10.8-7.86.42.32.86.61,1.26.93Z"/><path class="cls-2" d="M350.56,348.93a1.75,1.75,0,0,0-.5-.22,10.81,10.81,0,0,1-1.6-3.27c.12-.12.26-.23.39-.35.71.46,1.38.86,2,1.27,1.35,1.13,2.68,2.3,4,3.53,1.13,1.06,2.27,2.17,3.41,3.27-1.23-.46-2.45-.81-3.63-1.24-1.36-1-2.71-2-4.08-3Z"/><path class="cls-2" d="M362.24,365.85c7.17,9.18,16.33,17.71,25.47,26.25-6.85-6.41-16-14.93-22.52-23-.86-1-1.83-2-3-3.26Z"/><path class="cls-2" d="M359.07,362.23c-1.35-6.67-8-4.27-10.25-6.41,2.29,2.14,8.9-.26,10.47,6.22a1.59,1.59,0,0,0-.22.19Z"/><path class="cls-2" d="M305.61,326.5c.22,2.08-.2,4.18.61,6.28-2.46-3.43-2.75-6.79-2.85-10.17.69,1.33,1.44,2.62,2.24,3.9Z"/><path class="cls-2" d="M325.38,322c-2.1-2.87-4.37-5-8.82-4.88,2.15-2.26,4.45-.12,6.58,2.89l2.24,2Z"/><path class="cls-2" d="M287,372.83c-2.23.22.32,11.13-8.71,7,4.32-4.52,6.47-6.78,10.79-11.3a30.51,30.51,0,0,0-2.5,2.9,7.19,7.19,0,0,1,.42,1.41Z"/><path class="cls-2" d="M287.27,360.43c1.48.32-.74,1.86,1.19,2.07a8.35,8.35,0,0,0-1.19-2.07Z"/><path class="cls-2" d="M290.17,275.74c-1.59-1.74.32-12.79-8.45-8.15l6.86,6.4c-6.86-6.4-.4-13.19-5-17.46,9,4.15.37,13.19,6.88,21.15-.11-.63-.23-1.27-.34-1.95Z"/><path class="cls-2" d="M280.29,254.8a6.21,6.21,0,0,1-.29-3.6,3.57,3.57,0,0,0-1.08-3.31c6.61-2.39,9,4.14,11.3,6.27-2.21.07-3.86.66-5.51.8a6.14,6.14,0,0,1-2.48-.25,8.72,8.72,0,0,1-2.92-1.68c.35.61.67,1.2,1,1.77Zm1.68,4.53"/><path class="cls-2" d="M278.94,223.45c.69,3.33,1.33,6.67,1.8,10a11.75,11.75,0,0,1-4.78-.39c-.11-1.4-.21-2.81-.34-4.22s-.27-2.81-.4-4.22c.25-.29.48-.59.78-.89a2.57,2.57,0,0,1,2.94-.32Z"/><path class="cls-2" d="M270.87,307.8c5.15-7.06,7.44-4.93,7.71,3.86-.14-4.39-8.9.24-10.05-3.22.78-.24,1.55-.44,2.34-.64Z"/><path class="cls-2" d="M273.76,298.27a8.26,8.26,0,0,1,3.4.79,11.42,11.42,0,0,1,3.47,2.68c-.41.08-.83.14-1.25.23-5.4,5.43-10,1.16-12.29-.77a8.57,8.57,0,0,0-1.63-.13c2.75-1.43,5.49-2.81,8.3-2.79Z"/><path class="cls-2" d="M265.07,301.81l1.28-.76c2-1.18,4.08-2.35,6.3-2.05a6.1,6.1,0,0,1,3.37,1.75c-2.28-2.15-4.45.11-7.15,2-1.2-.06-2.47-.07-3.71-.09a1.62,1.62,0,0,0-.1-.87Z"/><path class="cls-2" d="M279.24,330.6c.1,7.43-6.49,9.81-10.81,14.33,4.32-4.52,8.63-9,8.43-12.11a7.07,7.07,0,0,0,2.38-2.22Z"/><path class="cls-2" d="M285.8,310.6c-.21,2.6-.47,5.2-.5,7.81,0,2,3.12,2,3.14,0,0-3.27.44-6.53.66-9.8a12.31,12.31,0,0,1,5.25-1.5,3.87,3.87,0,0,0,3.29.35c-.75,5.3-4.77,9.11-8,13-.36,3.34-1.36,6.3-3.93,6.37-10.68-4.16-6.13-11.78.12-16.24Z"/><path class="cls-2" d="M278.82,325.27c2.54,6.1-4.06,8.49-8.38,13,4.32-4.52,10.92-6.91,7.78-13.45.21.14.41.29.6.44Z"/><path class="cls-2" d="M276.54,284.34c.13-1.39.3-2.78.41-4.17,1.77,1.59,3.68,3.3,6.35,5.63,1.21,1.57,2.41,3.09,2.41,3.09,1.12.54,1.24,4.93,1.24,4.93l-9.15-8.54a11.5,11.5,0,0,0-1.26-.94Z"/><path class="cls-2" d="M220.32,237q2.48,3,5,6.09c1.68,2.08,3.45,4.25,5.2,6.43-3.84-.84-6.08-5.24-9.51-7.69-.86-.93-1.72-1.85-2.53-2.71a29.36,29.36,0,0,0-2.46-2.29l.27-.38a12.93,12.93,0,0,1,4.08.55Z"/><path class="cls-2" d="M212.54,234.53c-3.11-4.45-5.53-11-14.28-6.33,6.59-2.39,11.17,1.87,14.45,6.08a1,1,0,0,1-.18.25Z"/><path class="cls-2" d="M310.79,281.07c.09-1.16.18-2.31.15-3.32a29.4,29.4,0,0,1,9.82-1.34c-3.33,1.57-6.64,3.13-10,4.67Z"/><path class="cls-2" d="M317.36,281.81a1.39,1.39,0,0,0,1.77.8l1.13-.39c-2.52,2.73-4.24,6.38-6.77,6.45-2.26.06-2.84-1.62-2.9-3.85,2.28-1,4.52-2,6.78-3Z"/><path class="cls-2" d="M334.08,273.92c2.77-1.37,5.54-2.75,8.22-4.21,1.6-.86,3.18-1.76,4.71-2.69-.84.81-1.75,1.63-2.68,2.43-3.36,1.59-6.78,3.08-10.25,4.48Z"/><path class="cls-2" d="M338.38,268.19l-2.44,1.14a17.64,17.64,0,0,1,2.23-2,20.53,20.53,0,0,1,8.25-3.42,84.61,84.61,0,0,1-8,4.27Z"/><path class="cls-2" d="M335.57,356.28a34.27,34.27,0,0,0,3.62,2.85c3.68,2.64,7.09,5,5.59,10-3.06-2.84-6.11-5.69-8.23-9a22.71,22.71,0,0,1-1.37-2.59,16,16,0,0,1-.93-2.83c.43.53.89,1,1.32,1.59Z"/><path class="cls-2" d="M306.46,321.71c4.73,2.63,10.36,5,10.61,13a47.55,47.55,0,0,0-4.81-3.69,101,101,0,0,1-5.8-9.34Z"/><path class="cls-2" d="M324.4,350.95c-.51-1.2-1.05-2.38-1.65-3.55-1-1.86-2-3.64-3.1-5.41,3.78,3,7.53,6.45,11.27,9.94a6.13,6.13,0,0,1-6.52-1Z"/><path class="cls-2" d="M254.06,332a49.62,49.62,0,0,1-5.85,6.89l10.8-11.3s-2.16,2.25-2.85,1.47q-1.06,1.5-2.11,2.94Z"/><path class="cls-2" d="M200.13,318a20.27,20.27,0,0,1,9.81-1.12,19.84,19.84,0,0,1,3.76.86c2.75.09,5,2.23,7.33,4.36-2.29-2.13-4.59-4.27-6.89-3.23a5.39,5.39,0,0,0-3.65-.61c-1.24.31-2.49,1.25-3.8,3.23-1.1.26-2.22.53-3.42.72a21.86,21.86,0,0,1-3.83.34q-2.62.49-5.18,1.09c-12.05,2.8-23.58,7.42-35.22,9,10.84-1.86,22.68-7,34.92-10q2.62-.66,5.25-1.18c1.3-.73,4.13-1,7.34-1.12,1.06,0,2.18-.07,3.28-.11a3.92,3.92,0,0,0-3.29-1.19c-3.16.4-5.65,4.12-6.22-1l-.2,0Z"/><path class="cls-2" d="M229.37,325.9c-1.36-.51-2.68-1.71-3.89-3.92-.13-4.39,8.76-4.65,13.65-4.58.42,1,.82,2.06,1.19,3.09l-.15.13q-5.43,2.55-10.8,5.28Z"/><path class="cls-2" d="M226.73,323.34c-1.25-1.37-3.53-3.5-5.82-5.62-.12-4.4,2.15-2.28,5.42.51.16,1.74.27,3.45.4,5.11Z"/><path class="cls-2" d="M210.8,345.44a25.77,25.77,0,0,1-3.48,3.39,31.84,31.84,0,0,1-3.75,2.51c-5.07,2.92-10.46,4.55-14.78,9.05,5.5-2,7.75-10,13.83-13.21a11.65,11.65,0,0,1,4.16-1.29,20.9,20.9,0,0,1,4-.46Z"/><path class="cls-2" d="M229.08,267.58c6.15,7.95,19.62,12,22.17,22.87-6.86-6.39-16-14.92-22.48-22,.1-.31.2-.63.31-.91Z"/><path class="cls-2" d="M206.32,258.55c1.67,7.45,12.51.76,16.31,5.95a8.24,8.24,0,0,1,1.28,4.75,35.73,35.73,0,0,1-3.08-3.45c-1-1.18-1.89-2.32-2.81-3.26-1.89-1.87-3.89-2.91-6.71-1.75-1.54-.73-3.21-1.46-5-2.24Z"/><path class="cls-2" d="M203.8,254.83c-7-2.39-13.79-4.39-20.51-6.41,8.89-.24,13.46,4,20.79,5.72-.11.23-.19.47-.27.7Z"/><path class="cls-2" d="M259.43,236.35a14,14,0,0,0,1.59,2.58,55.32,55.32,0,0,0,6.72,7.07,59.72,59.72,0,0,1-6.94-7.28,18.6,18.6,0,0,1-1.9-2.86,6.38,6.38,0,0,0,.53.5Z"/><path class="cls-2" d="M352.36,230.14a53.32,53.32,0,0,0-.29,9c2.17-2.26-.11-4.39-1.63-5.88.61-1,1.27-2.08,1.92-3.16Z"/><path class="cls-2" d="M341.91,224.79c.76-2.93.64-7.32,5.21-3.05a4.79,4.79,0,0,1-1,3,14.43,14.43,0,0,1-2.7,2.62,14.38,14.38,0,0,0-3.75,2.44c12.57,13.8,1-1.27.8-2.47.48-.82,1-1.67,1.48-2.52Z"/><path class="cls-2" d="M336,229c-2,1.9-4,8.55-6.4,2l8.64-9.05c-2.16,2.27-4.32,4.53-2.52,7.09L336,229Z"/><path class="cls-2" d="M332.85,218.16a1.6,1.6,0,0,0,2.93.78c.42-.63.77-1.26,1.17-1.9,0,.15,0,.32.05.49a22.65,22.65,0,0,1-3.36,4.54c-2,2.3-2,2.3-4.19,4.56-.11-3.74,1.44-5.93,3.39-8.48Z"/><path class="cls-2" d="M371.68,211.66c-2.6.65-2.6.65-4.76,2.91,4.31-4.51,6.48-6.77,10.8-11.31-2.15,2.27-2.15,2.27-3.2,4.68-.84,1.09-1.79,2.33-2.84,3.72Z"/><path class="cls-2" d="M353.91,227.61c-2.21-1.6-.06-3.87.74-6.4a5.64,5.64,0,0,1,3.3-3.3,19.57,19.57,0,0,1,6.8-1.07l-2.88,3c-.85.9-1.61,1.73-2.34,2.53a25.46,25.46,0,0,0-4.14,5,12.1,12.1,0,0,1-1.49.26Z"/><path class="cls-2" d="M344.48,198.73c-2.6,4.12-5.1,8.3-7.63,12.46-.37,0-.74-.06-1.17-.12a1.74,1.74,0,0,1-.46-1.48c2.58-4.49,5-9,7.24-13.69a17.75,17.75,0,0,1,3.88-.54,20.27,20.27,0,0,0-.58,2.66,1.41,1.41,0,0,0-1.28.71Z"/><path class="cls-2" d="M329.67,219c.37,3.48.27,7.35-2.59,10.71a8.82,8.82,0,0,0,.21,2.46c-1.56-3.67,1-8,1.95-12.43l.43-.74Z"/><path class="cls-2" d="M334.67,193.48c1.09-.91,2.09-1.66,2.65-2.25.13,4.12.2,8.26-4.37,12.42a56.52,56.52,0,0,0,1.72-10.16Z"/><path class="cls-2" d="M347.87,219.7c1.41-.24,3.56-2.49,1.61-2.65l-1.61,2.65Z"/><path class="cls-2" d="M217.69,203.22c2.15,2.38,6.72,6.64,9,8.77L213,199.19a32.58,32.58,0,0,0,4.33,3.65,5,5,0,0,0,.37.38Z"/><path class="cls-2" d="M231.64,222.39c0,5.88,4.69,8.26,8.89,11.35a22.07,22.07,0,0,1,2.44,2,4.69,4.69,0,0,0-.25-3.91c-1.76-3-7.21-4.11-9-9,3.36,1,5.69,4.24,7.74,7.74.66,1.18,1.34,2.38,2,3.55,1.85,3.78,1.85,3.78,4.14,5.91-2.29-2.13-4.59-4.27-6.21-5.85-.94-.92-1.83-1.81-2.71-2.7a85.56,85.56,0,0,1-7.43-8.7l.43-.34Z"/><path class="cls-2" d="M214.26,244.68c1.4.83,2.78,1.69,4.13,2.58,3.61,3.09,5.84,5.17,9.61,8.67-4.57-4.27-11.17-1.88-13.9-8.8-.82-.78-1.66-1.58-2.5-2.39.05-.16.1-.33.16-.49a18.28,18.28,0,0,1,2.5.43Z"/><path class="cls-2" d="M208,243c-2.78-4-9.38-1.58-14-5.85,4.45-.14,6.87,6.4,14.12,5.45L208,243Z"/><path class="cls-2" d="M217.08,249.36c2.49,1.19,2.49,1.19,4.75,2.42-1.49-.81-3.07-1.61-4.75-2.42Z"/><path class="cls-2" d="M270.43,209.52l.06,0c.49,3.63.92,7.26,1.26,10.9-.3-.85-.6-1.69-.93-2.54-.12-2.8-.25-5.6-.39-8.39Z"/><path class="cls-2" d="M277.67,177.15c-9.71.68-1.06-8.36-7.79-10.36a34.28,34.28,0,0,0,7.44,5.74c1.12,2,.76,3,.35,4.62Z"/><path class="cls-2" d="M268,224.35A101.07,101.07,0,0,1,262.28,211c3.24,1,4.48,4.06,5.43,7.49.1,2,.19,3.92.26,5.88Z"/><path class="cls-2" d="M350.56,301.84l-1.13-1a3.91,3.91,0,0,0-1.72,1.15,67.37,67.37,0,0,1-10.52-.6c4.53-1.8,9.55-2.24,12.13-5,1.13,1.08,2.27,2.15,3.47,3.16.77.66,1.65,1.22,2.47,1.81-1.57.21-3.14.36-4.71.45Z"/><path class="cls-2" d="M349,309.67c.89,1.88,1.6,3.52.82,4.34-5.49,2-9.69-3.69-16.07-5.49a13.69,13.69,0,0,0-4.13-.53,10.22,10.22,0,0,1,.94-1.57c6.08,1.25,12.29,2.06,18.43,3.25Z"/><path class="cls-2" d="M311.32,400.28c2,2.84,2.39,6,2.28,9.36-.66-3.14-1.41-6.27-2.28-9.36Z"/><path class="cls-2" d="M307.36,398a123.42,123.42,0,0,1,4.71,21.8c-6-6-6.11-10.35-5-18.69,0-1.08.15-2.09.26-3.11Z"/><path class="cls-2" d="M305.67,383.66a1.67,1.67,0,0,0-2.28-.88c-2.22-2-3.44-4.1-1.51-7.52.18-.7.34-1.42.47-2.14,4.8,3.69,7.23,10.22,7.36,14.6a43.27,43.27,0,0,0-3.58-2.84c-.16-.4-.3-.81-.47-1.23Z"/><path class="cls-2" d="M309,370.79c-.66-1.93-1.33-3.83-2-5.75,6.78,1.39,9.22,7.37,13.54,11.39-5.48,2.9-8.59-2-11.51-5.64Z"/><path class="cls-2" d="M370.62,308.28c4.14-1.89,8.2-3.72,12.36-1.81-4.12.12-8.21,1.17-12.23,1.83Z"/><path class="cls-2" d="M370.09,268.63A4.13,4.13,0,0,0,374,270c1.18-.22,2.26-.82,3.33-.91s2.28,0,3.4,0,2.23,0,3.34-.08c-2.09,4.46-4.29,5.62-6.59,5.45a12.07,12.07,0,0,1-3.55-1c-1.22-.51-2.46-1.1-3.75-1.55,0-1.1,0-2.2-.12-3.31Z"/><path class="cls-2" d="M357.47,279.3c-6.39,1.69-6.52-2.7-6.66-7.09,2.3,2.14,4.59,4.27,8.94,5.26a6.21,6.21,0,0,0-2.28,1.83Z"/><path class="cls-2" d="M283.33,413.7c-3.19-2.62-2.05-5.65-.42-8.85a7.51,7.51,0,0,1,2.66-3.19c-.24,1.13-.58,2.28-.9,3.43-1,3.48-2,7.11-.68,11-.25-.85-.45-1.59-.66-2.38Z"/><path class="cls-2" d="M279.92,416.13c-.42,3.25-.16,12,0,16.43-11.31-6.27-2.8-19.71,1.39-28.63,4.58,4.27-6.47,6.79-1.05,9.2-.1,1-.19,2-.3,3Z"/><path class="cls-2" d="M290.22,360.32c3.1-.7,5.26-3,7.42-5.23-8.76,4.65,7,10.8.37,13.19-2.27-2.14-4.56-4.26-6.9-5a18.77,18.77,0,0,1-.89-3Z"/><path class="cls-2" d="M294.26,351.76c1.08-1.39,1.1-1.39-.69-3.68.19,1.21.39,2.42.69,3.68Z"/><path class="cls-2" d="M356.36,263.16a10.7,10.7,0,0,1-1.36.13,17.23,17.23,0,0,0,1.85-2.63c2.34-1.58,4.68-3.16,7-4.71l.43.11c.23.58.43,1.16.65,1.74q-4.21,2.84-8.62,5.38Z"/><path class="cls-2" d="M340.66,248.92c-3.69,6.09-10.16,12.88-14.49,17.4,4.33-4.52,10.8-11.31,13.2-15.68.43-.57.86-1.14,1.28-1.72Z"/><path class="cls-2" d="M321,254.86a10.88,10.88,0,0,1,2.58-3.84c-.82,1.26-1.68,2.53-2.58,3.84Z"/><path class="cls-2" d="M316.22,261.55A13.09,13.09,0,0,1,314.8,264c-.6.88-1.33,1.78-2.07,2.66-2,2.35-2,2.35-4.2,4.6-.14-4.39-.27-8.78,3.75-12.31,1-1.26,2.51-1.79,4.76-1.12.57.53,0,1.1-1,1.71s-2.42,1.28-3.66,2c-1.85,3.08-1.85,3.08.43,5.21a22.21,22.21,0,0,0,3-3.55,7.79,7.79,0,0,0,1.27-4.47,4.6,4.6,0,0,0-.85,2.87Z"/><path class="cls-2" d="M299.38,269.88c4.57-2.92,4.45-7.32,4.32-11.71,2.28,2.13,6.86,6.4,4.69,8.66s-4.18,8.92-9.16,6.36c.05-1.07.1-2.18.14-3.3Z"/><path class="cls-2" d="M222.91,397c-6.29,2.18-3.87,8.71-3.75,13.1-2.28-2.14-4.58-4.25-6.86-6.4-.12-4.39,4.32-4.53,8.35-5.24a9.33,9.33,0,0,1,2.26-1.46Z"/><path class="cls-2" d="M240.11,380.16c-1.78.82-1.78.82-4.67,4-.65,1-1.28,2.12-2,3.17-2.08,3.19-4.78,6-10.37,5.08.67-2.22,2.62-3.74,4.92-5,1.13-.63,2.38-1.2,3.61-1.74a6.19,6.19,0,0,0,3.52-1.73,32.61,32.61,0,0,0,3.9-4.36l1.06.58Z"/><path class="cls-2" d="M265.42,344.45a1.29,1.29,0,0,0,.24-.87c3.48-3.55,8.4-6.56,10.45-11.89-.25.62-.49,1.26-.73,1.94-.35,8.9-9.12,13.55-13.44,18.09a9.41,9.41,0,0,1,.12-1.76,59.92,59.92,0,0,1,3.36-5.52Z"/><path class="cls-2" d="M272.68,376.6c-1.07,1.23-3.22,3.48-5.39,5.74,6.74,2,4.2-8.91,8.63-9,0,0-2.16,2.27-1.19,1.26a8.52,8.52,0,0,1-2.05,2Z"/><path class="cls-2" d="M259.81,401.41c1.66,9.68,10.67,13.81,17.54,20.22-4.69-8.65-9.28-12.92-16.15-19.31,2.42,6.51.27,8.77-4,13.3,4.44-.13,8.88-.25,8.76-4.65-2.42-6.53-4.71-8.65-2.67-15.31,9.14,8.54-3.82,22.1,5.33,30.63-15.62-1.75-7.11-15.2-9.8-21.64.33-1.09.68-2.16,1-3.24Z"/><path class="cls-2" d="M255.12,372.53c.16-1.73.44-3.42.75-5.11,1.54-1.88,3.11-3.54,4.16-4.65.13,4.4.27,8.78-2,9.73a10.91,10.91,0,0,1,.68,2.89c-.15.87-.25,1.46-.32,2-.93,1.57-1.91,3.11-2.95,4.64-.3-.09-.51-.19-.78-.29,0-3.05.09-6.11.41-9.21Z"/><path class="cls-2" d="M229.93,399.78c-1-5,.7-6.39,3.07-7,1.2-.32,2.54-.42,3.78-.71a38.81,38.81,0,0,1,4-4.56,21.38,21.38,0,0,0-5.84,9.16,10.29,10.29,0,0,1-1.72,3.24,4.4,4.4,0,0,1-3.06,1.59c-.1-.61-.16-1.17-.22-1.72Z"/><path class="cls-2" d="M245.77,400.87c1.6-2.45,3.31-4.83,5.06-7.2-.15.81-.27,1.61-.47,2.42-.46,2,2.58,2.78,3,.84a48.12,48.12,0,0,0,1.1-8.18c.17-.22.35-.44.51-.67.46.36.92.76,1.36,1.18a17,17,0,0,1-.39,4.22c-1.45,6.76-6.55,12.1-10.12,15.86a13,13,0,0,1-.09-8.47Z"/><path class="cls-2" d="M246.75,413.58a35.84,35.84,0,0,0-.53,9c-.11-4.4-6.72-2-1.37-7.7a3.45,3.45,0,0,1,1.9-1.26Z"/><path class="cls-2" d="M236.28,406c-3,.81-3.41,2.28-2.85,4.1s2,4,2.69,6.26a13.9,13.9,0,0,1,1.28,3.17,6.43,6.43,0,0,1-.06,3.27,15,15,0,0,1-3.78-2.42,9.84,9.84,0,0,1-2.31-2.93c-1.59-3.79-.74-6.29.76-8.11a15.49,15.49,0,0,1,2.54-2.35,18.25,18.25,0,0,0,2.17-1.85c-.16.29-.31.59-.43.86Z"/><path class="cls-3" d="M289.16,161.68c.35,2.17,1.15,2.18,2.82,1.06-.08,1.14.72,1.16,1.74,1a8.21,8.21,0,0,0,2.12.27c1.19.06,2.36.14,2.71-.69,2,1,3.16,1.1,4.18-1.33,1.31,2.67,2.47,2.79,4.94,1.56-.15,1.53,1,1.68,2.27,1.81,1,.22,2.17.42,3.29.62s2.28.41,3.3.49c1.22.38,2.35.63,3.29-.46,1.28,1.58,2.39,1.86,4.24,1,.36,1.48,1.46,1.78,2.81,1.95a17.7,17.7,0,0,0,3,1.1c1.09.34,2.16.7,3.23,1.05s2.33.8,3.45,1.19,2.29.89,3.22-.1c1.34,1.9,2.47,2.36,4.69,1.33,0,2,1.12,2.47,2.8,2.78a7.64,7.64,0,0,0,2.71,1.77c1.08.53,2.17,1.09,3.22,1.65s2.14,1.15,3.2,1.74a5,5,0,0,0,3.34,1,3.73,3.73,0,0,0,3.52,2.13,5,5,0,0,0,2.36,2.57c1,.66,2,1.35,3,2a6.94,6.94,0,0,0,3.27,1.58,4.81,4.81,0,0,0,3.3,2.54,7,7,0,0,0,2.35,2.76q2.87,2.41,5.61,5c.91.85,1.81,1.72,2.67.8.91,2.67,1.79,3.57,4.93,2.52-1.42,2.85-.57,3.76,1.9,4.86-.81.74,0,1.68.85,2.62s1.62,1.91,2.39,2.88a9.9,9.9,0,0,0,2.14,2.24c.94,1.69,1.68,2.69,3.13,1,0,3.76.74,4.77,4.4,5.91-2.26.93-1.56,2-.12,3.49-.09.58.58,1.64,1.23,2.71s1.28,2.15,1.9,3.23,1.21,2.21,2.34,2.44c.06,2,.65,3.1,2.62,3.81a2.71,2.71,0,0,0-.36,2.07,4,4,0,0,0,1,1.78c0,.61.21,1.15.64.76,0,1.5.23,2.08,1.36.91-.6,2.42-.32,3.08,2.14,2.24-1.92,2.17-1.65,2.85,1.15,3.59-2.28.6-2,1.28-.27,2.68-1.29-.22-1.12.29-.3,1.21-.43,0-.23.4.08.75a2.49,2.49,0,0,0,.51,1.61c.32.3.78.28,1.55-.28-.87,3.2-.56,4.25,3,4.92-2.93,1.42-2.64,2.49-.84,4.68-1.23-.07-1,1-.69,2.08a13,13,0,0,0,.48,1.79,3.39,3.39,0,0,0,.9,1.41,5,5,0,0,0,.06,2.39,3.63,3.63,0,0,0,1.5,1.87c-.6.71-.83,1.37,0,.73-.91,2-.73,2.7,1.72,1.85-2.27,2.12-2.25,2.72,1.05,2.6-3.22,1.35-3.14,2-.17,3.53-2.83-.35-2.77.15-.89,1.95-1.77-.75-1.72-.22-.84,1.17-.78-.35-.73.18-.54.85a2.6,2.6,0,0,0,.2,1.17c-.17,1.31-.1,2.36,1.59,2.49-1.59,2-1.56,3.05.66,4.28-2.15.91-2.14,2-1.32,3.64-.82-.15-.83.3-.58,1-.26.2-.27.64-.28,1.09,0,.89,0,1.77,0,2.57-.07,1-.11,1.86.79,1.19-1,2.21-1,2.87,1.2,1.24-2.25,2.92-2.23,3.56,1.49,3-3.82,1.91-4,2.56-.6,4.7-3.46-.77-3.42-.08-1.74,2.48-1.82-1.25-2-.64-1.67,1.23-.64-.61-.73,0-.79.86a10.2,10.2,0,0,0-.28,1.37c-.07.52-.16,1-.26,1.56a4.33,4.33,0,0,0,0,2.64c-.78,1.47-1,2.49,1.17,2.93-2.59,1.59-2.83,2.61-.65,4.74-2.68-.11-2.94.89-2.5,3-1-.07-1.27.93-1.56,1.93s-.6,2-.9,2.95a7.06,7.06,0,0,0-.58,3.11c-1,1.44-1.38,2.57.78,3.27-3,1.52-3.44,2.63-1.48,5-2.88-.16-3.35.93-3.33,3-1,.12-1.49,1.22-2,2.29s-1,2.14-.11,2.59c-2,1.66-2.55,2.71.07,4.66-3.76.14-4.32,1.17-3.92,4.48-1.28-1.77-1.59-1.26-1.66.6-.5-.84-.77-.34-1,.41a3.14,3.14,0,0,0-.95,1.31,3.86,3.86,0,0,0-.29,1.87,4.46,4.46,0,0,0-2.57,2.77,14.81,14.81,0,0,0-2.21,2.63c-.73,1-1.47,2-2,2.84-1,1.16-1.8,2.14,1,2.71-4.34,1.36-5.15,2.31-1.86,6.34-4.91-2.14-5.76-1.2-6.11,2.4-1.31-1.74-2.16-.83-3,.07s-1.74,1.79-2.64,2.66-1.77,1.74-1.68,3c-1.92.43-2.84,1.26-3.13,3.28-1.59-.36-2.52.45-3.49,1.37-1,.69-1.92,1.49-2.91,2.25a17.44,17.44,0,0,0-2.38,2.09c-1.59,1-2.6,1.7-.22,2.35-4.43.79-5.46,1.51-6.47,6.29-1.09-3.4-2.13-2.71-4.21-.7-.06-.67-1.13,0-2.21.62s-2.17,1.27-3.27,1.88l-3.34,1.79c-1.13.6-2.26,1.16-2.65,2.5a3.79,3.79,0,0,0-4.09,1.85c-1.27-.51-2.43,0-3.6.49s-2.36,1-2.22,1.87c-2.51,0-3.71.46-3.26,3.65-2.85-2.35-4.07-1.93-6.11.59.2-1.93-.41-1.73-1.6-.67,0-.67-.53-.46-1-.21a4.82,4.82,0,0,0-1.91.63,2.33,2.33,0,0,0-1,1.87c-2.33-1.25-3.58-.95-5.2,1.05-.92-1.41-2.19-1.14-3.5-.84a5.46,5.46,0,0,0-1.72.47,1.24,1.24,0,0,0-.74,1.26c-2.64-.82-3.95-.61-5,2.3-1.57-2.55-2.88-2.37-5-1.27-.53-.8-1.85-.67-3.18-.56s-2.65.21-4,.28-2.67.14-4,.21-2.75,0-2.75,1.78c-2.26-1.76-3.15-1.76-3.53,1.07-1.43-2.86-2.34-2.89-4.17-.82,0-2.14-.87-2.18-2.52-1.57-.13-.71-1-.77-1.91-.84a11.7,11.7,0,0,0-3,0c-1.74-.41-2.91-.55-1.79,1.84-3.45-2.69-4.63-2.84-7.63,1.11.69-4.32-.47-4.52-3.91-3.85,1.14-1.07,0-1.3-1.14-1.52s-2.27-.49-3.41-.76-2.23-.53-2.68.37c-1.79-1.49-2.9-1.79-4,.66-1.16-3.08-2.26-3.4-4.77-2.12.33-2-.76-2.33-2.17-2.57a15.36,15.36,0,0,0-2.9-1.28c-1.15-.42-2.31-.87-3.35-1.21-1.24-.56-2.36-1-3,.82-1.64-2.82-2.75-3.33-5.82-1.33.85-3-.25-3.55-2.72-3.75.28-.88-.79-1.44-1.86-2s-2.14-1.16-3.2-1.74-2.1-1.2-3.22-.85c-1-1.6-2-2.24-3.76-1.77a3.38,3.38,0,0,0-2.66-2.92,10.77,10.77,0,0,0-2.58-2.24c-1-.7-2-1.41-2.91-2.14a10.17,10.17,0,0,0-2.78-1.7c-1-1.25-1.95-2-3.83-.48.48-2.7,0-3.12-2.45-1.46,1.47-2.4,1-2.73-1.56-2,1.59-1.58,1.16-2.07-.8-2.27,1-.67.42-1-.35-1.33a3.8,3.8,0,0,0-.9-1.51c-.41-.47-.85-.9-1.3-1.34-2.67-2.63-5.21-5.38-7.65-8.22-.81-.95-1.62-1.9-2.4-2.7-.79-1.14-1.56-2.12-3.41-1.42.33-2.69-.42-3.69-3.11-4.17,1.23-1.54.51-2.57-.37-3.64-.52-1-1.22-2-1.89-3.08s-1.36-2.11-2-3.17-1.27-2.16-2.5-2.34c0-2-.62-3.11-2.79-3.7,1-1.61.43-2.74-.5-3.95a15.53,15.53,0,0,0-1.28-3.32,14,14,0,0,0-1.75-3.13,3.7,3.7,0,0,0-2.49-3.27,3.6,3.6,0,0,0-.67-4.22,4.48,4.48,0,0,0-.12-1.7A4.78,4.78,0,0,0,158,342c-.06-.77-.27-1.37-1.17-1.44.51-1.15.33-1.75-1-1.94,1-1,.81-1.65-.48-2.2.89-.62.66-1.19,0-1.78a2.37,2.37,0,0,0,0-2,4.48,4.48,0,0,0-1.22-1.76,5.8,5.8,0,0,0,0-3.92c-.23-1.26-.47-2.53-.7-3.8s-.42-2.57-.62-3.84a6.3,6.3,0,0,0-1.12-3.38c.47-1.8.33-3.1-1.44-4.38,1.54-1.34,1.44-2.66,1-4.23a13.28,13.28,0,0,0,.19-3.72c0-1.33-.05-2.67-.05-4s0-2.37.05-3.56.07-2.35.13-3.52.14-2.35-1.11-2.85c1.43-1.83,1.52-3-.45-4.55,2.22-.75,2.36-1.9,1.84-3.72.81-.48,1-1.63,1.17-2.78s.35-2.27.57-3.4.43-2.25.52-3.28c.37-1.22.63-2.33-.58-3.26,1.74-1.29,2-2.39,1-4.28,1.61-.32,1.91-1.4,2.08-2.73a9.27,9.27,0,0,0,.62-1.41,13.79,13.79,0,0,0,.47-1.55c.23-.57.41-1.11-.22-1.33,1-.85,1.16-1.39-.29-1.67,1.85-.83,2-1.41.13-2.4,2.3-.14,2.51-.72,1-2.39,2,.53,2.21,0,1.49-1.75,1.1.54,1.22-.07,1.12-1a2,2,0,0,0,1.17-1.2c.29-.54.53-1.09.77-1.65.5-1.11,1-2.21,1.51-3.31s1.05-2.18,1.49-3.23c.66-1.1,1.22-2.17.58-3.55a3.3,3.3,0,0,0,2.37-3.57c1.24-.3,1.85-1.34,2.47-2.36s1.28-2,1.82-3c.77-1,1.45-2,.55-3.25,2.27-.77,2.95-1.76,2.55-4.13,1.82.43,2.54-.53,3.22-1.93a11.88,11.88,0,0,0,2.29-2.37c.74-.93,1.51-1.85,2.29-2.76s1.64-1.89,1.13-3c2.19-.7,3-1.62,2.64-4.1,2.13.67,3-.22,3.86-1.81a6.36,6.36,0,0,0,2.72-1.88l1.38-1.27c.46-.42.93-.84,1.36-1.24s1-.85.59-1c1.28-.67,1.7-1.08.31-1.27,2.36-.62,2.88-1,.86-2.16,2.78.17,3-.4,1.55-2.9,2.45,1.72,3.19,1.51,3.94-1.19.46,1.89.9,1.26,1.61-.63.27,1.13.84,1,1.66.34.26.2.77-.17,1.27-.53a13.83,13.83,0,0,0,1.44-1.1,2.44,2.44,0,0,0,.82-1.2c1.89-.53,2.94-1.22,2.26-3.6,2.82,1.05,3.88.39,5-2,1.1,1.13,2.2.49,3.29-.11s2.21-1.2,3.33-1.8,2.28-1.15,2.28-1.7c2.27-.55,3.42-1.09,1.48-3.54,4.24,1.4,5.41.9,7.56-2.84.2,2.76,1.37,2.29,3.12,1.26a8.36,8.36,0,0,0,3.06-.77c1.2-.42,2.42-.84,3.45-1.29,1.4-.34,2.63-.71,2.63-2.51,2.46,1.08,3.72.74,5.23-1.5,1,1.58,2.24,1.27,3.65.81,1.12-.12,2.39-.4,3.67-.66a18,18,0,0,0,3.62-1,5.17,5.17,0,0,0,4-1.31c.7.38,1.37.53,1.47.4,1.27.14,1.94,0,1-.79,2.22.67,2.87.64,1.55-1,2.61,1.55,3.28,1.48,3.76-1.18.83,2.55,1.5,2.49,3.86.61-1,1.79-.36,1.75,1.76.9-.79.77-.12.73,1,.33a1.53,1.53,0,0,0,.63-.95,7.17,7.17,0,0,0,2,.77c1.21.19,2.21-.3,3.41-1.75ZM170.51,276.18c-.76-.38-1.06-.07-1.12.95-.49-.31-.77.07-1,.91-.3,0-.56.39-.61.88-.07.19,0,.44.5.52a3.89,3.89,0,0,0-1.41,2.35c0,.69.56,1.34,1.83,2.11-3.21.71-3.51,1.9-2.88,4.78-1-1.09-1.14-.48-.92.85-.32-.35-.29,0-.08.4a4.79,4.79,0,0,0-.53,2.39,1.57,1.57,0,0,0,1.08,1.43c-1.65,1.84-1.74,3-1.12,5.76-.73-.41-.74.69-.67,2.07a7.13,7.13,0,0,0,0,1.49c0,.61.06,1.21.22,1.31,0,1.09,0,1.69.67.53-.44,2.33-.33,2.92,1.3.83-1.42,3.24-1.3,3.83,2,2.21-3.06,2.77-2.91,3.34,1,4.26-3.59.21-3.41.77-.85,2.89-2.24-1-2.07-.42-.75,1.3-1-.71-.83-.25-.29.68-.22,0-.05.45.11.91a12.15,12.15,0,0,0,.51,1.32,3.45,3.45,0,0,0,.6,1c.23,1.33.58,2.25,2.12,1.62-.83,2.46-.48,3.37,2.3,3.68-2.09,1.51-1.75,2.45,0,3.91-1.13.39-.82,1.33-.44,2.31a2.94,2.94,0,0,0,.28.88,6.27,6.27,0,0,0,.51.88,5,5,0,0,0,1.43,1.4c.74.51,1.54.82,1.56-.08,1.86,1.24,3,1.27,4.4-1,1.19,1.9,2.69,1.54,4.63.7A11.56,11.56,0,0,0,187,334l2.61-.95c.9-.33,1.84-.66,1.53-.86,2.27-.5,3.29-.87,1.76-1.9,3.6.29,4.67-.1,7.34-2.62-.46,1.73.67,1.32,2.72.35a7.58,7.58,0,0,0,2.64-.72c1.2-.42,2.43-.86,3.53-1.29,1.36-.46,2.63-.92,1.24-1.44,3.91-.39,5.2-.86,7.41-4.51.38,2.74,1.68,2.25,4.17,1,.13.31,1.46-.17,2.77-.64l4-1.44c1.32-.48,2.66-1,2.44-1.3,2.87-.62,4.2-1.09,5.73-2.84,1.1.8,2.41.33,4.66-.71a10.14,10.14,0,0,0,2.93-.81l3.8-1.38c1.24-.44,2.47-.88,2.05-1.16,2.85-.6,4-1,1.67-3.19,4.69,1.31,5.84.9,9.3-2-1.22,2-.13,1.65,1.72.79-.23.27.32.07.85-.11l1.59-.58c1-.37,2.05-.74,1.27-1.22,2.71-.22,3.65-.55,1.9-2.7,2.32,1,3.47,1.22,4.44.24a2.16,2.16,0,0,0,.75-1.84c.69.85.88,1.48,1.19,1.76.6-.17,1.33-.69,1.84-.15.42-.89.58-.72.56.4.56-1.22.94-1.49,1.17-.14.3-1.93.35-2.37-.32-.53.12-2.49-.17-2.69-1.61-.69.67-2.4.19-2.6-2.2-1.45,1.49-1.45,1.12-1.55-.94-.88,1.35-.88,1-1-.67-.78.87-.46.47-.59-.58-.62.25-.22-.18-.36-.7-.49-.77-.27-1.69-.56-2.65-.85l-5.65-1.75a20.34,20.34,0,0,0-2.64-.7c-1.52-.56-2.61-.9-1.43.66-3.42-2.23-4.54-2.58-8.09.25,1.22-3.52.05-3.87-3.38-4.19,1-.39-.19-.74-1.41-1.11s-2.48-.73-2.73-.35c-2.28-1.12-3.54-1.48-5-.23-1-2-2.35-2.36-5.07-2.56.13-.53-1.18-.9-2.49-1.26l-3.29-.93c-1.94-.53-3.25-.89-1-.29-4.84-1.31-6.16-1.67-11.23-3,2.48.66,1.17.32-1.27-.32l-2.68-.69-3.79-1c-1.23-.31-2.48-.61-3.56-.84-1.34-.35-2.56-.64-2.07.42-2.83-1.61-4-1.87-6.16.22-.12-2.6-1.22-2.84-4.19-2.72.78-.58-.3-.79-1.47-1a12.59,12.59,0,0,0-1.39-.27,2.91,2.91,0,0,0-1,0c-1.63-.51-2.62-.67-1.72,1-2.81-2-3.73-2.08-4.92,1.11-.55-3.42-1.38-3.51-4.49-2.06,1.45-1.62.7-1.68-1.29-1.24.65-.44.09-.42-.72-.29a2.56,2.56,0,0,0-1,.17c-.32.13-.51.29-.51.49-1.2.17-1.62.54-1.31,1.36-1.09,0-1.43.38-1.4,1.45Zm237.23,46.29a3.65,3.65,0,0,0,.38-1.63c-.1-.37-.57-.46-1.63-.16,2.68-2.61,3-3.64-.31-6.25,3.83.52,4.12-.53,3.66-3.79,1,1.11,1.27,0,1.51-1.14s.5-2.14.72-3.26.43-2.24-.11-2.6c.89-1.87,1-3-1.34-3.52,2.65-1.71,2.75-2.82,1.09-5.33,1.79.28,1.84-.82,1.64-2.32a1.27,1.27,0,0,0,.12-.75,6.49,6.49,0,0,0-.11-.87c-.17-1-.3-1.78-.36-.88-.32-2.5-.53-3.34-1.19-1.65.17-3.44-.1-4.36-2.26-6.92,1.59.69,1.29-.27.17-2.77.59.87.37.22-.21-.73-.07.11-.5-.09-1.2.08a6.5,6.5,0,0,0,.06-2.5c-.26-1.39-1.2-2.22-3.38-3,2.35-1.33,1.9-2.54.64-4.32.24-.12.31-.41.31-.77s-.12-.79-.16-1.1c-.24-.91-.4-1.66.12-1.29-1-1.64-1.38-2.16-.51-.65-1.33-1.47-2.11-2-3-1.51a5.1,5.1,0,0,0-1.41,1.7,7.77,7.77,0,0,0-.84-2c-1.44-.06-2.46.24-2,.82-1.78-.34-2.61-.11-2.38.59-1.93-.2-2.82.06-5.22,1.33.28-.35.19-.46-.2-.39a4.46,4.46,0,0,0-1.19.42c-.9.22-1.17.27-.27,0-1.67.51-2.19.69-.6.16l-5,1.65-3.13,1-2.63.9c.49-.17.44-.15.11,0a12.51,12.51,0,0,0-1.34.49c-.81.24-1.38.43-1.2.53-1.35.3-1.95.52-1.65.73a15.84,15.84,0,0,0-2.61.67,13.45,13.45,0,0,0-2.3,1.11,4.73,4.73,0,0,0-.87,0c-1.17.36-1.88.63-.85.35-2.24.71-2.74.87-.83.19l-2.89,1-4.39,1.57-2.58.93c.22-.09.15,0,0,0-.58.21-1.23.45-.74.26l-.77.28-1.83.67-5.35,1.95c-.84.32-1.79.67-2.55.95l.06,0-.59.22c-2,.75-2.6,1-.52.18l-1.43.53-4.84,1.8c-.68.25-1.34.49-1.26.7-1.58.37-2.43.68-.81,1.36-1.82-.61-1.7-.65.26-.46-2.55,0-3.26.3-1.1,1.78-3.35-1-3.82-.86-2.58,2.16-1.52-1.75-2.29-2.24-3.19-1.41a7.09,7.09,0,0,0-1.42,2.23c-.05-1.29-.31-1.83-.46-1.94-.94,0-1.75.39-1.3,1.05-1.58-.24-1.87-.21-.53-.05-2.2.05-2.75.27-1.72,1.09a9.91,9.91,0,0,0-1.77,0c-1.1.16-1.65.35-.67.55-2.15.42-2.77.87-1.2,2.33-2.23-1.36-2.45-1.51-.32-.89-3-.47-3.67-.17-4.22,2.49-.45-2.3-.77-2.21-2.39.16.81-2.11.35-1.92-2-.08.92-1.31,0-1-1.67-.14-.07-.15-.91.16-1.74.48a23.63,23.63,0,0,0-2.37,1c-.81.27-1.49.55-1.62.39-.64.94-.73,1.44.43.88-1.86,1.15-2.47,1.23-2.39-.47-.57,2.34-.44,2.9,1,1.32-1.75,1.91-1.34,2.46,1.56,1.43-.83,1-1.13,1.49-.85,1.76s1.16.25,2.33-.18c-.61.68-.9.93-1,.93.5.36,1.21.5,1.41-.17.32,1,1.22,1.29,1,.31,1.66,1.41,2.13,1.56,2,.07,1.13,1.79,1.63,1.94,2.94.68a1.83,1.83,0,0,0,1,1.66,2,2,0,0,0,1.86.09c.66.63.81.84-.05.63,1.59.58,2.18.74.66.25,2.62.82,3.15,1,1.19.4l4.22,1.27,2,.6c.86.24,2,.57,1.69.51,1.48.42,1.58.46,0,0l1,.29,3.06.88c.55.18.72.22.61.16.73.24,1.2.37.93,0,1.67.75,2.62,1,2.57-.56,1,1.88,1,1.88-.27,0,2.17,2.08,3,2.32,5.51.66-1.17,2-.73,2.17,2.31,1.44-1,.52-1.27.82-1,1A2.17,2.17,0,0,0,341,312c.3.59.49.8-.08.54,1.42.67,2.09.86.65-.1,3.44,1.52,4.8,1.9,8.31.15a3.58,3.58,0,0,0-.2,1.84c.3.48.71.77.44.74,1.51.49,2.35.65.84-.11,2.36,1,2.6,1.17.11.51,3.42,1,4.08,1.17,2.09.65l9.31,2.49c-.64-.17-.62-.17-.26-.08s1,.25,1.28.32c1.07.28,1.7.44.5.14,2.51.64,3.15.81.49.14l2.95.74,2.29.57c.85.22,1.63.4.95.25,2.5.6,3.53.86,1.53.42,2,.44,1.65.34-.87-.25,3.22.78,4.25,1,5.69,1.37l2,.42c-.62-.13-.77-.16-.3,0a20.11,20.11,0,0,0,2.52.46c0,.11-.27.06-.43,0,.78.22,1.63.41,1,0,1.74.67,2,.73.36-.08,2.48,1,3,1.09,1.33-.2,3.32,1.63,4.35,1.84,7.82,1.36-1.43.87-.47,1,2.16,1.25-.74.12.15.25,1.17.4.75.13,1.6.24,1,0,2.58.51,3.67.53,1.34-1.61,4.32,2,5.26,1.86,7.5-2.31-.57,3.69.17,3.4,2.79,1.23-1.32,1.47-.78,1.08.47,0-.23.13.17-.47,0-.62ZM286.33,284.31c.53.92.52.52.3-.51.21.18.22-.28.16-.68s.07-1-.34-.74c.43-1.15.43-1.62-.62-.8,1.09-2.23,1.1-3.18-1.75-3.22,2.88-1.95,2.89-3,.67-5.43,2.26.36,2.27-.72,1.88-2.53.42.15.43-.41.4-1a7,7,0,0,0-.06-1.29c.12-1.62.16-2.81-1.07-2,1.27-3.25,1.28-4.48-.86-7.24,2.15.28,2.17-1,1.82-3.45.36.55.38-.08.32-.92a12.57,12.57,0,0,0,.06-1.6c0-1.45,0-2.76-.82-2,.89-3.41.9-4.74-1.12-7.61,2,.21,2-1.13,1.76-3.65.29.51.29-.15.26-.89a2.23,2.23,0,0,0-.11-.87c.17-2.41.17-3.75-1.37-2.11,1.55-4.29,1.55-5.63.58-9.89,1,1.62,1,.3.89-1.51a3.77,3.77,0,0,0,0-1.2c-.07-.41-.22-.6-.47-.31.5-3.12.5-4.38-2.58-4.46,3.06-2.41,3.06-3.63,2.09-7.25.93,1.2.91,0,.83-1.42a8.38,8.38,0,0,0,0-1.51,11.7,11.7,0,0,0-.12-1.43c.08-1.59.05-2.73-1-1.79,1-3.16,1-4.23-1.57-5.8,2.47-.51,2.44-1.51,1.48-4.31.88.87.84,0,.65-1.38a8.41,8.41,0,0,0,0-2c-.07-1.19-.26-2.23-.65-2.37-.21-1.75-.58-2.58-2-1.5.52-2.53,0-3.16-2.59-2.91,1.36-1.32.69-1.76-1.12-2.14.62-.24.14-.46-.64-.67a4.33,4.33,0,0,0-1.22-.42c-1.08-.27-2.13-.42-1.8.38-2.45-.92-3.48-.92-3.69,1.58-1.73-2.38-2.65-2.28-4.78-.34.84-1.73.34-1.66-1.43-.56.75-1,.26-.9-.94-.41.18-.35-.34-.31-.9-.18a4.68,4.68,0,0,0-1.17.21c-1.29,0-2.3.07-2.13,1.35-2.2-1.09-3.21-1-4.16,1.3-1.05-2.1-2.05-2-3.94-.7-.1-1-1.08-.87-2.15-.63a15.69,15.69,0,0,0-1.66.28l-1.73.42c-1.14.31-2.28.66-1.62,1.7-2.54-.34-3.28,0-2.29,2.46-2.5-1.79-3.24-1.41-4.1,1.46-.6-2.08-1.32-1.67-2.6-.13-.17-.68-.9-.24-1.61.23-.47.3-.92.62-1.26.86s-.51.44-.42.48c-2,1.2-2.95,1.86-.65,1.84-4.14,1.35-5,2-7.16,5.77.31-2.45-.58-1.79-2.64,0,.71-.88.26-.57-.48,0,0-.2-.26-.13-.35-.27-.7.7-1.19,1.2-.12.61-1.51.79-1.45.47-.37-.91-1.6,2-2.19,3,.66,2.81-3.47,1.15-3.52,1.09-.08-.18-3.6,1.67-3.86,2.34-.95,5-3.3-1.34-3.5-.67-2.55,2.55-1.29-1.54-1.5-.53-1.71,1.16.25-1.39.42-1.65.76-.43-.15-.63-.09.21,0,1.35.27.08.66,1.34,1.25,2.71s1.35,2.84,2,3.18c.74,1.87,1.19,2.53,1.68.78.46,3.16,1,3.9,3.91,3.66-1.87,1.76-1.28,2.55,1.18,4.33-1.26-.17-.62.67.29,1.75a4,4,0,0,0,.65,1c.26.31.46.51.5.48,1.31,1.87,2,2.79,1.88,1.27a15.9,15.9,0,0,0,5.36,6.79c-1.38-.53-.59.44.8,2-.18-.1.23.39.63.78s.66.58.9.56c1.2,2.07,2.06,3.09,3.89,2.74-.1,2.39.78,3.42,3,5.1-.45.39.44,1.44,1.33,2.47s1.78,2.08,2.6,1.28c1,2.89,1.89,3.92,5.5,3.15-1.8,2.85-.9,3.88,1.39,5.3-.51.62.39,1.65,1.28,2.66s1.77,2,1.86,1.7c1.67,2.29,2.53,3.26,3.37,1,.89,4.24,1.72,5.19,5.06,7.59-1.67-.54-.84.38.33,1.58a4.83,4.83,0,0,0,.88,1,2.82,2.82,0,0,0,1.07.71c1,1.65,1.78,2.53,3.31,1.21,0,3,.76,3.85,3.71,4.24-1.88.8-1.54,1.18.5,1.69-1.43.1-1.18.31.2.62-.72.42-.32.94.31,1.22-.08,0,.05-.18.33-.87a3.19,3.19,0,0,0,.56,1.64,2.28,2.28,0,0,0,.77.89c.52.32,1.13.09,2-.7-.31,1.38-.37,2.18-.51,2.57,1,.66,1.9.91.81.91,1.57.35,1.13.43-.46.54,1.89.17,2.6.38.85,1.29,2.15-.82,1.82-.93-.51-.84,2.56-.17,3.11-.17.73.23,2.68-.53,2.44-.71-.42-1.2,3,.15,3.41,0,1.07-1.68,2.55,1.26,2.39,1.05-.09-.87,2.53,1.37,2.76,1,1.57-1.71,1.32,2.12,1.2,1.82,0-.41,1.11,1.5,1.17,1.08.65-.69Zm4.46-95.17c-.12.75-.22,1.58-.32,2.45a8.93,8.93,0,0,0-.1,2.11c-.25,1.57-.32,2.57.64,1.52-1.11,3.11-1.17,4.17,1,5.92-2.34.46-2.4,1.59-1.91,4.63-.58-.72-.63.49-.65,1.76,0,.58-.05,1.19-.07,1.79s0,1.26.09.91c-.17,2.2-.2,3.42.92,1.59-1.16,4.31-1.18,5.56,0,9.94-1.2-1.83-1.21-.55-1.1,1.77a2.13,2.13,0,0,0-.05.78c-.07.82-.07,1.47.24.68-.31,2.77-.31,4.08,2.11,3.16-2.41,3.59-2.41,4.93-1.51,8.85-.45-.63-.66-.6-.76-.24a7.63,7.63,0,0,0-.05,1.76c0,.66,0,1.29.12,1-.12,1.62-.12,2.3.34.86-.43,3.44-.41,4.77,1.31,7.23-1.68.17-1.66,1.49-1.33,4.32-.13-.1-.2.16-.23.62s0,1.09,0,1.69c0,1.33.06,2.6.61,1.82-.49,3.28-.47,4.52,1.65,6.13-2.05.82-2,2-1.45,5-.26-.34-.36-.22-.42.13a9.21,9.21,0,0,0,0,1.5c0,.57,0,1.12,0,.72,0,1.48.05,2,0,.4.11,3.22.14,4.26,0,1.5.16,4.78.2,5.76.37,10.7-.12-3-.07-2.13,0,.88-.06-1.65,0-1.17,0,.3,0-.64,0-.27.09.34a3,3,0,0,0,.05,1c.08.22.27.18.45-.33a3.59,3.59,0,0,1-.16,1.45,5.77,5.77,0,0,1,0,1.09,2.16,2.16,0,0,0,.64,1.19c.71.07,1.46,0,1.08.51.82-.27.41.12-.24.65.15,0,.08.24,0,.46.26,0,.53,0,.55.24.83-.42,1.37-.65.89.18.5-.73.27-.88-.63-.48,1.11-1,1.28-1.15.05-.28,1.69-1.36,2-1.65.1-.49,2.25-1.73,2.4-2-.19-1,3-1.63,3.28-2,.18-2,2.6-.65,3.7-1.19,4.34-2.67a5.49,5.49,0,0,0,.39-2.84c.62,1,.9,1.45,1.12,1.44.53-.34,1-1.13.16-.88,1.46-1.09,1.65-1.14.41.29,1.74-1.91,2.05-2.36.17-.39,2.89-3.27,3.55-4.16,5.17-8.36-.24,2.39.47,1.44,2.57-1.59-.65,1.11.07.13.84-.88.37-.5.74-1,1.13-1.49l.54-.74c1.38-1.85,2.17-2.9,1-1.29,2.1-2.81,3.06-4.12,4.57-6.16a6.4,6.4,0,0,0,1.08-1.72c.11.11,0,.22,0,.23.51-.58,1-1.26,0-.7,1.83-1.66,2.16-2.11-.25-.76,3.13-2.35,3.53-2.9-.48-3,3.95-1.21,5.38-2.14,6.59-4.29a14.63,14.63,0,0,0,1.15-2.53c0,.88.21,1.07.49.88s.74-.8.64-1c.92-1,1.33-1.54.4-1.28,1.74-1.38,2.14-2,.79-2.31a7.42,7.42,0,0,0,3.38-3,9.89,9.89,0,0,0,.95-2.26.66.66,0,0,0,.66.06c.79-.72,1.18-1.3.21-.95,1.76-1.47,2.13-2,.12-1.68,2.78-1.41,3.16-2,1.31-3.72A5.39,5.39,0,0,0,335,232c.59-.24,1-.65.72-.84,1.1-1,1.44-1.73-.09-2.42,2.07.09,2.33,0,.38.06,2.58-.67,2.93-1.2.83-2.64a6.2,6.2,0,0,0,2.42-.47,2.43,2.43,0,0,0,1.24-1.22c.36-.67.58-1.43-.43-1.54,1.58-.41,1.93-.43.84.73,1.77-1.69,2.1-2.21-.05-.67,2.78-2.51,3.07-3-.29-1.87,4-2,4.26-2.48,2.67-6.23,2.47,2.35,3,1.45,4.45-1.94-.35,1.65.17.8.84-.45a8.77,8.77,0,0,0,.53-.84,2.24,2.24,0,0,0,.38-.76c.46-.72.66-1.09.13-.55.93-1.26,1.13-1.62,0-.57,2-2.88,2.46-4.27.6-7.23,2.14.39,2-.78,1.24-3.07.05.07-.05-.12-.24-.45a11.22,11.22,0,0,0-.68-1.05c-.75-1-1.48-1.73-.94-.22-2-2.75-2.84-3.26-3.75.45-.75-4.59-1.68-5.12-6.12-5.1,1.31-.57,1.74-1,1.57-1.4a2.12,2.12,0,0,0-1.86-.75c0-.59-.12-.82-.17-.28-.54-1.08-1-1.38-1.29-.18-1.05-2.11-1.95-2.71-4.18-1.62.42-2.27-.5-2.83-2.67-3.13a.86.86,0,0,0-.23-1c-.39-.36-.88-.63-.7-.35-1.12-.76-1.59-1-.81,0-1.76-1.44-2.26-1.65-1.32.17-1.93-2.21-2.44-2.41-2.81,0-.66-2.74-1.17-2.89-3.72-1.39,1.06-1.93.11-2.17-2.57-2.17.74-.39-.24-.56-1.34-.68-.89-.13-1.89-.23-2.9-.29s-2-.1-3.09-.1a19.31,19.31,0,0,0-3.06.16c-1.33,0-2.47,0-2.23,1.6-2.61-1.39-3.82-1.25-5.59,1.39-.48-2.37-1.45-2.28-3.34-1.15.05-.91-.84-.76-1.67-.47a4.08,4.08,0,0,0-1.1.47,2.33,2.33,0,0,0-.8.71,2.21,2.21,0,0,0-1.12,2.8c-1.33.67-1.69,2-1.91,3.74Zm1.29,124.71c-1.58-.45-1.56-.09-.43,1.17-1.11-.44-1.12,0-.54,1.07-.6.25-.63,1.19-.65,2.16s0,1.93-.07,2.93,0,2.08,0,3.15-.06,2.24.8,2c-.9,2.57-.93,3.75,1.7,4.7-2.67,1.47-2.69,2.7-1.73,5.52-1-.29-1,1-1.05,2.29,0,.66,0,1.31,0,2s0,1.33,0,1.88c-.05,1.46-.08,2.81,1,2.16-1.07,3.38-1.08,4.76.93,7.82-2-.27-2,1.12-1.83,3.42a11.11,11.11,0,0,0-.27,3.31c0,1.42,0,2.84.43,2.7-.46,3-.48,4.36,2.69,4.75-3.17,2.43-3.17,3.82-2.41,7.3-.76-.7-.76.67-.76,2s0,2.74,0,4.07,0,2.68.11,3.62c-.06,1.68,0,3,1,2-1,3.48-1,4.73,1,7.69-1.9-.51-1.89.67-1.48,3.13-.34-.12-.31,1-.27,2.11s.08,2.17.4,2.23c-.22,2-.19,3,1.29,1.91-1.38,3-1.33,3.91,1.28,5.46-2.48.2-2.43,1-1.17,3.6-.53-.11-.63.15-.48.58s.55,1,.66.81c1.29,1.87,2.5,2.75,4.53.62.22,2.32.81,3.32,2,3.62a2,2,0,0,0,1.76-.24c0,.74-.14,1-.49,1,.64.28,1.07.27.44-.25.05.61.34.61.07,0,1.32.6,2.09.58.71-.71,3.06,1.25,3.91,1.23,3.45-2.28,2.35,3.45,3.37,3.41,7,1.25-1.4,2.06-.25,2,1.82,1.6a6.81,6.81,0,0,0,2.82.07c1.27-.11,2.53-.21,3.37-.38,1.69-.09,2.94-.24,2.5-1.12,2.89.55,4.08.38,6.14-1.3.21,1.28,1.29,1.05,3.25.29,0,.27.95,0,1.33-.24,1-.25,1.53-.46.32-.64,2.29-.26,2.83-.5.35-1.2,3.49.23,4,0,1.22-2.42,3.77,1.86,4.25,1.58,3.67-2.57,1.57,3.59,2.05,3.32,3.48-.19-.46,2.91,0,2.57,1.48.32-.56,1.64-.08,1.35.95.28-.12.46.32.12.78-.22s.88-.67.62-.73c1.14-.63,1.57-1,0-.72,2.84-1.31,3.7-2,.47-4.17,4.94.67,5.79-.08,7.24-4.41.12,1.42.41,1.94.84,1.91s1-.65,1.58-1.37c.27,0,.58-.18.5,0,.82-.73,1.27-1.1.49-.09,2.42-2.36,3.32-3.3,2-1a36.55,36.55,0,0,0,2.6-4.6,4.17,4.17,0,0,1,.83-1.51c.21-1.36.46-2.26,1.66-1.19-1.41-.85-1.7-.4-1.82.79-.31-1.7-.41-2.64-.72-.93-.08-2.67-.34-2.7-1.68-.17.7-3.08.33-3.62-2.81-2.5,2.47-2,2.22-2.35-1.05-2.43,2.75-.6,2.47-1-.2-1.87,2.13.19,1.83-.18,0-1.09,1.28.37,1,.21-.2-.17.6-.41.25-1-.21-1.37a1.36,1.36,0,0,0-1.6.09c0-2.49-.7-3.36-3.15-4.24,1-.93.24-1.86-1-3a16,16,0,0,0-2-2.7c-.79-.95-1.58-1.9-2.38-2.89s-1.65-2-2.49-2.78c-.83-1.17-1.69-2.21-3.51-1.7.08-2.57-.78-3.59-3.18-4.36.63-1.33-.27-2.38-1.17-3.42s-1.8-2.13-2.7-3.2-1.82-2.14-1.92-.81c-1.72-3.47-2.64-4.53-6.92-5.28,1.22-.7,1.61-1.31,1.53-1.82-.27-.82-1-1.54-1.21-.54-.7-2-.89-2.4-.17-.3-1.36-3-1.81-3.48-2.23-.69-.91-4.36-1.83-5.4-5.11-7.89.75.22.91.07.75-.28a8.12,8.12,0,0,0-1.14-1.45c-.36-.44-.76-.91-.71-.52-.88-1.36-1.31-1.85-.81-.08-1.76-3.24-2.62-4.2-6.46-2.59,2.2-3.51,1.38-4.45-1.63-6.61.71.18.88,0,.75-.27a3.54,3.54,0,0,0-.89-1.06c-.4-.55-.75-1-.86-.48-.61-1.31-1-1.73-1.15-.33-.89-2.63-1.59-3.43-4.08-2.34.77-1.75.73-2.67-.19-3.39a6.32,6.32,0,0,0-2-.91c.72-.3.94-.56.94-.63-.24-.63-.7-1-1-.39-.27-1.47-.82-2.09-1-.5a11.55,11.55,0,0,0-1.46-2.65,4.2,4.2,0,0,0-1.5-1.21c-.9-.11-1.75-.08-1.2-.39-.86-.12-.62-.39.14-.77-1.2.44-1.85.75-.72.51-1.6.89-1.41,1.22.6,1.62-1.92.66-2,1.36-.49,3ZM285,411.11c1.78-2.45,1.85-3.27-.69-4.54,2.69-.47,2.75-1.38,1.73-4.21,1.16.93,1.2-.07,1.13-1.64.17,0,.2-.49.21-1s.05-1.06.07-1.59c.05-1.12.1-2.26-.37-1.7.55-2.87.58-4.06-1.48-4.41,2.12-2.08,2.15-3.33,1.54-6.71.66.84.68-.44.68-1.86,0-1.2,0-2.52.05-3.87s0-2.69,0-3.94c0-1.47,0-2.85-.5-1.52.52-4.11.52-5.5-1-9.72,1.54,1.42,1.53,0,1.38-2.66a13.27,13.27,0,0,0,.11-2.94c0-1.4,0-2.8-.23-2.84.18-2.75.15-4.14-1.42-4.11,1.54-2.78,1.51-4.15,1-7.6.44.74.43-.61.41-2,0-.64,0-1.3,0-1.93s0-1.21-.05-1.75c0-1.51,0-2.78-.46-1.72.36-3.54.35-4.76-1-7.23,1.33.09,1.29-1.08,1-4,.27.67.23-.44.21-1.56s0-2-.08-3-.06-2-.07-2.73c0-1.2-.06-2.1,0-1.16-.13-2.66-.17-3.46.08-1.65a6.85,6.85,0,0,1,.11-3c-.55-1-.7-1.68.14-2.39-1.26-.71-1.54-1.44-.76-2.94-.95,1.43-1,1.83.37,1.47-2.15.43-2.95.1-1.9-2.65-1.69,3.11-1.54,3.81,1.5,4.81-3.7.29-4.54.9-5.35,5.27.15-3.42.35-3.19,1.28,0-1.07-2.52-1.44-2.12-1.83.6-.09-2-.23-1.71-.5.19-.14-1.21-.41-.84-.78.23a1.84,1.84,0,0,0-.75.63c-.27.33-.56.74-.81,1.13-.59.82-1.15,1.64-.2,1.44-2.11,1.86-2.7,2.71,0,3.59-3.93.88-4.56,1.78-5,5.71-.81-2.08-1.46-1.14-2.43.71,0-.41-.38.08-.71.58s-.6.88-.88,1.3c-.86,1.15-1.56,2.15-.31,2.15-2.67,2-3.39,3.08-2.77,6.34-2.08-1.17-2.82-.11-3.94,2.29,0-.81-.37-.28-.86.55a11.84,11.84,0,0,0-1,1.31c-.75,1.06-1.51,2.14-.58,2.45-2.45,1.86-3.2,3-2.14,5.93-2.59-.81-3.36.28-4.37,2.73-.51-.28-1.29.8-2,1.88s-1.52,2.14-.94,2.44c-2.08,1.84-2.85,2.91-1.21,5.08-3.13-.07-3.87,1-4.83,3.85-.14-1.34-.5-.82-1.09.48-.12-.31-.46.18-.79.69a4.38,4.38,0,0,0-.88,1.45c-.1.44.07.81.8,1.06-2.84,1.46-3.52,2.41-2.07,5.49-2.81-1.2-3.48-.28-4.15,2.35-.32-1.24-.66-.78-1.08.34-.19-.27-.44.13-.66.52a4.61,4.61,0,0,0-.92,1.34c-.08.32.15.48.91.34-2.77,1.94-3.37,2.76-.9,4.94-3.63-.63-4.18.11-4.84,3.71-.16-2.53-.42-2.19-1.12.25.23-1.78,0-1.48-.62.15.05-.91-.25-.45-.5.32.11-.12.25.07.73.35-.82.56-1.31,1.19-1.3,1.72s.57,1,1.71,1.39c-2.5.7-2.48,1.47-.79,3.37-1.51-.67-1.41-.18-.44,1.16-.73-.54-.65-.25-.11.49-.12,0,.21.45.41.61s0-.21-.05-.61c.6.72,1.22,1.36,1.57,1.36s.42-.67.27-2.16A10.28,10.28,0,0,0,229,402.9c.86,1.06,1.81.67,3.92-1-2,3.34-1.39,3.75,2.49,4.11-2.84.38-2.41.69.23,1.46-1.74-.15-1.31.16.15.78-.57,0-.12.35.43.54a1.24,1.24,0,0,0,1.21-.24c.94,2,1.84,2.57,4,1.71-.32,2,.61,2.61,2.52,2.9-.5.51,0,.77.75,1a2.66,2.66,0,0,0,1.09.7c1,.49,2,.88,1.59-.12,2.12,1.57,2.81,1.77,2.18-.8,2,2.92,2.74,3.07,4.9.29-.74,3,0,3.17,3,2.08-1.75,1.25-1.21,1.31.86.93-1,.5-.43.54.64.47,0,.15.62.19,1,.09s.58-.37.39-.91c2.62,1.17,3.76,1.21,4.56-1.79,1.47,3.06,2.59,3.07,5.42,1.72-1.12,1.41-.56,1.44,1.08.89-.5.59,0,.61.86.54a2.61,2.61,0,0,0,1.12.14c.27,0,.21-.13-.46-.38,3.2.69,4.06.69,1.19-1.76,4.7,2.22,5.67,2,8.56-2.18-1,3.4-.1,2.86,2,.91-.89.88-.5.48.18-.28,0-.11.32-.58.58-1.05.65-1.28,1-2.6-.47-2.5ZM204.32,215.2c-2.5,1-3.33,1.77-2.31,4.31-2.72-1-3.58-.25-4.8,2.29-.57-1-1.45-.29-2.41.58-.43.32-.85.67-.82.8-.89.61-1.34,1-.37.77-2,1.2-2.68,1.79-.7,2.27-3.23.73-3.84,1.34-3.66,4.46-.69-.94-1.15-1.24-1.6-1a2.11,2.11,0,0,0-.82,1.9c-.59-.2-.7-.35-.4-.62-.71.6-1,1.05,0,.7-1.54,1.17-1.78,1.52.06.75-2.36,1.6-2.63,2.08.17,2-3.59,1.52-4.07,2.52-3.52,6.33-1.45-1.78-1.86-.74-2.32,1.33-.35,0-.73,1.09-1.08,2.16s-.71,2.15-1,3.23-.69,2.16-.23,2.27c-1.13,2.06-1.49,3.13.64,3.37-2.86,1.91-3.21,3-2.67,6.36-1.15-1.8-1.28-1.17-1.05,1.17-.26-.94-.19-.16.06,1a11,11,0,0,0,1,2.18,5.36,5.36,0,0,0,1.33,1.73c1.35,1.52,2.31,2.26,2.73-.06,1.89,3.62,3.23,4.18,7.29,4-1.7.81-.87,1.05.9,1.27,0,.14.24.27.59.39s.84.27,1.31.39c.94.25,1.91.53,1.55.13,2.37.95,3.43,1.23,2.81-.4,2.76,2.21,3.87,2.5,7.62,2.47-1.47.65-.3,1,1.72,1.37a17.44,17.44,0,0,0,2.8.88l3.56,1,3.63,1c1.24.34,2.49.67,2.06-.67,2.93,2,4.2,2.34,7-.72-.32,3.74,1,4.07,4.12,4-.6.7.69,1,2,1.38s2.56.68,3.43.85c1.68.5,3,.83,2.73.15a13.62,13.62,0,0,0,7.06,1.74c-.47.6.78.93,2.73,1.35a10.26,10.26,0,0,0,1.24.41,5.76,5.76,0,0,0,1.36.28c1.58.5,2.78.81,1.72-.89,3.43,2.33,4.6,2.64,8.23-.1-1.36,3.34-.22,3.63,3.06,3.72-1.09.48,0,.76,1.06,1s2,.55,3,.8l5.57,1.45a12.08,12.08,0,0,0,2.2.48,9.17,9.17,0,0,0,1.48.41c.28,0,.23-.18-.27-.6,1.11.47,1.93.81,2.15,1.46,1.13-.37,1.64-.43,1.37.43,1.11-1.5,1.42-2.08.46-.84,1.52-.91,1.74-.39,1.72,1.28.56-1.95.85-2.74,1.73-1.64-1-1.7-1.33-1.49-2.59.6.52-2.64.17-3.4-2.95-4.18,2.42,0,2.19,0-.54.15,1.12-.27,1.58-.49,1.5-.71s-.76-.48-1.81-.47a5,5,0,0,1,1.2-.42.65.65,0,0,0-1.13-.14c.71-.79.4-1.15.16-.44-.7-1.58-.86-1.87-.1-.39-1.23-2.15-1.57-2.53-.9-.51-1.66-3.18-2.35-4-5.33-5.35,1.56-.31.81-1.16-1.21-3.11.26.08.19-.11-.05-.44s-.62-.78-1-1.25c-.76-.89-1.54-1.81-2-.84-1.08-2.83-1.89-3.78-5.16-2.6,1.62-3.1.79-4.08-1.93-5.69,1-.37.17-1.37-.69-2.39s-1.74-2-1.83-2.15c-1.66-1.93-2.53-3-.87-1l-7.52-8.82c1.4,1.63.51.59-.7-.83-.29-.35-.66-.77-1-1.12-.5-.6-.93-1.13-.93-.75-1.33-1.95-2.22-3-3.59-2.55-.39-2.51-1.26-3.53-3.55-5.34.27-.12.22-.43,0-.84a8.73,8.73,0,0,0-1.09-1.32c-.45-.6-.86-1.1-1.05-.58-.64-1.5-1.05-2-1.5-.47-.79-3-1.6-3.94-4.8-4,1.59-1.84.82-2.77-1.1-4.12.2-.23.1-.57-.13-1a6.9,6.9,0,0,0-.94-1.2c-.75-.95-1.46-1.79-1.85-.9-1-2.55-1.67-3.35-3.83-2,.87-2.92.25-3.67-2.7-4.74,1.76-.37,1.2-1.06-.27-2.21.37-.17-.13-.8-.46-1.27-.55-.62-1-1.05-.48-.73-1.47-1.12-2-1.47-.67-.39-2.89-2-4-2.46-6.72-1.41.21-.81,0-1.26-.58-1.49a9.74,9.74,0,0,0-3.06-.22c.76-.09-.24,0-.71.14-.87.25-1.2.39-.34.31-1.45.4-1.74.6-.24.6Zm195.52,39.34c.89.66,1-.15.75-1.23a1.46,1.46,0,0,0-.81-.73,5.5,5.5,0,0,0-2.22-.28c2.36-1.46,2.36-2.1,0-3.48,2,0,3-.39,3.52-1.65a4.8,4.8,0,0,0,.15-2.53c0,1.24-.34,1.93-.84,2.17a2.37,2.37,0,0,1-2-.39c.2.48-.2,0-.48-.66s-.33-1.66-.83-1.21c.15-1-.11-.87-.71-.08.16-1.27,0-1.87-1.3-.82.88-2.19.69-2.74-1.66-1.66,1.95-2.2,1.76-2.77-1.25-2.75,2.49-1.54,2.15-2.47.2-4.07,1.24-.28.89-1.2.48-2.12-.17-.45-.37-.9-.56-1.34s-.41-.91-.52-.78c-.51-1.45-1-2.32-1.66-1-.25-3-.74-3.82-3.61-3.38,1.79-2.06,1.23-2.84-1.27-4.29,1.57.3,1.26-.08-.12-1,.81.3.62.11-.18-.27.08-.35-.42-.91-.74-1.06s-.44.06-.34.88a12.43,12.43,0,0,0-1.58-2.31c-1-1.09-2.07-1.4-4.23-1.41,1.58-1.29.73-1.93-1.82-3.22.82,0-.08-.57-1-1.19a7.91,7.91,0,0,1-1-.73c-.79-.44-1.23-.74-.5-.57-1.66-.74-2.12-1-.44-.72-2.58-.89-3-1.18-.85-1.35-3.34-.55-4.13-1-5.68-3.76-.21,1.86-1.16,1.47-3.76.08.27.43.14.62-.23.71a11,11,0,0,1-1.64.09c-.49.1-1,.23-1,.57-1.13.06-1.73.32-1.1,1.32-1.83-.32-2.44.09-2.1,2-1.57-.88-2.2-.27-2.69,1.42-.36-.7-.64-.39-.9.41-.25-.18-.52.14-.8.53a11.56,11.56,0,0,0-.8.94,6.17,6.17,0,0,0-.58.85c-.92,1-1.53,1.76.05,1.35-2.85,2-3.49,2.83-.46,5.13-4-1-4.36-.55-3.6,3.52-1.4-3.24-1.7-2.87-2.3.63-.1-2.58-.48-2.06-1.33.11.37-1.68.27-1.71-.38-.18.11-.81-.33,0-.7.45-.1-.09-.12-.44-.48-.59a3.62,3.62,0,0,1-.81,2.06,4.34,4.34,0,0,1-2.13,1.24c1.34.28,1,.81-1.29,2.79,1.78-1.37,1.7-1.24-.07.18,1.32-.81.82-.11-.46,1.41.42-.35.09.11-.37.72-.12.22-.39.57-.65.95-.39.53-.78,1.06-2.7,3.73,1.16-1.6.78-1.07-.74,1,.73-1,.31-.42-.42.6.19-.26,0-.06-.12.19-.31.44-.81,1.13-1.25,1.76-.89,1.24-1.58,2.21-2.58,3.64.31-.44-.07.13-1.48,2.11l-.72,1a6.26,6.26,0,0,0-.52.81c0,.18.07.2.51,0a15.69,15.69,0,0,0-1.59,1.89c-1.43,2-1.89,3.62-2,7.67-1.07-3.71-1.46-3.15-3.27.82,1.07-2.85.72-2.34-.59.12.52-1.33.1-.74-.28.3.2-.1.45.24,1.26.67a6.16,6.16,0,0,0-2.42,1.51c-1.17,1.22-1.4,2.6-1.09,5.29-2-1.84-2.68-.77-3.68,1.35-.46,0-1.17,1.05-1.88,2.08s-1.38,2-.71,2.34c-2,1.68-2.67,2.64-.06,4.13-3.89.41-4.52,1.33-4.42,4.88-1-2.19-1.33-1.72-1.5.52-.21-1.49-.28-1.18-.15.21a.78.78,0,0,0-1.29.59c0,.32.39.59,1.53.72a9.46,9.46,0,0,0-2.43,1.27c-1,.86-.88,1.9.21,4-2.58-1.78-2.92-1.18-2.83,1.82-.61-2.26-.78-2.13-.86.11-.12-1.34-.18-.59-.09.65.13-.8.41-1.13,1.17-.38-.34-.28-.19.5.37.88.5.14,1.39-.12,2.81-.77-.38.64-.25.91.2.94a7.13,7.13,0,0,0,2.07-.41L306,292l1.32-.41c.48-.14.92-.27.73-.37,1.09-.16,1.55-.31.52-.47,1.95-.12,2.42-.27.66-.73,2.72.18,3.2,0,1.25-1.25,2.92,1,3.44.83,2.76-1.62,1.36,2.17,1.54,2,1.08-.67,1.51,2.37,2.36,2.18,4.45.32-1,1.33-.8,1,.06-.7-.05,1.42.55,1.51,1.61,1-.07.21.35-.2.89-.94,0,1.15.52,1,2.45-.32-.81,1-.2.76,1.29,0-.92.62-.92.62-.21,0-.12.43.79.14,1.74-.2.52-.13,1.1-.32,1.59-.47l1.27-.4c.6-.2,1.2-.39,4.8-1.67-2.75.92-2.51.75.27-.75-1.56,1.11-.58.89,1.09,0-.83.09-1-.5-1.13-2.11a3.19,3.19,0,0,0,2.72,1.24c1.88,0,3.21-.65,5.47-2.18-1.52,1.67-.9,1.46,1,.35-.95.74-.63.58.27-.08.37.23,1.3,0,1.81-.37s.55-.74,0-1.34c3.58.33,4.84-.1,8.09-1.9-1.34,1.14-.71.92,1,.07-.69.46-.28.3.46-.14a4.63,4.63,0,0,0,1.79-.56c.41-.28.37-.53-.31-.84,3.24-.07,3.85-.29,4.71-2.28.37,1.55,1,1.32,3.68-.46-1.46,1.33-.84,1.1,1.21,0-1,.7-.66.55.49,0,.05.14.86-.18,1.59-.45s1.34-.52,2-.77l4.06-1.59c-.19.08.37-.14,1.17-.5a4.06,4.06,0,0,0,.66-.48,5.35,5.35,0,0,0,2-.79c.33-.32.25-.7-.48-1.25,3.54.21,4.56-.24,6.33-3.18-.24,2.28.27,2.05,2.17.1-.89,1.5-.41,1.27,1.07.12-.5.71,0,.48.72-.08a3.67,3.67,0,0,0,0-.6,3.74,3.74,0,0,0,2.19-.58c.45-.36.56-.91.36-1.8,1.68,1.12,2.11.89,2.2-1.11.73,1.55,1.12,1.33,1.85-.53.07,1.43.45,1.21,1.26-.24-.3.95-.19.66,0-.5.32.86.73.83,1.13.19-.2.37-.37.12-.73-.63.63.56,1.08.6,1.3.31,0,0-.21-.31-.75-.91.87.32,1.41.38,1.64.17s.12-.67-.27-1.45c1.31.77,1.49.32.3-.4,1.21.71,1.5.44,1.2-.71.56,1.23.52,1.59-.5.65,1.06.6,1.1-.11.67-1.07,0,.42-.48.6-1.67.69,1.28-.32,1.86-.7,2-1,.39.68.36,1.46-.59,1.19Zm-24.39,129c-.63.2-.22-.2.26-.63.29-.31.65-.67.91-1,1.21-.93,2.1-1.69-.2-1.65,4.1-1.54,5-2.26,2.68-7,4.13,3.27,5,2.53,7.21-1-.4,2,.47,1.23,1.46.29a12.6,12.6,0,0,0,1.07-1c.36-.38.65-.7.86-1,.8-.74,1.19-1.16-.13-.56,1.92-1.52,2.14-2-.63-1.48,3.5-1.41,4-1.82-.25-2.07,4.91-.81,5.09-1.44,2-5.15,3.71,2.77,4.12,2.46,3.44-1.92,1.31,3.59,1.56,3.11,1.85-.31.07,2.56.24,2.19.44-.09-.17,1.61-.28,1.33-.68-.13.68.67,1.07.17,1.07-.39,0-.37-.47-.78-1.47-1.21,2.51-.77,2.72-1.59,1.08-3.54,2.08.26,2.3-.58,1.94-2.22.72.25.86-.32.95-1a11.39,11.39,0,0,0,.42-1.56c.33-1.14.62-2.22-.5-3.05,1.75-1.3,2.11-2.31.77-4.15,2,.18,2.07-.63,1.43-2.21.54-.25.35-1.24,0-2.25a9.23,9.23,0,0,0-1.46-2.86,3.53,3.53,0,0,0-2.82-2.23,3.32,3.32,0,0,0-2.29-2.55c-.38-.17-.77-.33-1.14-.47s-.83-.36-.8-.19c-1.25-.66-2.08-1-1.47.19-2.33-1.8-3.22-2.12-4.29.11-.8-2.89-1.78-3.21-5.14-3,1.87-.66,1.36-.85-.73-.81,1.39-.17,1.18-.14-.15.22.27-.7-.59-1.07-1.16-1-.38.07-.46.6-.11,1.82a11.06,11.06,0,0,0-1.88-2c-1-.7-1.54-.11-2.48,1.89.71-3.12.56-3.07-.48.26-.13-3.68-1.14-4.08-4.15-3.53,1.9-.26,1.82.43.9,2.94.5-1.92-.18-2.65-1.64-3.11.2-.67-.41-1.07-1-1.37a13.3,13.3,0,0,0-4.94-.86c2.63-.26,2-.44-.44-.77,1.22,0,.59-.18-.47-.4a4.29,4.29,0,0,0-1.2-.34c-.36,0-.44.06,0,.45-3.52-1.44-4.82-1.79-8.14-.18,1.38-2.12.72-2.29-3-2.27,2.71-.27,2.38-.36-.41-.45,1.49-.25.5-.51-.8-.74.44,0,.57.05.19.11.19-.12-.74-.36-1.56-.55L341.31,314c2.25.56,1.59.41-.6-.15,1.25.32,1,.24-.19-.05.19.05-.51-.11-.79-.18l.5.1-2.2-.49c-.37-.07-.18,0,.51.18a27.93,27.93,0,0,0-5.84-1.1c1.59.28,1.4.51-.6,2.29,1.24-1.79.44-2.22-2.26-2.75,1.2,0,.53,0-.87,0a9.06,9.06,0,0,1-1.94,1c1.2-2,.59-2.16-2.18-1.52,1.77-.77,1.37-.76-.58-.14.74-.89-.07-1.18-1.1-1.07-.13.06-.48.52-.6,1.58a8.69,8.69,0,0,0-1.87-1.9c-1.2-.78-2.41-.67-4.53,0,1.5-1.43.92-1.57-1.22-1.14,1.22-.56.89-.58-.4-.2.17-.63-.6-.87-1.19-.87-.42,0-.67.21-.63.79-2.17-1.61-3.17-1.84-5.71-1.26,1.08-.91.61-1-1.51-.74,1.31-.4,1-.42-.65-.16.74-.46.19-.63-.87-.56.42,0,.34.28,0,1-.37-.92-1-1.34-1.38-1.29s-.42.59-.2,1.7c-1.29-2.5-1.57-2.67-1.29-.36-1.12-2.23-1.67-2-3.06.17,1-2.09,1.13-2.3.59-.49.23-1.37-.23-.72-.91,1.12.9-1,1.58-.88,3,.74-1.2-1-1.73-.65-1.82.36.25-.29,1,0,2.28.66-1.06-.2-1.52-.09-1.49.23a5,5,0,0,0,1.59,1.19c-1,.12-.49.77.2.49-.31.55.16,1.28.47,1.53s.4,0,.39-.87a16.71,16.71,0,0,0,1.09,2.53,10.26,10.26,0,0,0,3.57,3.45c-1.62-.39-1,.44.81,2.39-.79-.68-.46-.24.27.57-.15-.11.1.17.35.39a5.8,5.8,0,0,0,1.17,1.45c.27.15.35-.17.17-1.26,1.82,4.05,2.58,5,7.29,6.54-3.19.41-2.4,1.4-.2,3.61-1-.72-.62-.2.1.58a2.53,2.53,0,0,0,.52.67c1.18,1.59,2,2.62,1.59.73,2.09,4,2.93,5,6.63,7.83-2.42-1.23-2-.71.15,1.27-1.59-1.29-1.44-1.11,0,.18-.59-.23.12.65.59,1.21s.52.65.35.45l5.39,6.56c-.69-.86.19.19,1.06,1.23.43.52.88,1,1.3,1.55s.83,1,1.23,1.51c1,1.08,1.85,2.09.37,3.2,3.22.91,4.07,1.9,3.68,5.34,2.11-1.47,3-.49,3.93,1.23a6.46,6.46,0,0,1,2.4,2c.82.93,1.66,1.81,2.45,2.68s1.69,1.8,2.21,2.35c1.12,1.18,1.94,2,1.43,1.53,2.07,2.08,2.85,2.85,4.14,4.09l.8.77c.45.43,1.13,1,1.43.74.4,1,.47,1,.05,0,.89,1.43,1.28,1.79,1,0,1,2.36,1.25,2.59,1.05,0,.78,3,1.1,3.31,2,.39-.07,3.55.46,3.89,3.36,2.07-2.26,2.15-2.12,2.14.07-.14-1.52,2.47-.7,2.82,1.92,2.68-1.4.35-1,.23.35-.45-.71-.32-.58-1.17-.42-2.59a7.52,7.52,0,0,0,1.91,2.94c1.28,1.08,2.59.6,5-.7-1.75,1.54-1,1.17.58.07ZM182.71,350.25c-3.68.65-3.48,1.59-1.77,5.23-1.25-1.63-1-.54-.49,1.11a11.14,11.14,0,0,0,.29,1.22c.12.52.32,1.09.42.77.36,1.77.67,2.65,1.32.64,0,3.76.35,4.61,4.23,3.57-3.12,2.71-2.72,3.54.41,6-1.14-.47-1.59-.53-1.59-.25a4.34,4.34,0,0,0,1.13,1.53.25.25,0,0,0,0,.32c.38.6.73,1,.57.39,1.2,1.86,2,2.64,2.7.82.82,3.38,1.63,4.13,5.08,4.78-1.78.82-.92,1.54,1,2.66-.12.3.78,1,1.67,1.7s1.81,1.37,2.31,1.31c1.3,1.42,2.19,2.09,2.89-.15,1.07,3.6,1.95,4.28,5.77,3.32-2.13,2.33-1.31,3,1.26,4-1.36.07-.87.42.17.58-.4.14,0,.38.35.42.05,0,.08-.3.08-.88.68.82,1.32,1.31,1.74,1.23s.59-.74.59-2.14c1.32,3,1.9,3.08,3.28.09-.31,2.9.18,2.76,1.79.54-.41,2,.31,2,1.77,1.1-.19.43.38,0,.89-.82a1.78,1.78,0,0,0,1.33-.14c1-.57,1.53-1.12.22-1.1,2.36-1.31,2.92-2,.51-3.61,3.59.05,4.19-.74,4.17-4.27,1.27,1.91,1.9,1.06,2.78-.8a.76.76,0,0,0,.63-.3c.5-.5.83-.95.23-.62,1.63-1.72,2.32-2.66-.07-2.56,3.82-2,4.55-3,5.48-7.21.26,1.09.58,1.38,1,1.17a5.7,5.7,0,0,0,1.42-1.89c.19-.09.49-.41.49-.58.66-.67,1-1.19.19-1,2-1.72,2.68-2.74.9-4.56,3.27-.21,4-1.25,4.88-4.35.6,1,1.34,0,2.13-1.16.35-.47.72-1,1.08-1.51s.74-1,.51-1.1c1.35-1.52,2.1-2.59.27-3.24,3.31-1.47,4.06-2.52,4.59-6,1,1.4,1.7.35,2.6-1.21a10,10,0,0,0,.94-1.13,3.69,3.69,0,0,0,.73-1.27c1.07-1.28,1.79-2.31.24-2.89,3-1.47,3.68-2.49,3.31-5.78,1.75,1.29,2.45.29,3.29-1.68a1.42,1.42,0,0,0,.87-.6c.32-.37.64-.83,1-1.31.66-1,1.3-1.89.28-2,2.29-1.71,2.91-2.61.45-4.45,3.68.08,4.25-.79,4.41-4.25,1,1.79,1.56,1,2.28-.71.37.08.89-.67,1.4-1.43s1.1-1.6.35-1.25c1.79-1.86,2.28-2.58-.4-1.69,1.12-.63,1.9-1.09,2.31-1.4s.41-.56.11-.48c-.51-.3-1.31-.31-2.31.6a3.55,3.55,0,0,1,2.89-1.26c.27-.56.37-.87.64-.92-.8-.88-1.44-1.51-.29-1-.94-.82-.09-.48,1.06-.16,0-.27.35-.53.79-1.06a9.7,9.7,0,0,1,.26-3c-.09,1.61,0,2.29.19,2.21s.11-1,.2-2.57c-.08,1.07-.21,1.51-.25,1.44-.23,0-.4-.21-.54-.5a2.24,2.24,0,0,1-.06-1.24,2.37,2.37,0,0,0-.6,1.08c0,.25.17.36.6.38-.7,0-1.15,0-1.26-.23s.09-.57.74-1.09c-.92.57-1.41,1-1.43,1.26s.44.48,1.44.63c-2.62,0-3.14-.09-.65-.2-3.22.33-3.43.64-.91,2.53-3.15-1.48-3.58-1.36-2.8,1.83-1.62-2.95-2-2.78-3.37.51.5-3,0-2.86-2.17-.5.87-1.93-.07-1.63-1.86-.73-.14-.28-1.14,0-2.17.37s-2.11.68-1.64,1.1c-2.67.29-3.78.66-2,3.2-4.13-1.8-5.31-1.42-8.29,1.63.59-2.26-.63-1.86-2.36-1.1a16.33,16.33,0,0,0-3.29.91l-3.86,1.28c-1.32.44-2.63.89-2.36,1.52-2.9.26-4.22.72-5.9,2.87-1-1.23-2.36-.78-4.35.17a13.39,13.39,0,0,0-3.37.92c-1.34.47-2.67.94-4,1.42s-2.67.94-1.5,1.37c-3.81.52-5.12,1-7,4.7-.72-2.74-2-2.28-4.59-.92.05-.41-1.2.05-2.43.53L205,330.32c-1.21.47-2.37.93-1.6,1.48-3.06.35-4.17.82-4.2,3.62-2.13-1.92-3.19-1.48-5.53.5.3-1.1-.68-.68-1.84-.1-.74.25-1.65.67-2.52,1.08s-1.71.81-2.33,1.16c-1,.42-1.71.8-.89,1-2.19.72-3.5,1.39-4.17,2.77a2.94,2.94,0,0,0-.3,2.21c-1.13-.26-1.67-.39-1.89-.77-.6,1-.89,1.7-.71.37-.55,2.21-.62,3.12.35.56-.91,3.85-.88,4.27,1.47,1.42-2.21,3.66-2.13,4.05,1.81,4.61Z"/><text class="cls-4" transform="translate(111 397.85)">PL</text></svg>